<svg width="32" height="32" viewBox="0 0 32 32" fill="none" xmlns="http://www.w3.org/2000/svg">
<rect width="32" height="32" fill="#E5E5E5"/>
<rect width="288" height="1117" transform="translate(-219 -414)" fill="white"/>
<circle cx="16" cy="16" r="16" fill="#EA8329"/>
<path d="M25.3 12.08C25.019 11.7426 24.6674 11.4711 24.27 11.2845C23.8726 11.0979 23.439 11.0007 23 11H18.44L19 9.57C19.2329 8.94388 19.3105 8.2706 19.2261 7.60792C19.1416 6.94524 18.8977 6.31293 18.5152 5.76523C18.1327 5.21753 17.623 4.7708 17.0299 4.46334C16.4369 4.15589 15.778 3.99689 15.11 4C14.9176 4.0004 14.7295 4.05627 14.5681 4.16092C14.4067 4.26557 14.2789 4.41455 14.2 4.59L11.35 11H9C8.20435 11 7.44129 11.3161 6.87868 11.8787C6.31607 12.4413 6 13.2043 6 14V21C6 21.7956 6.31607 22.5587 6.87868 23.1213C7.44129 23.6839 8.20435 24 9 24H21.73C22.4318 23.9998 23.1113 23.7535 23.6503 23.304C24.1893 22.8546 24.5537 22.2303 24.68 21.54L25.95 14.54C26.0286 14.1074 26.011 13.6628 25.8987 13.2377C25.7864 12.8126 25.582 12.4174 25.3 12.08ZM11 22H9C8.73478 22 8.48043 21.8946 8.29289 21.7071C8.10536 21.5196 8 21.2652 8 21V14C8 13.7348 8.10536 13.4804 8.29289 13.2929C8.48043 13.1054 8.73478 13 9 13H11V22ZM24 14.18L22.73 21.18C22.6874 21.413 22.5635 21.6232 22.3804 21.7734C22.1973 21.9236 21.9668 22.0039 21.73 22H13V12.21L15.72 6.09C16 6.17162 16.26 6.31041 16.4837 6.49758C16.7073 6.68476 16.8897 6.91627 17.0194 7.17749C17.1491 7.43872 17.2232 7.72399 17.2371 8.0153C17.2509 8.30661 17.2043 8.59763 17.1 8.87L16.57 10.3C16.4571 10.6023 16.4189 10.9273 16.4589 11.2475C16.4988 11.5677 16.6156 11.8735 16.7993 12.1387C16.983 12.404 17.2282 12.6209 17.5139 12.7708C17.7996 12.9208 18.1173 12.9994 18.44 13H23C23.1469 12.9998 23.2921 13.0319 23.4252 13.0941C23.5582 13.1563 23.676 13.2471 23.77 13.36C23.8663 13.4713 23.9369 13.6025 23.9767 13.7443C24.0164 13.886 24.0244 14.0348 24 14.18Z" fill="white"/>
</svg>
