<svg width="32" height="32" viewBox="0 0 32 32" fill="none" xmlns="http://www.w3.org/2000/svg">
<rect width="32" height="32" fill="#E5E5E5"/>
<rect width="288" height="1117" transform="translate(-219 -591)" fill="white"/>
<circle cx="16" cy="16" r="16" fill="#EA8329"/>
<path d="M16 6C13.8783 6 11.8434 6.84285 10.3431 8.34315C8.84285 9.84344 8 11.8783 8 14C8 19.4 15.05 25.5 15.35 25.76C15.5311 25.9149 15.7616 26.0001 16 26.0001C16.2384 26.0001 16.4689 25.9149 16.65 25.76C17 25.5 24 19.4 24 14C24 11.8783 23.1571 9.84344 21.6569 8.34315C20.1566 6.84285 18.1217 6 16 6ZM16 23.65C13.87 21.65 10 17.34 10 14C10 12.4087 10.6321 10.8826 11.7574 9.75736C12.8826 8.63214 14.4087 8 16 8C17.5913 8 19.1174 8.63214 20.2426 9.75736C21.3679 10.8826 22 12.4087 22 14C22 17.34 18.13 21.66 16 23.65ZM16 10C15.2089 10 14.4355 10.2346 13.7777 10.6741C13.1199 11.1136 12.6072 11.7384 12.3045 12.4693C12.0017 13.2002 11.9225 14.0044 12.0769 14.7804C12.2312 15.5563 12.6122 16.269 13.1716 16.8284C13.731 17.3878 14.4437 17.7688 15.2196 17.9231C15.9956 18.0775 16.7998 17.9983 17.5307 17.6955C18.2616 17.3928 18.8864 16.8801 19.3259 16.2223C19.7654 15.5645 20 14.7911 20 14C20 12.9391 19.5786 11.9217 18.8284 11.1716C18.0783 10.4214 17.0609 10 16 10ZM16 16C15.6044 16 15.2178 15.8827 14.8889 15.6629C14.56 15.4432 14.3036 15.1308 14.1522 14.7654C14.0009 14.3999 13.9613 13.9978 14.0384 13.6098C14.1156 13.2219 14.3061 12.8655 14.5858 12.5858C14.8655 12.3061 15.2219 12.1156 15.6098 12.0384C15.9978 11.9613 16.3999 12.0009 16.7654 12.1522C17.1308 12.3036 17.4432 12.56 17.6629 12.8889C17.8827 13.2178 18 13.6044 18 14C18 14.5304 17.7893 15.0391 17.4142 15.4142C17.0391 15.7893 16.5304 16 16 16Z" fill="white"/>
</svg>
