<svg width="32" height="32" viewBox="0 0 32 32" fill="none" xmlns="http://www.w3.org/2000/svg">
<rect width="32" height="32" fill="#E5E5E5"/>
<rect width="288" height="1117" transform="translate(-219 -296)" fill="white"/>
<circle cx="16" cy="16" r="16" fill="#EA8329"/>
<path d="M25.53 11.15C25.378 11.0622 25.2055 11.016 25.03 11.016C24.8545 11.016 24.682 11.0622 24.53 11.15L21 12.89C20.9715 12.1136 20.6429 11.3785 20.0834 10.8394C19.5238 10.3004 18.777 9.99948 18 10H9C8.20435 10 7.44129 10.3161 6.87868 10.8787C6.31607 11.4413 6 12.2044 6 13V19C6 19.7957 6.31607 20.5587 6.87868 21.1213C7.44129 21.6839 8.20435 22 9 22H18C18.777 22.0005 19.5238 21.6996 20.0834 21.1606C20.6429 20.6215 20.9715 19.8864 21 19.11L24.56 20.89C24.6963 20.9599 24.8468 20.9975 25 21C25.1872 21.0006 25.3709 20.9486 25.53 20.85C25.6741 20.7599 25.7929 20.6346 25.8751 20.4859C25.9574 20.3372 26.0003 20.1699 26 20V12C26.0003 11.8301 25.9574 11.6628 25.8751 11.5141C25.7929 11.3654 25.6741 11.2401 25.53 11.15ZM19 19C19 19.2652 18.8946 19.5196 18.7071 19.7071C18.5196 19.8946 18.2652 20 18 20H9C8.73478 20 8.48043 19.8946 8.29289 19.7071C8.10536 19.5196 8 19.2652 8 19V13C8 12.7348 8.10536 12.4804 8.29289 12.2929C8.48043 12.1054 8.73478 12 9 12H18C18.2652 12 18.5196 12.1054 18.7071 12.2929C18.8946 12.4804 19 12.7348 19 13V19ZM24 18.38L21 16.88V15.12L24 13.62V18.38Z" fill="white"/>
</svg>
