<svg width="32" height="32" viewBox="0 0 32 32" fill="none" xmlns="http://www.w3.org/2000/svg">
<rect width="32" height="32" fill="#E5E5E5"/>
<rect width="288" height="1117" transform="translate(-219 -237)" fill="white"/>
<circle cx="16" cy="16" r="16" fill="#EA8329"/>
<path d="M19.71 15.71C20.6904 14.9387 21.406 13.8809 21.7572 12.6839C22.1085 11.487 22.0779 10.2103 21.6698 9.03147C21.2617 7.85267 20.4963 6.83039 19.4801 6.10686C18.4639 5.38332 17.2474 4.99451 16 4.99451C14.7525 4.99451 13.5361 5.38332 12.5199 6.10686C11.5037 6.83039 10.7383 7.85267 10.3302 9.03147C9.92208 10.2103 9.89151 11.487 10.2428 12.6839C10.594 13.8809 11.3096 14.9387 12.29 15.71C10.6101 16.383 9.14428 17.4994 8.04889 18.9399C6.95349 20.3805 6.26956 22.0913 6.07 23.89C6.05555 24.0213 6.06711 24.1542 6.10402 24.2811C6.14093 24.4079 6.20246 24.5263 6.28511 24.6293C6.45202 24.8375 6.69478 24.9708 6.96 25C7.22521 25.0292 7.49116 24.9518 7.69932 24.7849C7.90749 24.618 8.04082 24.3752 8.07 24.11C8.28958 22.1552 9.22168 20.3498 10.6882 19.0388C12.1547 17.7278 14.0529 17.003 16.02 17.003C17.9871 17.003 19.8852 17.7278 21.3518 19.0388C22.8183 20.3498 23.7504 22.1552 23.97 24.11C23.9972 24.3557 24.1144 24.5827 24.2991 24.747C24.4838 24.9114 24.7228 25.0015 24.97 25H25.08C25.3421 24.9698 25.5817 24.8373 25.7466 24.6313C25.9114 24.4252 25.9881 24.1624 25.96 23.9C25.7595 22.0962 25.0719 20.381 23.9708 18.9382C22.8698 17.4954 21.3969 16.3795 19.71 15.71ZM16 15C15.2089 15 14.4355 14.7654 13.7777 14.3259C13.1199 13.8864 12.6072 13.2616 12.3045 12.5307C12.0017 11.7998 11.9225 10.9956 12.0769 10.2196C12.2312 9.44372 12.6122 8.73099 13.1716 8.17158C13.731 7.61217 14.4437 7.2312 15.2196 7.07686C15.9956 6.92252 16.7998 7.00173 17.5307 7.30448C18.2616 7.60724 18.8863 8.11993 19.3259 8.77772C19.7654 9.43552 20 10.2089 20 11C20 12.0609 19.5786 13.0783 18.8284 13.8284C18.0783 14.5786 17.0609 15 16 15Z" fill="white"/>
</svg>
