<?xml version="1.0" encoding="utf-8"?>
<!-- Generator: Adobe Illustrator 26.0.3, SVG Export Plug-In . SVG Version: 6.00 Build 0)  -->
<svg version="1.1" id="Layer_1" xmlns="http://www.w3.org/2000/svg" xmlns:xlink="http://www.w3.org/1999/xlink" x="0px" y="0px"
	 viewBox="0 0 1224 792" style="enable-background:new 0 0 1224 792;" xml:space="preserve">
<style type="text/css">
	.st0{fill:#EA8328;}
	.st1{fill:#283981;}
</style>
<g>
	<path class="st0" d="M1076.32,560.03c-0.36-0.09-0.75-0.08-1.11,0.05c-0.53,0.18-0.91,0.55-1.06,1.02
		c-0.83,2.62,0.12,5.29,0.17,7.94c0.06,2.7-0.43,5.28-0.16,7.99c0.02,0.2,0.09,0.37,0.2,0.52c0.01,0.22,0.01,0.43,0.01,0.64
		c-0.05,0.07-0.09,0.14-0.12,0.21c-0.2,0.44-0.17,0.88,0.09,1.26c-0.05,1.73-0.02,3.29,0.57,4.84c0.67,1.75-0.38,4.95-0.41,6.81
		c-0.05,2.83,0.29,5.65,0.51,8.46c0.51,6.41-0.18,11.87,0.43,18.3c0.21,2.15,0.4,5.8,0.47,7.96c0.05,1.47,0.2,5.75,1.66,6.45
		c0.87,0.42,1.59-9.72,1.61-10c0.2-3.5,0.41-6.99,0.32-10.5c-0.16-6.2,1.21-12.3,0.58-18.52l0.02-0.15
		c0.28-2.78,0.57-5.65,0.12-8.43c0.18-0.95,0.23-1.91,0.17-3.02c0.66-3.05,0.33-6.15,0.18-9.23c-0.02-0.44,0.93-4.3,1.03-5.1
		C1081.78,566.14,1081.04,556.39,1076.32,560.03z"/>
	<path class="st0" d="M1074.29,532c2,2.73,7.02,0.23,7.3-2.79c0.02-0.24-0.01-0.49-0.09-0.75c-0.59-1.89-0.32-20.36-1.76-20.41
		c-0.05,0-0.45,0.01-0.49,0c0.66,0.28-0.2-12.18-0.39-13.27c0.01-2.66-0.11-5.52-0.36-8.99c-0.06-1.07-0.15-2.14-0.24-3.16
		c0.05-3.29-0.14-6.1-0.58-8.59c0.21-3.49,0.44-6.9-0.1-10.39c-0.24-1.51-0.49-8.97-1.9-6.02c-0.96,2.02-1.19,4.95-1.19,7.96
		c0,2.34,0.41,5.32-0.03,7.61c-1.19,6.25-0.51,13.58-0.45,19.94c0.04,3.69,0.24,7.47-0.2,11.14c-0.4,3.29-0.71,6.87-0.72,10
		c0,1.53,0.34,2.75-0.08,4.39c-0.83,3.23-1.1,8.52,0.51,12.01C1073.74,531.15,1074,531.6,1074.29,532z M1080.67,521.4L1080.67,521.4
		L1080.67,521.4C1080.67,521.41,1080.67,521.4,1080.67,521.4z"/>
	<path class="st0" d="M1146.33,542.13c-4.57-0.54-8.89,0.06-13.53,0.17c-3.98,0.09-8.02-0.76-12.06-0.8
		c-1.88-0.02-3.74,0.03-5.6,0.04c-1.64,0.01-3.27-0.01-4.9-0.13c-4.14-0.3-13.6-0.82-12.72,4.77c1.04,6.55,13.16,2.49,16.96,2.33
		c4.87-0.2,15.23-1.33,20.09-1.78c3.48-0.32,8.15-0.92,11.53-1.28c2.91-0.31,9.34-0.48,12.23-1.16
		C1164.93,542.73,1147.46,542.26,1146.33,542.13z"/>
	<path class="st0" d="M1056.31,549.79c1.62-0.15,3.3-0.39,4.63-1.48c1.7-1.4,0.44-4.45-0.44-5.52c-1.72-2.09-8.46-0.31-10.94-0.13
		c-4.32,0.31-8.59,1.03-12.9,1.43c-11.19,1.04-26.01,1.33-37.12,2.79c-2.07,0.27,0.56,1.68,2.13,1.72c3.05,0.07,7.01,0.2,7.35,0.22
		c3.8,0.22,5.03-0.04,9.08-0.07c4.9-0.04,9.8-0.01,14.69,0.38c3.46,0.28,6.83,0.68,10.31,0.94
		C1047.75,550.42,1051.78,550.2,1056.31,549.79z"/>
	<path class="st0" d="M1065.57,556.99c-0.27-0.06-0.54-0.09-0.81-0.09c-2.76,0-5.06,3.26-6.99,4.78c-4.38,3.44-5.3,8.99-8.88,12.88
		c-1.51,1.64-3.21,3.13-4.63,4.84c-0.69,0.84-12.23,15.01-5.13,8.73c1.37-1.21,3.77-2.41,5.09-3.55c3.06-2.63,5.68-5.61,8.54-8.4
		c2.55-2.49,5.34-4.98,8.33-7.01c2.92-1.98,5.57-4.84,6.85-7.92C1068.62,559.59,1067.42,557.42,1065.57,556.99z"/>
	<path class="st0" d="M1100.35,563.33c-1.86-2.11-3.73-4.73-6.38-6.1c-2.69-1.39-6.84,0.01-5.95,3.42c0.12,0.45,0.31,0.87,0.48,1.22
		c0.7,1.44,1.84,2.74,3.39,3.49c1.56,0.75,1.41,0.8,2.65,1.94c2.21,2.03,5.27,3.38,7.69,5.25c2.67,2.06,4.97,3.4,7.39,5.73
		c1.27,1.23,6.46,5.07,9.25,6.67c3.12,1.78-10.45-12.76-12.21-14.59C1104.47,568.08,1102.42,565.69,1100.35,563.33z"/>
	<path class="st0" d="M1088.93,534.39c3.36,2.39,6.87-1.43,8.34-2.99c1.31-1.39,3.53-3.62,4.88-5c1.13-1.16,1.84-1.59,2.71-2.74
		c1.08-1.42,2.43-3.62,3.72-4.9c2.72-2.69,3.69-5.56,6.53-8.03c2.18-1.9,4.65-4.05,6.17-6.44c0.7-1.09,3.97-3.67,1.84-3.65
		c-1.68,0.01-4.74,2.92-5.71,3.87c-2.26,2.21-4.96,4.3-8.52,7.31c-5.75,4.86-10.52,8.66-16.32,13.38c-1.78,1.45-5.74,4.25-4.56,7.48
		C1088.09,532.87,1088.77,534.27,1088.93,534.39z"/>
	<path class="st0" d="M1037.39,511.91c0.11,0.11,0.23,0.22,0.34,0.33c1.98,2,3.57,4.3,5.55,6.3c2.03,2.06,3.81,4.31,5.78,6.44
		c1.9,2.06,3.21,4.2,5.33,6.16c2.84,2.62,4.6,4.87,8.71,4.32c0.73-0.1,1.33-0.56,1.53-1.18c0.15-0.48,0.22-0.99,0.21-1.58
		c3.1-4.39-3.35-7.41-6.54-9.55c-3.68-2.47-7.13-5.13-10.71-7.83c-3.19-2.41-6.4-4.79-9.67-7.1c-1.8-1.27-3.4-3.26-5.52-4.14
		c-2.77-1.13-0.52,2.07,0.12,2.8C1033.94,508.5,1035.79,510.42,1037.39,511.91z"/>
	<path class="st0" d="M1076.52,539.73c-1.74,0.44-4.03,3.15-3.68,4.79c-0.05,0.15-0.08,0.31-0.1,0.49
		c-0.41,1.34,0.75,2.75,2.14,3.47c1.41,0.73,3.24,1.05,4.9,0.85c1.61-0.19,2.81-3.6,2.78-4.85c-0.02-0.68-0.36-1.44-0.91-2.16
		C1080.52,540.81,1078.72,539.18,1076.52,539.73z M1074.87,541.81L1074.87,541.81L1074.87,541.81L1074.87,541.81z"/>
	<path class="st0" d="M980.28,425.35c-1.04-0.09-2.94,0.14-3.99,0.24c-1.29,0.13-2.27,0.66-3.91,0.86c-0.66,0.08-2.8,0.55-3.34,0.59
		c-1.54,0.1-2.7,0.34-4.2,0.51c-0.84,0.1-1.78,0.12-2.85,0.31c-0.66,0.12-3.85,0.24-3.62,1.22c0.06,0.24,0.71,0.62,0.94,0.7
		c0.79,0.25,0.96,0.04,1.5,0.06c0.63,0.03,1.73,0.03,2.35,0.05c0.9,0.04,1.58,0.1,2.47,0.09c1.7-0.02,3.43-0.22,5.12-0.19
		c2.39,0.04,4.68,0.46,7.02,0.45c0.64,0,1.28-0.04,1.93-0.12c0.71-0.09,1.7-0.23,2.32-0.77c0.8-0.69,1.16-2.15,0.35-3.02
		C981.71,425.6,981.12,425.43,980.28,425.35z"/>
	<path class="st0" d="M989.73,434.14c-0.66,0.57-1.15,0.48-1.57,1.35c-0.32,0.66-0.52,1.72-0.37,2.47c0.15,0.78,0.17,1.65,0.31,2.49
		c0.17,0.99,0.39,1.69,0.48,2.68c0.15,1.7,0.33,3.52,0.36,5.22c0.03,2.14,0.31,3.12,0.35,4.77c0.02,0.85,0.3,2.43,0.47,3.53
		c0.08,0.52,0.69,0.37,0.94,0.18c0.51-0.4,0.53-1.79,0.56-2.28c0.08-1.41-0.01-2.6,0.03-4.01c0.1-3.01,0.41-5.98,0.79-8.96
		c0.19-1.56,0.57-3.13,0.51-4.72C992.54,435.66,991.53,432.58,989.73,434.14z"/>
	<path class="st0" d="M1018.35,425.91c-1.12,0.03-2.18-0.18-3.29-0.23c-1.22-0.06-2.86-0.34-4.07-0.29
		c-3.37,0.14-6.15-0.42-9.52-0.43c-0.61,0-1.84-0.07-2.79,0.16c-0.53,0.13-0.98,0.34-1.2,0.71c-0.24,0.06-0.47,0.17-0.69,0.27
		l-0.17,0.08c-0.19,0.08-0.34,0.27-0.41,0.53c-0.07,0.25-0.05,0.52,0.07,0.71c0.03,0.04,0.04,0.09,0.05,0.18
		c0.01,0.05,0.02,0.11,0.04,0.17c0.27,0.93,1.22,1.3,1.98,1.45c0.67,0.13,1.48,0.36,2.18,0.35c0.73-0.01,1.44-0.27,2.18-0.3
		c0.75-0.04,1.32-0.23,2.08-0.3c1.25-0.11,2.22-0.21,3.2-0.23c1.24-0.02,1.79-0.3,3.04-0.41c1.25-0.11,2.3-0.36,3.28-0.32
		c1.36,0.05,2.51-0.28,3.9-0.51c0.47-0.08,2.02-0.11,2.05-0.81C1020.32,425.73,1018.84,425.9,1018.35,425.91z"/>
	<path class="st0" d="M987.22,420.08c0.75,1.05,2.24,1.53,3.31,0.93c1.13-0.64,1.37-1.8,1.38-2.87c0-0.46,0.09-1.33,0-1.77
		c-0.14-0.68-0.03-1.38-0.13-2.07c-0.21-1.38-0.43-2.51-0.46-3.94c-0.04-1.76-0.17-3.52-0.36-5.27c-0.25-2.32-0.74-3.91-0.78-6.25
		c-0.01-0.59-0.54-2.85-0.86-3.46c-0.46-0.88-0.74,1.34-0.68,2.06c0.11,1.29-0.48,2.96-0.38,4.28c0.03,1.96-0.1,3.63-0.38,5.22
		c-0.38,2.17-0.59,3.91-0.86,6.1c-0.24,1.87-0.38,2.82-0.3,3.99C986.79,418.06,986.59,419.2,987.22,420.08z"/>
	<path class="st0" d="M987.66,425.25c-0.09,0.04-0.17,0.1-0.26,0.17c-0.76,0.41-0.92,1.5-0.7,2.37c0.23,0.89,0.31,1.63,1.55,2.34
		c0.89,0.51,2.47-0.02,3.13-0.51c0.91-0.69,1.28-1.54,1.2-2.69c0,0-0.43-1.37-0.43-1.37C991.74,424.36,988.38,424.2,987.66,425.25z
		 M989.66,424.89C989.66,424.89,989.66,424.89,989.66,424.89L989.66,424.89L989.66,424.89z"/>
	<path class="st0" d="M191.9,481.55c0.37,0.1,0.78,0.08,1.16-0.05c0.55-0.19,0.95-0.58,1.11-1.06c0.87-2.75-0.12-5.54-0.18-8.31
		c-0.06-2.83,0.45-5.52,0.17-8.37c-0.02-0.2-0.09-0.39-0.21-0.54c-0.01-0.23-0.01-0.45-0.01-0.67c0.05-0.07,0.09-0.14,0.13-0.22
		c0.21-0.46,0.17-0.92-0.1-1.32c0.05-1.81,0.02-3.45-0.6-5.07c-0.7-1.83,0.4-5.19,0.43-7.13c0.05-2.96-0.31-5.91-0.54-8.86
		c-0.53-6.71,0.19-12.43-0.45-19.15c-0.21-2.25-0.42-6.07-0.5-8.33c-0.05-1.54-0.21-6.02-1.74-6.75
		c-0.91-0.44-1.67,10.17-1.68,10.47c-0.21,3.66-0.43,7.32-0.34,10.99c0.17,6.49-1.26,12.88-0.61,19.39l-0.02,0.16
		c-0.29,2.91-0.59,5.92-0.13,8.82c-0.19,0.99-0.24,2-0.18,3.17c-0.69,3.19-0.34,6.44-0.19,9.66c0.02,0.46-0.97,4.5-1.08,5.34
		C186.19,475.15,186.97,485.36,191.9,481.55z"/>
	<path class="st0" d="M194.03,510.9c-2.09-2.86-7.35-0.25-7.64,2.92c-0.02,0.26,0.01,0.51,0.09,0.78
		c0.62,1.98,0.34,21.32,1.84,21.36c0.05,0,0.47-0.01,0.51,0.01c-0.69-0.3,0.21,12.75,0.41,13.89c-0.01,2.78,0.11,5.77,0.38,9.41
		c0.07,1.12,0.15,2.24,0.26,3.31c-0.06,3.45,0.14,6.39,0.61,8.99c-0.22,3.66-0.46,7.22,0.11,10.87c0.25,1.58,0.51,9.39,1.99,6.3
		c1.01-2.11,1.24-5.18,1.24-8.33c0-2.45-0.43-5.57,0.03-7.97c1.25-6.54,0.54-14.22,0.47-20.87c-0.04-3.86-0.25-7.82,0.21-11.66
		c0.41-3.44,0.74-7.19,0.75-10.47c0.01-1.6-0.36-2.88,0.08-4.59c0.87-3.38,1.15-8.91-0.53-12.57
		C194.61,511.78,194.34,511.32,194.03,510.9z M187.35,521.98L187.35,521.98L187.35,521.98
		C187.35,521.98,187.35,521.98,187.35,521.98z"/>
	<path class="st0" d="M118.62,500.29c4.78,0.56,9.3-0.07,14.16-0.18c4.17-0.1,8.39,0.8,12.63,0.83c1.97,0.02,3.92-0.03,5.86-0.04
		c1.71-0.01,3.42,0.01,5.13,0.14c4.33,0.32,14.24,0.86,13.31-4.99c-1.09-6.86-13.78-2.61-17.75-2.44
		c-5.1,0.21-15.94,1.39-21.03,1.86c-3.65,0.34-8.53,0.96-12.07,1.34c-3.04,0.32-9.78,0.51-12.8,1.22
		C99.15,499.66,117.44,500.15,118.62,500.29z"/>
	<path class="st0" d="M212.85,492.27c-1.69,0.15-3.45,0.41-4.84,1.55c-1.77,1.46-0.46,4.66,0.46,5.78c1.8,2.19,8.86,0.32,11.45,0.13
		c4.52-0.33,8.99-1.08,13.51-1.5c11.72-1.09,27.22-1.39,38.86-2.92c2.17-0.28-0.59-1.76-2.23-1.8c-3.2-0.08-7.33-0.2-7.7-0.23
		c-3.97-0.23-5.26,0.04-9.51,0.07c-5.13,0.04-10.26,0.01-15.37-0.4c-3.62-0.29-7.15-0.71-10.79-0.98
		C221.82,491.61,217.59,491.84,212.85,492.27z"/>
	<path class="st0" d="M203.16,484.73c0.28,0.07,0.57,0.1,0.84,0.1c2.89,0,5.29-3.41,7.32-5c4.58-3.6,5.55-9.42,9.3-13.49
		c1.58-1.72,3.37-3.27,4.85-5.07c0.72-0.88,12.8-15.72,5.37-9.14c-1.43,1.27-3.95,2.53-5.33,3.72c-3.2,2.76-5.94,5.87-8.94,8.8
		c-2.67,2.61-5.59,5.21-8.72,7.34c-3.05,2.07-5.83,5.06-7.17,8.29C199.97,482.01,201.22,484.28,203.16,484.73z"/>
	<path class="st0" d="M166.76,478.1c1.94,2.21,3.91,4.95,6.68,6.38c2.81,1.45,7.16-0.01,6.23-3.59c-0.12-0.47-0.32-0.91-0.5-1.28
		c-0.73-1.51-1.92-2.87-3.55-3.65c-1.64-0.79-1.48-0.84-2.77-2.03c-2.31-2.13-5.52-3.53-8.05-5.49c-2.79-2.15-5.21-3.56-7.73-6
		c-1.33-1.29-6.77-5.31-9.68-6.98c-3.27-1.86,10.94,13.36,12.78,15.27C162.44,473.12,164.58,475.63,166.76,478.1z"/>
	<path class="st0" d="M178.71,508.4c-3.52-2.5-7.2,1.49-8.73,3.13c-1.37,1.46-3.7,3.79-5.11,5.24c-1.18,1.21-1.92,1.67-2.84,2.87
		c-1.13,1.49-2.54,3.79-3.9,5.13c-2.85,2.82-3.86,5.82-6.83,8.4c-2.29,1.99-4.87,4.24-6.46,6.74c-0.73,1.14-4.16,3.84-1.93,3.82
		c1.76-0.01,4.96-3.06,5.98-4.06c2.37-2.31,5.19-4.5,8.92-7.65c6.01-5.09,11.01-9.06,17.08-14.01c1.86-1.52,6.01-4.45,4.77-7.83
		C179.59,509.98,178.87,508.51,178.71,508.4z"/>
	<path class="st0" d="M232.66,531.92c-0.12-0.11-0.24-0.23-0.35-0.34c-2.08-2.09-3.74-4.5-5.81-6.6c-2.13-2.16-3.99-4.51-6.05-6.74
		c-1.99-2.15-3.36-4.4-5.58-6.45c-2.97-2.75-4.81-5.1-9.12-4.52c-0.77,0.1-1.4,0.58-1.6,1.23c-0.15,0.5-0.23,1.04-0.22,1.65
		c-3.24,4.6,3.51,7.76,6.85,10c3.85,2.58,7.47,5.37,11.21,8.2c3.34,2.52,6.7,5.01,10.12,7.43c1.88,1.33,3.56,3.42,5.78,4.33
		c2.9,1.18,0.55-2.17-0.13-2.93C236.27,535.5,234.33,533.48,232.66,531.92z"/>
	<path class="st0" d="M191.69,502.8c1.83-0.46,4.22-3.29,3.85-5.01c0.05-0.15,0.09-0.32,0.1-0.51c0.43-1.4-0.79-2.88-2.24-3.63
		c-1.48-0.77-3.39-1.1-5.13-0.89c-1.68,0.2-2.94,3.77-2.91,5.08c0.02,0.71,0.38,1.5,0.95,2.27
		C187.51,501.67,189.39,503.38,191.69,502.8z M193.42,500.63L193.42,500.63L193.42,500.63L193.42,500.63z"/>
	<path class="st0" d="M295.14,575.15c0.78,0.07,2.18-0.1,2.97-0.18c0.96-0.1,1.69-0.49,2.91-0.64c0.49-0.06,2.08-0.41,2.49-0.44
		c1.14-0.07,2.01-0.25,3.12-0.38c0.62-0.07,1.33-0.09,2.12-0.23c0.49-0.09,2.86-0.18,2.69-0.9c-0.04-0.18-0.53-0.46-0.7-0.52
		c-0.59-0.19-0.71-0.03-1.12-0.05c-0.47-0.02-1.28-0.02-1.75-0.04c-0.67-0.03-1.17-0.08-1.84-0.07c-1.27,0.01-2.55,0.16-3.81,0.14
		c-1.78-0.03-3.48-0.34-5.22-0.33c-0.48,0-0.95,0.03-1.44,0.09c-0.53,0.07-1.26,0.17-1.72,0.57c-0.59,0.52-0.86,1.6-0.26,2.25
		C294.07,574.97,294.51,575.1,295.14,575.15z"/>
	<path class="st0" d="M288.11,568.62c0.49-0.42,0.86-0.36,1.17-1c0.24-0.49,0.38-1.28,0.28-1.84c-0.11-0.58-0.12-1.23-0.23-1.85
		c-0.12-0.74-0.29-1.26-0.36-2c-0.11-1.27-0.25-2.62-0.27-3.89c-0.03-1.59-0.23-2.32-0.26-3.54c-0.02-0.63-0.22-1.81-0.35-2.63
		c-0.06-0.39-0.51-0.28-0.7-0.13c-0.38,0.3-0.4,1.33-0.42,1.69c-0.06,1.05,0.01,1.94-0.02,2.98c-0.07,2.24-0.31,4.45-0.58,6.67
		c-0.14,1.16-0.42,2.33-0.38,3.51C286.02,567.48,286.76,569.78,288.11,568.62z"/>
	<path class="st0" d="M266.82,574.74c0.83-0.02,1.62,0.14,2.44,0.17c0.91,0.04,2.13,0.25,3.03,0.22c2.5-0.1,4.58,0.31,7.08,0.32
		c0.46,0,1.37,0.05,2.08-0.12c0.39-0.09,0.73-0.26,0.89-0.53c0.18-0.05,0.35-0.12,0.51-0.2l0.13-0.06c0.14-0.06,0.25-0.2,0.3-0.39
		c0.05-0.19,0.03-0.39-0.05-0.53c-0.02-0.03-0.03-0.07-0.04-0.13c-0.01-0.04-0.02-0.08-0.03-0.13c-0.2-0.69-0.9-0.96-1.47-1.08
		c-0.5-0.1-1.1-0.27-1.62-0.26c-0.55,0.01-1.07,0.2-1.62,0.23c-0.56,0.03-0.98,0.17-1.54,0.22c-0.93,0.08-1.65,0.16-2.38,0.17
		c-0.92,0.02-1.33,0.22-2.26,0.3c-0.93,0.08-1.71,0.27-2.44,0.24c-1.01-0.04-1.86,0.21-2.9,0.38c-0.35,0.06-1.5,0.08-1.53,0.61
		C265.35,574.87,266.45,574.74,266.82,574.74z"/>
	<path class="st0" d="M289.97,579.08c-0.56-0.78-1.67-1.14-2.46-0.69c-0.84,0.47-1.02,1.34-1.02,2.14c0,0.34-0.06,0.99,0,1.32
		c0.1,0.51,0.02,1.03,0.1,1.54c0.15,1.03,0.32,1.86,0.35,2.93c0.03,1.31,0.13,2.62,0.27,3.92c0.19,1.73,0.55,2.91,0.58,4.65
		c0.01,0.44,0.4,2.12,0.64,2.57c0.34,0.66,0.55-1,0.5-1.53c-0.08-0.96,0.36-2.2,0.28-3.18c-0.02-1.46,0.08-2.7,0.28-3.89
		c0.28-1.61,0.44-2.91,0.64-4.54c0.18-1.39,0.28-2.1,0.22-2.97C290.29,580.58,290.44,579.73,289.97,579.08z"/>
	<path class="st0" d="M289.64,575.22c0.06-0.03,0.13-0.08,0.19-0.13c0.56-0.31,0.69-1.11,0.52-1.76c-0.17-0.66-0.23-1.21-1.15-1.74
		c-0.66-0.38-1.84,0.01-2.33,0.38c-0.68,0.51-0.95,1.15-0.89,2c0,0,0.32,1.02,0.32,1.02C286.61,575.89,289.11,576.01,289.64,575.22z
		 M288.16,575.49C288.16,575.49,288.16,575.49,288.16,575.49L288.16,575.49L288.16,575.49z"/>
	<path class="st0" d="M110.64,387c0.78,0.07,2.18-0.1,2.97-0.18c0.96-0.1,1.69-0.49,2.91-0.64c0.49-0.06,2.08-0.41,2.49-0.44
		c1.14-0.07,2.01-0.25,3.12-0.38c0.62-0.07,1.33-0.09,2.12-0.23c0.49-0.09,2.86-0.18,2.69-0.9c-0.04-0.18-0.53-0.46-0.7-0.52
		c-0.59-0.19-0.71-0.03-1.12-0.05c-0.47-0.02-1.28-0.02-1.75-0.04c-0.67-0.03-1.17-0.08-1.84-0.07c-1.27,0.01-2.55,0.16-3.81,0.14
		c-1.78-0.03-3.48-0.34-5.22-0.33c-0.48,0-0.95,0.03-1.44,0.09c-0.53,0.07-1.26,0.17-1.72,0.57c-0.59,0.52-0.86,1.6-0.26,2.25
		C109.57,386.82,110.01,386.95,110.64,387z"/>
	<path class="st0" d="M103.61,380.47c0.49-0.42,0.86-0.36,1.17-1c0.24-0.49,0.38-1.28,0.28-1.84c-0.11-0.58-0.12-1.23-0.23-1.85
		c-0.12-0.74-0.29-1.26-0.36-2c-0.11-1.27-0.25-2.62-0.27-3.89c-0.03-1.59-0.23-2.32-0.26-3.54c-0.02-0.63-0.22-1.81-0.35-2.63
		c-0.06-0.39-0.51-0.28-0.7-0.13c-0.38,0.3-0.4,1.33-0.42,1.69c-0.06,1.05,0.01,1.94-0.02,2.98c-0.07,2.24-0.31,4.45-0.58,6.67
		c-0.14,1.16-0.42,2.33-0.38,3.51C101.52,379.33,102.26,381.63,103.61,380.47z"/>
	<path class="st0" d="M82.32,386.59c0.83-0.02,1.62,0.14,2.44,0.17c0.91,0.04,2.13,0.25,3.03,0.22c2.5-0.1,4.58,0.31,7.08,0.32
		c0.46,0,1.37,0.05,2.08-0.12c0.39-0.09,0.73-0.26,0.89-0.53c0.18-0.05,0.35-0.12,0.51-0.2l0.13-0.06c0.14-0.06,0.25-0.2,0.3-0.39
		c0.05-0.19,0.03-0.39-0.05-0.53c-0.02-0.03-0.03-0.07-0.04-0.13c-0.01-0.04-0.02-0.08-0.03-0.13c-0.2-0.69-0.9-0.96-1.47-1.08
		c-0.5-0.1-1.1-0.27-1.62-0.26c-0.55,0.01-1.07,0.2-1.62,0.23c-0.56,0.03-0.98,0.17-1.54,0.22c-0.93,0.08-1.65,0.16-2.38,0.17
		c-0.92,0.02-1.33,0.22-2.26,0.3c-0.93,0.08-1.71,0.27-2.44,0.24c-1.01-0.04-1.86,0.21-2.9,0.38c-0.35,0.06-1.5,0.08-1.53,0.61
		C80.85,386.72,81.95,386.59,82.32,386.59z"/>
	<path class="st0" d="M105.47,390.93c-0.56-0.78-1.67-1.14-2.46-0.69c-0.84,0.47-1.02,1.34-1.02,2.14c0,0.34-0.06,0.99,0,1.32
		c0.1,0.51,0.02,1.03,0.1,1.54c0.15,1.03,0.32,1.86,0.35,2.93c0.03,1.31,0.13,2.62,0.27,3.92c0.19,1.73,0.55,2.91,0.58,4.65
		c0.01,0.44,0.4,2.12,0.64,2.57c0.34,0.66,0.55-1,0.5-1.53c-0.08-0.96,0.36-2.2,0.28-3.18c-0.02-1.46,0.08-2.7,0.28-3.88
		c0.28-1.61,0.44-2.91,0.64-4.54c0.18-1.39,0.28-2.1,0.22-2.97C105.79,392.43,105.94,391.58,105.47,390.93z"/>
	<path class="st0" d="M105.15,387.07c0.06-0.03,0.13-0.08,0.19-0.13c0.56-0.31,0.69-1.11,0.52-1.76c-0.17-0.66-0.23-1.21-1.15-1.74
		c-0.66-0.38-1.84,0.01-2.33,0.38c-0.68,0.51-0.95,1.15-0.89,2c0,0,0.32,1.02,0.32,1.02C102.11,387.74,104.61,387.86,105.15,387.07z
		 M103.66,387.34C103.66,387.34,103.66,387.34,103.66,387.34L103.66,387.34L103.66,387.34z"/>
</g>
<g>
	<path class="st0" d="M1122.79,693.26c-7.58-6.24-14.3-8.63-24.52-10.78c-8.92-1.88-18.07-2.9-27.23-2.77
		c-7.59,0.11-15.24,0.05-22.85,0.91c-6.48,0.73-19.56,1.07-26,1.62c-13.21,1.13-38.47,5.74-54.04,10.46
		c-13.86,4.2-26.48,8.8-39.99,12.63c-14.94,4.23-33.14,12.62-49.26,10.28c-8.31-1.21-15.78-1.28-24.14-4.66
		c-19.88-8.04-23.32-33.44-17.43-48.04c0.33-0.81,0.68-1.64,1.04-2.46c4.3-9.75,14.52-21.5,27.19-21.84
		c0.93-0.03,1.89-0.17,2.8-0.26c5.56-0.59,11.79-1.75,17.27,0.28c11.94,4.42,22.04,12.72,23.92,24.35
		c1.78,10.98-3.42,18.16-14.48,24.83c-4.02,2.42-9.32,2.78-13.82,2.8c-9.49,0.04-15.72-1.78-21.61-8.56c-0.32,0.89-0.35,2-0.01,2.95
		c1.37,3.85,8.92,8.16,12.94,9.39c1.12,0.34,2.6,0.77,3.87,0.61c0.16,0.23,0.41,0.41,0.75,0.46c22.35,3.46,39.45-10.55,41.26-30.45
		c0.01-0.06,0.02-0.12,0.02-0.18c0.04-0.45,0.11-1.11,0.08-1.77c-0.42-8.63-2.78-16.56-10.09-22.39
		c-5.85-4.67-11.59-8.85-19.32-10.24c-1.02-0.18-3.01,0.31-3.93,0.44c-0.54-0.1-3.2-1.52-3.76-1.57c-6.54-0.52-13.43-0.68-19.83,1
		c-5.03,1.32-13.44,3.11-18.58,8.16c-5.1,3.71-10.62,8.82-13.87,14.23c-4.26,7.1-8.84,22.26-6.57,33.91
		c2.27,11.63,9.88,23.47,21.23,29.68c11.41,6.25,24.82,9.01,38.06,9.43c11.91,0.38,23.06-3.41,32.89-6.01
		c5.61-1.48,11.51-3.12,17.08-4.49c16.7-4.1,31.51-10.74,48.75-13.09c14.6-1.99,29.28-3.52,43.96-4.66
		c6.19-0.48,12.4-0.74,18.61-0.81c9.6-0.1,18.82-0.87,28.35,0.51c10.94,1.59,22.38,2.02,31.86,7.79
		c9.47,5.76,15.29,15.11,21.84,23.28c0.2,0.25,0.41-0.39,0.31-1.13c-0.4-2.96-3.56-10.74-3.98-11.38c-0.04-0.19-0.09-0.37-0.13-0.56
		c-0.1-0.59-0.15-1.29-0.31-1.93c0.46-0.27,0.87-0.61,1.26-1.03c0.2-0.22,0.34-0.44,0.44-0.67c0.12-0.13,0.23-0.25,0.34-0.36
		c0.37-0.37,0.38-0.8,0.22-1.2c-0.4-1.03,2.85-6.37,2.96-8.19C1126.56,698.59,1125.48,695.48,1122.79,693.26z"/>
	<path class="st0" d="M926.57,686.54c4.67-3.04,8.15-7.47,12.97-10.16c0.09-0.05,0.19-0.11,0.28-0.16
		c3.97-2.97,11.17-5.46,15.76-8.9c2.59-1.94,10.12-5.07,10.34-5.17c6.06-2.77,28.73-5.15,35.15-7.21c5.41-1.73,11.59-1.65,16.68-4.1
		c5.13-2.47,4.45-6.56-1.5-8.27c-12.3-3.55-37.12,2.93-46.31,8.1c-4.95,2.78-19.5,10.76-27.56,18.38
		c-4.99,4.71-8.08,7.16-12.7,12.15c-1.37,1.49-3.01,2.81-4.27,4.37C924.86,686.23,925.84,687.01,926.57,686.54z"/>
	<path class="st0" d="M918.31,699.89c-1.78,0.51-3.4,1.52-4.96,2.39c-0.22,0.12-0.31,0.31-0.32,0.49c-1.3,0.6-2.52,1.48-3.7,2.2
		c-0.41,0.25,0.02,0.87,0.46,0.67c1.53-0.72,3.33-1.36,4.63-2.4c0.08-0.06,0.1-0.14,0.13-0.21c1.78-0.76,3.68-1.54,5.03-2.84
		c1.16-0.58,2.32-1.16,3.47-1.73c7.77-3.88,15.74-7.68,23.84-10.78c11.02-4.22,20.73-9.25,32.52-11.23
		c18.17-3.05,36.65-5.5,54.91-8.04c2.39-0.33,9.25-0.86,11.64-1.09c7.53-0.72,14.06,0.57,19.6,1.3c5.16,0.68,10.44,0.87,15.52,1.99
		c2.2,0.49,9.96,4.4,11.69,4.08c2.12-0.4,2.47-2.47,1.22-3.99c-0.06-0.07-0.14-0.11-0.21-0.17c-0.01-0.09-0.01-0.18-0.03-0.28
		c0.88-6.37-8.43-11.77-14.55-12.28c-3.67-0.3-7.06-1.38-10.94-1.38c-7.08-0.01-15.09-1.58-21.95,0.01
		c-0.78,0.1-1.56,0.25-2.31,0.35c-12.32,1.76-27.26,3.3-39.03,6.34c-17.39,4.5-35.12,5.4-50.54,15.57
		c-8.78,3.67-15.86,9.22-24.05,13.62c-0.53,0.28-1.04,0.59-1.56,0.9c-0.03,0.01-0.07,0.01-0.1,0.02c-2.7,0.86-5.09,2.09-7.32,3.72
		c-0.23,0.17-0.33,0.36-0.37,0.54c-0.78,0.41-1.56,0.81-2.34,1.22C918.24,699.11,918.16,699.54,918.31,699.89z"/>
</g>
<g>
	<path class="st1" d="M509.06,539.96c0.85-15.01,1.69-29.71,2.52-44.4c-0.29-0.1-0.58-0.2-0.86-0.3c-0.46,0.79-1.08,1.53-1.36,2.38
		c-3.73,11.53-7.07,23.14-8.15,35.29c-0.09,1.02-0.77,1.99-1.05,2.65c-11.42-1.1-22.43-2.17-34.08-3.29
		c0.47-4.57,0.58-9.29,1.51-13.83c2.27-11.07,4.36-22.24,7.55-33.06c5.15-17.49,12.5-33.94,24.04-48.46
		c6.17-7.77,12.86-14.88,20.8-20.59c5.44-3.91,10.51-6.43,16.54-9.52c3-1.54,7.44-2.95,10.55-4.46c5.44,3.82,8.41,9.55,12.22,15.7
		c3.48-5.33,6.63-10.16,9.98-15.29c22.22,1.51,35.9,14.91,45.6,33.82c13.29-11.26,26.17-21.87,44.28-23
		c2.57,4.76,5.16,9.54,8.17,15.1c1.89-3.26,3.45-6.14,5.18-8.9c1.7-2.72,3.57-5.33,5.77-8.59c1.5,0.36,3.34,0.54,4.97,1.24
		c5.55,2.4,11.11,4.79,16.51,7.52c12.5,6.31,21.69,15.97,28.8,28c5.17,8.75,7.77,18.37,10.9,27.82
		c3.86,11.63,7.49,23.34,10.77,35.15c1.7,6.14,2.52,12.54,3.56,18.85c0.48,2.94-0.9,4.77-3.74,4.23
		c-8.08-1.53-15.75,0.72-23.57,1.77c-3.38,0.45-4,0.04-4.41-3.31c-1.44-11.55-4.95-22.48-9.7-33.05c-0.76-1.7-1.72-3.31-3.02-4.87
		c-0.6,7.44-1.06,14.69,0.85,22.1c1.85,7.2,2.57,14.69,3.82,22.32c-20.3,4.52-36.85,15.89-52.67,29c-0.92-0.78-1.98-1.34-2.55-2.21
		c-2.76-4.26-5.43-8.58-8.05-12.93c-5.02-8.32-12.66-13.41-21.35-17.02c-2.73-1.13-5.9-1.2-8.86-1.76c-2.05-0.38-2.1-0.62-2.54-0.18
		c-1.58,2.96-4.71,8.46-6.46,11.63c-1.84-2.87-4.62-8.71-6.31-10.97c-0.66-0.88-1.67,0.09-4.14,0.54c-1.83,0.34-3.68,0.84-5.38,1.57
		c-10.89,4.72-19.1,12.71-26.33,21.86c-1.87,2.37-3.55,4.88-5.42,7.24c-2.61,3.28-2.69,2.72-5.85,0.05
		c-11.2-9.47-21.71-20.16-37.15-22.85C517.1,542.28,513.35,541.06,509.06,539.96z M582.94,498.33c0.13,7.5,4.19,16.65,10.17,21.46
		c12.59,10.12,33.81,7.21,42.41-7.65c1.88-3.24,3.02-6.89,3.38-10.61c1.55-16.09-11-28.86-28.4-29.96
		c-11.73-0.74-24.76,9.39-27.08,21.29C583.07,494.68,582.91,496.52,582.94,498.33z"/>
	<path class="st1" d="M553.04,400.89c-13.95-2.07-28.46-5.91-36.11-19.6c-6.07-10.87-6.9-23.38-4.17-35.27
		c0.29-1.28,0.63-2.55,1.01-3.81c2.91-9.65,9.83-19.06,18.79-23.89c13.91-7.51,29.5-8.37,42.82-1.6
		c8.07,4.1,15.03,10.31,19.46,18.31c4.87,8.79,7.3,21.82,5.56,31.24c-1.32,7.18-4.45,13.08-8.62,18.99
		c-3.93,5.57-10.54,9.23-16.73,11.67C568.5,399.51,560.14,401.94,553.04,400.89z"/>
	<path class="st1" d="M619.79,370.42c0.29-11.57,4.08-23.38,11.19-31.84c6.52-7.76,12.87-10.84,22.68-14.31
		c7.68-2.72,18.58-2.14,25.76,0.22c4.3,1.41,7.05,2.86,10.79,5.06c5.94,4.62,10.23,9.4,13.47,15.35
		c7.73,14.21,6.25,28.57-0.54,42.44c-5.47,11.17-15.33,17.26-27.1,20.71c-8.19,2.4-14.22,1.93-22.38,1.42
		c-4.18-0.66-10.25-2.7-13.49-4.95c-7.66-5.32-14.32-11.88-17.51-20.95C621.18,379.37,620.72,374.82,619.79,370.42z"/>
	<path class="st1" d="M590.28,713.54c-1.5,0-2.69,0-4.66,0c0.48-5.48,0.96-10.69,1.38-15.9c0.31-3.96,0.6-7.93,0.79-11.9
		c0.35-7.38,1.46-14.85,0.72-22.12c-0.92-8.98-2.83-17.97-5.36-26.65c-4.98-17.05-14.38-31.21-27.58-43.49
		c-14.79-13.76-31.19-24.67-49.49-32.66c-12.43-5.42-25.26-9.76-39.09-11.13c-16.07-1.6-29.18-9.33-39.6-21.95
		c-6.24-7.57-13.26-14.54-20.29-21.39c-8.52-8.3-17.43-16.21-26.21-24.24c-0.96-0.88-2.14-1.65-3.35-2.09
		c-7.02-4.47-12.74-6.45-20.93-7.22c-0.46-0.16-2.93,0.21-3.71,0.33c0.88,0.88,2.87,3.8,3.76,5.52c1.71,3.33,3.65,6.54,5.26,9.91
		c2.16,4.52,0.84,8.61-2.71,11.66c-2.53,2.18-3.22,2.62-3.22,2.62c4.25,5.8,11.18,15.19,15.22,21.14
		c3.83,5.63,7.1,11.64,11.01,17.21c3.01,4.29,6.53,8.24,9.98,12.2c2.95,3.39,6.13,6.58,10.24,10.94c-2.81-1.25-4.66-1.77-6.16-2.78
		c-6.89-4.66-11.87-11.09-16.22-18.04c-2.41-3.85-4.46-7.92-6.98-11.69c-3.68-5.49-7.67-10.77-11.44-16.2
		c-2.04-2.94-3.82-6.06-5.84-9.02c-1.67-2.45-3.33-4.97-5.34-7.14c-3.73-4.02-7.06-7.75-10.76-11.81c-4.1-4.49-6.73-5.49-2.64-10.13
		c1.91-2.17,6.44-4.68,8.9-6.33c1.07-0.72,3.68-1.3,4.75-1.81c-0.44-2.42-1.34-5.24-5.24-10.66c-1.25,0.33-2.65,0.75-4.06,1.06
		c-1.41,0.31-2.85,0.52-4.68-0.06c0.6-0.46,1.13-1.1,1.8-1.36c4.6-1.75,6.74-5.91,7.42-9.94c1.75-10.47,0.14-20.67-4.82-30.17
		c-4.12-0.25-7.93-0.48-11.74-0.7c-0.01-0.37-0.03-0.74-0.04-1.11c1.34-0.42,2.69-0.83,4.03-1.25c4.64-1.47,7.29-5.46,7.74-9.46
		c1.37-12.25-1.27-23.72-9.64-33.32c-3.62-4.15-7.55-4.78-11.87-2.61c-2.05,1.03-2.74,2.61-2.94,4.48c-0.51,4.89-0.77,9.8-1.21,14.7
		c-1.11,12.41-2.51,24.79-3.33,37.22c-0.62,9.44-0.59,18.93-0.71,28.4c-0.06,4.55,0.22,9.1,0.36,13.65
		c0.16,4.98,1.4,9.67,3.45,14.24c3.94,8.79,7.99,17.57,11.36,26.59c5.83,15.6,11.2,31.37,16.7,47.09
		c2.12,6.06,3.46,12.49,6.28,18.19c3.41,6.92,7.74,13.45,12.23,19.74c1.74,2.43,4.94,3.9,7.64,5.55c4.59,2.8,8.99,5.62,13.9,8.29
		c2.13,2.19,5.56,3.09,8.33,4.71c8.49,4.95,16.81,10.21,25.44,14.9c12.63,6.86,25.93,12.58,38.08,20.18
		c11.78,7.36,23.33,15.5,29.62,28.9c2.39,5.11,6.43,9.51,7.25,15.29c0.95,6.72,1.45,13.51,2.16,20.39
		c-0.94,0.34-1.81,0.65-2.61,0.94c-0.36-0.46-0.73-0.71-0.76-1c-0.56-5.57-0.87-11.17-1.64-16.7c-1.31-9.37-7.34-16.45-12.12-24.13
		c-4.75-7.62-11.61-13.02-19.14-17.44c-10.09-5.92-20.55-11.2-30.81-16.85c-13.76-7.58-27.46-15.24-41.19-22.86
		c-4.97-2.76-9.86-5.65-14.92-8.23c-9.68-4.94-16.09-12.88-21.25-22.18c-7.05-12.71-10.58-26.73-14.7-40.45
		c-5.35-17.82-12.39-34.99-19.88-51.89c-4.42-9.98-7.27-19.87-7.47-30.54c-0.15-8.11,0.32-16.25,0.83-24.35
		c0.7-10.95,1.77-21.87,2.56-32.82c0.67-9.25,1.1-18.53,1.84-27.77c0.18-2.22,0.83-4.5,1.76-6.53c2.39-5.2,9.54-6.12,15.21-2.31
		c7.7,5.17,11.88,12.41,13.34,21.47c1.14,7.14,1.9,14.23,0.21,21.4c-0.27,1.15,0.14,2.57,0.56,3.75c4.56,12.6,7.03,25.49,5.57,38.96
		c-0.1,0.88,0.16,1.86,0.47,2.72c1.23,3.37,2.55,6.71,3.82,10.07c0.78,2.07,1.27,3.3,1.27,3.3c12.05,0.2,24.19,7.33,32.6,14.84
		c4.34,3.88,8,8.52,11.99,12.8c0.89,0.96,1.71,2.08,2.8,2.74c9.55,5.83,16.34,14.57,23.81,22.57c7.49,8.02,14.47,16.8,25.5,20.13
		c7.76,2.35,15.71,4.11,23.67,5.72c14.19,2.86,27.81,7.1,40.56,14.16c11.27,6.25,22.3,12.81,32.76,20.38
		c15.24,11.04,26.7,24.87,33.8,42.47c4.49,11.12,8.55,22.24,9.39,34.27c0.42,6.03,0.73,12.11,0.5,18.15
		c-0.35,9.08-1.24,18.13-1.86,27.2C590.51,707.23,590.43,710.24,590.28,713.54z M355.36,500.79c4.04-3.15,5.86-6.69,4.09-10.81
		c-1.91-4.45-4.15-8.96-7.18-12.68c-4.48-5.49-6.87-2.87-12.22,0.45c-0.59,0.72-1.33,1.53-2.15,2.56c-0.51,0.65-0.47,1.59,0.1,2.19
		C343.67,488.6,349.56,494.52,355.36,500.79z"/>
	<path class="st1" d="M633.66,704.24c-0.62-9.07-1.51-18.12-1.86-27.2c-0.23-6.03,0.08-12.11,0.5-18.15
		c0.84-12.03,4.9-23.15,9.39-34.27c7.1-17.6,18.55-31.43,33.8-42.47c10.45-7.57,21.48-14.13,32.76-20.38
		c12.74-7.06,26.37-11.3,40.56-14.16c7.95-1.61,15.91-3.37,23.67-5.72c11.03-3.33,18.01-12.11,25.5-20.13
		c7.47-8.01,14.26-16.74,23.81-22.57c1.09-0.66,1.91-1.78,2.8-2.74c3.98-4.28,7.65-8.92,11.99-12.8c8.41-7.51,17.43-14.1,29.48-14.3
		c2.46-0.04,2.73,0.12,2.73,0.12c1.27-3.36,4.25-10.66,5.48-14.03c0.31-0.86,0.57-1.83,0.47-2.72c-1.46-13.47,1.01-26.35,5.57-38.96
		c0.43-1.18,0.83-2.6,0.56-3.75c-1.7-7.17-0.94-14.26,0.21-21.4c1.45-9.06,5.64-16.3,13.34-21.47c5.68-3.81,12.83-2.89,15.21,2.31
		c0.93,2.03,1.59,4.31,1.77,6.53c0.73,9.25,1.16,18.52,1.84,27.77c0.8,10.94,1.86,21.87,2.56,32.82c0.52,8.11,0.98,16.24,0.83,24.35
		c-0.19,10.68-3.04,20.57-7.47,30.54c-7.49,16.9-14.53,34.07-19.88,51.89c-4.12,13.71-7.64,27.73-14.7,40.45
		c-5.16,9.3-11.57,17.23-21.25,22.18c-5.06,2.58-9.95,5.47-14.92,8.23c-13.73,7.62-27.44,15.29-41.19,22.86
		c-10.25,5.65-20.71,10.93-30.81,16.85c-7.53,4.42-14.39,9.82-19.14,17.44c-4.78,7.68-10.81,14.76-12.12,24.13
		c-0.77,5.54-1.08,11.14-1.64,16.7c-0.03,0.29-0.4,0.55-0.76,1c-0.8-0.29-1.67-0.6-2.61-0.94c0.71-6.88,1.2-13.67,2.16-20.39
		c0.82-5.78,4.86-10.18,7.25-15.29c6.28-13.4,17.84-21.54,29.62-28.9c12.15-7.59,25.46-13.32,38.08-20.18
		c8.63-4.69,16.95-9.95,25.44-14.9c2.77-1.61,5.91-2.97,8.33-4.71c4.85-3.11,9.31-5.49,13.9-8.29c2.7-1.64,5.9-3.11,7.64-5.55
		c4.5-6.29,8.82-12.82,12.23-19.74c2.82-5.71,4.16-12.13,6.28-18.19c5.5-15.72,10.87-31.49,16.7-47.09
		c3.37-9.02,7.42-17.8,11.36-26.59c2.05-4.57,3.29-9.25,3.45-14.24c0.14-4.55,0.42-9.1,0.36-13.65c-0.12-9.47-0.09-18.96-0.71-28.4
		c-0.82-12.43-2.22-24.81-3.33-37.22c-0.44-4.9-0.7-9.81-1.21-14.7c-0.2-1.87-0.89-3.45-2.94-4.48c-4.32-2.17-8.24-1.54-11.87,2.61
		c-8.37,9.59-11.01,21.07-9.64,33.32c0.45,4.01,3.1,8,7.74,9.46c1.34,0.42,2.68,0.84,4.03,1.25c-0.01,0.37-0.03,0.74-0.04,1.11
		c-3.81,0.23-7.62,0.46-11.74,0.7c-4.96,9.5-6.57,19.7-4.82,30.17c0.67,4.04,2.82,8.2,7.42,9.94c0.68,0.26,1.21,0.9,1.8,1.36
		c-1.83,0.58-3.26,0.37-4.68,0.06c-1.42-0.31-2.81-0.73-4.06-1.06c-2.22,3.18-3.88,6.15-5.53,10.77c0.13,0.06,2.64-0.66,5.5,0.55
		c2.46,1.65,4.92,3.12,6.83,5.28c4.08,4.64,3.88,5.85-0.22,10.35c-3.69,4.05-7.84,9.77-11.57,13.79c-2.01,2.17-3.66,4.68-5.34,7.14
		c-2.02,2.96-3.8,6.08-5.84,9.02c-3.77,5.43-7.77,10.71-11.44,16.2c-2.52,3.77-4.58,7.84-6.98,11.69
		c-4.35,6.95-9.33,13.39-16.22,18.04c-1.51,1.02-3.35,1.54-6.16,2.78c4.1-4.36,7.28-7.55,10.24-10.94c3.45-3.96,6.97-7.91,9.98-12.2
		c3.9-5.57,7.18-11.58,11.01-17.21c4.04-5.95,10.91-15.12,15.16-20.92c0,0.44-0.63-0.67-3.16-2.85c-3.55-3.06-4.87-7.14-2.71-11.66
		c1.61-3.37,3.55-6.59,5.26-9.91c0.88-1.72,2.61-3.24,1.9-5.59c-0.78-0.12-1.39-0.41-1.85-0.26c-6.93-0.77-14.41,1.87-20.93,7.22
		c-1.21,0.43-2.39,1.21-3.35,2.09c-8.78,8.03-17.69,15.94-26.21,24.24c-7.04,6.86-14.05,13.83-20.29,21.39
		c-10.42,12.63-23.53,20.36-39.6,21.95c-13.82,1.37-26.66,5.71-39.09,11.13c-18.3,7.98-34.7,18.89-49.49,32.66
		c-13.19,12.28-22.6,26.44-27.58,43.49c-2.53,8.68-4.44,17.67-5.36,26.65c-0.75,7.27,0.36,14.74,0.72,22.12
		c0.19,3.97,0.47,7.94,0.79,11.9c0.41,5.22,0.9,10.43,1.38,15.9c-1.97,0-3.16,0-4.66,0C633.95,710.24,633.87,707.23,633.66,704.24z
		 M886.61,481.04c-1.15-1.63-1.5-2.32-2.29-3.28c-4.57-5.55-7.75-5.95-12.22-0.45c-3.03,3.72-5.27,8.23-7.18,12.68
		c-3.41,7.35,2.1,7.13,4.09,10.81C875.14,494.17,880.65,487.49,886.61,481.04z"/>
</g>
<g>
	<path class="st0" d="M111.62,693.26c7.58-6.24,14.3-8.63,24.52-10.78c8.92-1.88,18.07-2.9,27.23-2.77
		c7.59,0.11,15.24,0.05,22.85,0.91c6.48,0.73,19.56,1.07,26,1.62c13.21,1.13,38.47,5.74,54.04,10.46
		c13.86,4.2,26.48,8.8,39.99,12.63c14.94,4.23,33.14,12.62,49.26,10.28c8.31-1.21,15.78-1.28,24.14-4.66
		c19.88-8.04,23.32-33.44,17.43-48.04c-0.33-0.81-0.68-1.64-1.04-2.46c-4.3-9.75-14.52-21.5-27.19-21.84
		c-0.93-0.03-1.89-0.17-2.8-0.26c-5.56-0.59-11.79-1.75-17.27,0.28c-11.94,4.42-22.04,12.72-23.92,24.35
		c-1.78,10.98,3.42,18.16,14.48,24.83c4.02,2.42,9.32,2.78,13.82,2.8c9.49,0.04,15.72-1.78,21.61-8.56c0.32,0.89,0.35,2,0.01,2.95
		c-1.37,3.85-8.92,8.16-12.94,9.39c-1.12,0.34-2.6,0.77-3.87,0.61c-0.16,0.23-0.41,0.41-0.75,0.46
		c-22.35,3.46-39.45-10.55-41.26-30.45c-0.01-0.06-0.02-0.12-0.02-0.18c-0.04-0.45-0.11-1.11-0.08-1.77
		c0.42-8.63,2.78-16.56,10.09-22.39c5.85-4.67,11.59-8.85,19.32-10.24c1.02-0.18,3.01,0.31,3.93,0.44c0.54-0.1,3.2-1.52,3.76-1.57
		c6.54-0.52,13.43-0.68,19.83,1c5.03,1.32,13.44,3.11,18.58,8.16c5.1,3.71,10.62,8.82,13.87,14.23c4.26,7.1,8.84,22.26,6.57,33.91
		c-2.27,11.63-9.88,23.47-21.23,29.68c-11.41,6.25-24.82,9.01-38.06,9.43c-11.91,0.38-23.06-3.41-32.89-6.01
		c-5.61-1.48-11.51-3.12-17.08-4.49c-16.7-4.1-31.51-10.74-48.75-13.09c-14.6-1.99-29.28-3.52-43.96-4.66
		c-6.19-0.48-12.4-0.74-18.61-0.81c-9.6-0.1-18.82-0.87-28.35,0.51c-10.94,1.59-22.38,2.02-31.86,7.79
		c-9.47,5.76-15.29,15.11-21.84,23.28c-0.2,0.25-0.41-0.39-0.31-1.13c0.4-2.96,3.56-10.74,3.98-11.38c0.04-0.19,0.1-0.37,0.13-0.56
		c0.1-0.59,0.15-1.29,0.31-1.93c-0.46-0.27-0.87-0.61-1.26-1.03c-0.2-0.22-0.34-0.44-0.44-0.67c-0.12-0.13-0.23-0.25-0.34-0.36
		c-0.37-0.37-0.38-0.8-0.22-1.2c0.4-1.03-2.85-6.37-2.96-8.19C107.85,698.59,108.93,695.48,111.62,693.26z"/>
	<path class="st0" d="M307.85,686.54c-4.67-3.04-8.15-7.47-12.97-10.16c-0.09-0.05-0.19-0.11-0.28-0.16
		c-3.97-2.97-11.17-5.46-15.76-8.9c-2.59-1.94-10.12-5.07-10.34-5.17c-6.06-2.77-28.73-5.15-35.15-7.21
		c-5.41-1.73-11.59-1.65-16.68-4.1c-5.13-2.47-4.45-6.56,1.5-8.27c12.3-3.55,37.12,2.93,46.31,8.1c4.95,2.78,19.5,10.76,27.56,18.38
		c4.99,4.71,8.08,7.16,12.7,12.15c1.37,1.49,3.01,2.81,4.27,4.37C309.56,686.23,308.57,687.01,307.85,686.54z"/>
	<path class="st0" d="M316.1,699.89c1.78,0.51,3.4,1.52,4.96,2.39c0.22,0.12,0.31,0.31,0.32,0.49c1.3,0.6,2.52,1.48,3.7,2.2
		c0.41,0.25-0.02,0.87-0.46,0.67c-1.53-0.72-3.33-1.36-4.63-2.4c-0.08-0.06-0.1-0.14-0.13-0.21c-1.78-0.76-3.68-1.54-5.03-2.84
		c-1.16-0.58-2.32-1.16-3.47-1.73c-7.77-3.88-15.74-7.68-23.84-10.78c-11.02-4.22-20.73-9.25-32.52-11.23
		c-18.17-3.05-36.65-5.5-54.91-8.04c-2.39-0.33-9.25-0.86-11.64-1.09c-7.53-0.72-14.06,0.57-19.6,1.3
		c-5.16,0.68-10.44,0.87-15.52,1.99c-2.2,0.49-9.96,4.4-11.69,4.08c-2.12-0.4-2.47-2.47-1.22-3.99c0.06-0.07,0.14-0.11,0.21-0.17
		c0.01-0.09,0.01-0.18,0.03-0.28c-0.88-6.37,8.43-11.77,14.55-12.28c3.67-0.3,7.06-1.38,10.94-1.38c7.08-0.01,15.09-1.58,21.95,0.01
		c0.78,0.1,1.56,0.25,2.31,0.35c12.32,1.76,27.26,3.3,39.03,6.34c17.39,4.5,35.12,5.4,50.54,15.57c8.78,3.67,15.86,9.22,24.05,13.62
		c0.53,0.28,1.04,0.59,1.56,0.9c0.04,0.01,0.07,0.01,0.1,0.02c2.7,0.86,5.09,2.09,7.32,3.72c0.23,0.17,0.33,0.36,0.37,0.54
		c0.78,0.41,1.56,0.81,2.34,1.22C316.17,699.11,316.25,699.54,316.1,699.89z"/>
</g>
<g>
	<path class="st1" d="M734.97,128.23c-0.32,0.33-0.32,0.41,0,0.24C735.28,128.31,735.28,128.23,734.97,128.23z"/>
	<path class="st1" d="M873.86,129.11c-0.19,0-0.22-0.3-0.03-0.3C874.02,128.81,874.05,129.11,873.86,129.11z"/>
	<path class="st1" d="M907.7,177.99c0-0.83-0.01-1.64-0.02-2.41c2.3-2.38,3.87-5.77,4.32-10.55c0.74-7.94,0.89-13.87,1.1-21.48
		c0,0,0,0,0,0c0-0.06,0-0.11,0-0.17c0.02-0.77,0.04-1.55,0.07-2.36c0.1-3.47,0.13-7.49,0.13-11.64c0.02-1.01,0.04-2.03,0.06-3.01
		c0.18-7.29,0.61-17.23-3.32-23.62c-2.76-4.49-6.93-5.79-11.33-6.11c-1.33-0.1-2.69-0.1-4.03-0.08c-1.06-0.42-2.16-0.66-3.3-0.63
		c-1.9,0.05-8.99-0.02-10.86-0.1c-6.06-0.25-11.87,0.4-17.99,0.1c-3.76-0.19-10.79,0-13.21,0.22c-0.98,0.09-0.66,3.07-0.66,7.49
		c0,11.67,1.06,28.06,0,39.19c-0.44,4.62,0.21,7.44-0.11,10.41c-0.32,3.02,0.33,12.58,0.33,15.57c0,0.44-2.29,0.88-3.08,0.88
		c-0.66,0-5.56,22.9-2.64,22.9c3.3,0,6.89,0.28,7.05,0.44c0.22,0.22-0.57,11.53-0.77,17.83c-0.2,6.41,0.34,12.82,0.34,19.23
		c0,6.32-0.67,13.58-0.23,19.74c0.52,7.23-0.22,15.41-0.66,21.14c-0.14,1.87,0.48,2.37,1.73,2.59c0.96,0.76,3.93,0.78,5.86,0.88
		c1.49,0.08,2.98,0.12,4.47,0.15c3.57,0.27,7.25,0.43,10.62,0.35c6.74-0.16,10.38-0.61,14.95-1.04c2.74-0.11,5.48-0.19,8.2-0.23
		c10.22-0.12,19.47-3.16,20.7-15.65c0.87-8.8,0.96-15.12,1.24-24c0.13-4.22,0.15-9.26,0.13-14.35l-0.16-0.1
		c0.06-4.53,0.13-9.03,0.23-13.21c0.19-7.29,0.64-17.23-3.5-23.62C911.84,180.39,909.88,178.91,907.7,177.99z M874.16,149.01
		c0.09,0,0.18,0,0.27,0c-0.02-11.02-0.08-26.98-0.23-28.58c-0.06-0.69,7.65-0.87,8.4-0.82c2.37,0.16,5.5-0.06,6.09,3.02
		c0.46,2.42,0.65,8.96,0.59,11.23c-0.09,2.95,0.85,16.64,0.86,17.07c0.06,2.8-0.39,2.97-0.85,5.75c-0.38,2.32-1.03,4.06-3.04,4.84
		c-0.8,0.32-1.44,0.96-2.26,1.25c-1.01,0.36-9.29-0.51-9.6-0.49C873.97,159.75,874.08,153.25,874.16,149.01z M891.75,225.33
		c0.17,3-0.15,7.02-0.08,10.02c0.06,2.8,0.29,4.56-0.19,7.34c-0.4,2.32-1.09,4.06-3.21,4.84c-0.85,0.32-1.52,0.96-2.39,1.25
		c-1.07,0.36-2.22,0.27-3.31,0.22c-2.99-0.14-7.43-0.54-9.14-0.67c0.07-3.11,1.04-44.2,1.4-59.39c3.29-0.29,9.01-0.37,9.57-0.34
		c2.5,0.16,5.81-0.06,6.43,3.02c0.49,2.42,0.69,8.96,0.62,11.23c-0.02,0.78,0.16,2.67,0.43,5.07
		C891.83,213.46,891.67,223.93,891.75,225.33z"/>
	<path class="st1" d="M640.04,251.26c-0.03,0.03-0.03,0.05-0.05,0.07c0.11,0,0.23,0,0.35,0
		C640.3,251.28,640.21,251.26,640.04,251.26z"/>
	<path class="st1" d="M647.13,251.11c-0.2,0.11-3.98,0.22-6.79,0.22c0.03,0.04,0.01,0.1-0.06,0.17c-0.16,0.16-0.28,0.2-0.35,0.12
		c-0.07-0.07-0.03-0.17,0.07-0.29c-0.94,0-1.74-0.02-2.22-0.06c-1.7-0.12-8.32,0.97-9.83,0.42c0.06-0.14-1.02-13.07-1.03-16.16
		c-0.01-2.52-0.15-5.07,0.04-7.59c0.16-2.22,0.89-24.13,0.46-28.72c-1.54-16.77,0.78-33.83-0.38-50.64
		c-0.6-8.69,0.07-17.34-0.01-26.03c-0.04-4.3-0.48-18.14-0.59-22.11c-0.12-1.53,0.07-3.6-0.12-4.18c-1.77-0.39-3.81-0.38-5.32-0.1
		c-1.33,0.24-6.05-0.03-7.2-0.35c-1.47-0.42-15.67,0.46-16.11,0.9c0.22,1.54,0.22,3.83,0.46,7.03c0.18,2.54-0.31,5.09-0.17,7.65
		c1.09,20.41-0.21,40.9,0.41,61.33c0.78,25.85-0.45,51.8-0.13,77.67c0.02,1.78-0.1,5.54-0.3,5.57c0.17,2.71,0.61,12.13,0.22,12.09
		c-0.56,2.29,0.13,7.86,0.62,7.89c3.96,0.22,12.36-0.12,12.4-0.31c2.84,0.41,5.95,0.48,8.83,0.37c3.15-0.12,6.47,0.41,9.56,0.17
		c1.38-0.11,2.52-0.51,3.59-0.52c1.08-0.01,2.06,0.29,3.22,0.14c2.83-0.36,3.83-0.67,6.65-0.06c1.98,0.22,3.78,1.23,4.4-0.22
		c0.54-1.26,0-4.4-0.22-7.27C647.9,263.17,647.19,251.24,647.13,251.11z"/>
	<path class="st1" d="M503.62,95.71c-2.78-0.18-5.63-0.05-8.33,0.01c-9,0.19-17.99-0.52-26.98-0.43
		c-6.12,0.06-17.24-0.79-18.68,0.65c-0.88,0.88-0.22,22.56-0.13,28.73c0.13,9.03-0.09,20.37-0.33,29.39
		c-0.24,8.97-0.08,20.75,0,29.72c0.17,18.99,0.79,31.85,0.44,49.87c-0.17,8.84-0.86,18.39-0.64,28.29
		c0.05,2.31,0.22,10.35,0.22,12.11c0,1.32,4.1,1.32,6.57,1.44c13.48,0.65,27.23-0.62,40.73-0.76c10.88-0.12,20.74-3.16,22.05-15.65
		c0.92-8.8,1.03-15.12,1.32-24c0.3-9.03,0.07-21.79,0-30.83c-0.13-17.97-0.48-32.24-0.22-50.2c0.13-9.04,0.19-19.58,0.44-28.62
		c0.2-7.29,0.68-17.23-3.73-23.62C513.25,97.34,508.56,96.03,503.62,95.71z M493.22,236.41c0.07,2.8,0.31,4.56-0.2,7.34
		c-0.43,2.32-1.16,4.06-3.42,4.84c-0.9,0.32-1.62,0.96-2.54,1.25c-1.13,0.36-2.37,0.27-3.52,0.22c-3.89-0.17-6.92-0.73-7.27-0.71
		c-0.65-3.57-0.15-14.97-0.21-16.91c-0.52-14.83-0.38-29.38,0-44.26c0.26-10.1,0.44-64.51,0-68.7c-0.07-0.69,8.6-0.87,9.45-0.82
		c2.66,0.16,6.19-0.06,6.85,3.02c0.52,2.42,0.74,8.96,0.66,11.23c-0.88,26.64,0,45.8,0,71.34c0,8.37-0.07,15.69,0.31,22.13
		C493.49,229.4,493.15,233.42,493.22,236.41z M493.24,199.84c-0.32,0.16-0.32,0.08,0-0.24C493.55,199.6,493.55,199.69,493.24,199.84
		z"/>
	<path class="st1" d="M742.34,95.33c-2.78-0.18-5.63-0.05-8.33,0.01c-9,0.19-17.99-0.52-26.98-0.43
		c-6.12,0.06-17.24-0.79-18.68,0.65c-0.07,0.07-0.14,0.31-0.19,0.66c-0.76,0.44-0.48,3.31-0.48,7.43c0,11.67,1.06,28.06,0,39.19
		c-0.44,4.62,0.21,7.44-0.11,10.41c-0.28,2.62,0.17,16.91,0.3,22.62c-0.02,0.7-0.05,1.41-0.07,2.11c-0.44,0.38-2.29,0.72-2.98,0.72
		c-0.66,0-5.56,22.9-2.64,22.9c2.12,0,4.36,0.12,5.73,0.24c0,0.35,0.01,0.65,0.01,0.85c0,0.44,0.46,0.73,1.16,0.93
		c-0.2,1.35-0.51,3.64-0.62,7.25c-0.2,6.41,0.34,12.82,0.34,19.23c0,6.32-0.67,13.58-0.23,19.74c0.52,7.23-0.22,15.41-0.66,21.14
		c-0.23,2.93,1.43,2.51,4.4,2.86c5.5,0.66,12.36,1.24,18.28,1.1c1.87-0.04,6.64-1.04,8.34-1.01c0.68-9.06-1.12-18.36-1.09-26.95
		c0-0.2-1.02-37.79-0.89-43.02c6.11-0.24,12.21-0.53,18.27-0.6c10.88-0.12,20.74-3.16,22.05-15.65c0.92-8.8,1.03-15.12,1.32-24
		c0.28-8.34,0.1-19.86,0.02-28.69c0.05-3.42,0.12-6.78,0.2-9.96c0.2-7.29,0.68-17.23-3.73-23.62
		C752.1,97.14,744.49,95.47,742.34,95.33z M731.94,165.04c0,0.15,0.01,0.28,0.01,0.43c-0.15,0-0.29,0-0.34,0h0.34
		c0.08,2.55,0.27,4.28-0.22,6.91c-0.43,2.32-1.16,4.06-3.42,4.84c-0.13,0.04-0.25,0.11-0.37,0.16c-1.54,0.06-3.16,0.16-4.88,0.31
		c-2.65,0.24-8.09-0.54-8.09-0.54c-0.14-0.14-0.19-6.44-0.21-11.84c0.07,0,0.14,0,0.22,0.01c0.08-15.83,0.07-34.99-0.09-42.84
		c0.85-0.33,5.44-0.22,8.21-0.26c3.23-0.05,5.77-0.17,8.08-0.21c0.43,2.79,0.61,8.46,0.54,10.54c-0.16,4.81-0.1,9.36,0.03,13.77
		c0.04,3.07,0.12,5.97,0.28,8.7C732.21,158.02,731.87,162.04,731.94,165.04z"/>
	<path class="st1" d="M837.73,97.48c-0.37-1.2-13.08-0.71-17.05-0.52c-2.08,0.1-5.86,0.6-8.06,0.74c-1.59,0.1-1.99,1.94-1.76,3.52
		c-0.44,6.17,0.08,17.06,0.06,25.62c-0.05,17.33,0,31.91,0.6,49.24c0.14,4.07,0,12.77,0,18.94c0,8.38-0.26,14.18-0.44,17.17
		c-0.39,6.26,0.01,11.99-0.24,18.27c-0.12,3.18,0.04,6.07,0.24,9.26c0.2,3.24,0.66,8.59-0.66,9.25c0.09-0.51-18.28-0.44-18.5-0.44
		c0-0.66,0.05-13.66,0.01-15.9c-0.05-2.68-0.22-5.22,0.04-7.91c0.53-5.49,0.13-11.62,0.17-17.14c0.08-10.05,0.73-17.91,0.66-27.96
		c-0.07-10.07-0.4-18.33-0.22-28.4c0.09-4.91,0.23-13.1-0.04-18.02c-0.27-4.98,0.1-8.91,0.26-13.91c0.16-4.95,0.73-10.03,0.22-14.97
		c-0.11-1.07-0.44-5.06-0.54-6.62c0.1-1.53-2.6-1.26-3.8-1.18c-2.34,0.15-12.83-0.25-16.1-0.48c-2.06-0.14-3.92-0.34-5.33,0.17
		c-1.33,0.48-2.2,0.03-2.19,2.39c0.02,3.86,0.35,6.6,0.42,9.36c0.26,0.01,0.29,0.09,0.07,0.24c-0.03,0.02-0.04,0.02-0.06,0.03
		c0.03,1.42-0.01,2.86-0.21,4.46c-0.23,1.9-0.22,8.37-0.44,12.11c-0.11,1.9,0.16,6.87,0.31,8.86c0.65,8.66-0.09,17.39,0.03,26.07
		c0.22,15.61-0.43,31.21-0.51,46.8c-0.05,8.76,0.52,17.08,0.17,24.83c-0.35,7.82-0.19,16.17-0.22,24
		c-0.02,5.44-0.48,9.47,2.77,14.11c3.67,5.24,9.93,5.6,15.75,5.19c3.69-0.26,7.34,0.41,11.02,0.13c3.88-0.3,7.53-1.15,11.45-0.84
		c3.13,0.24,6.14,0.19,9.26,0.2c1.84,0,13.87,0.27,16.68-0.29c4.4-0.88,5.6-6.21,5.94-11.89c0.83-13.67,0.19-33,0.17-46.69
		c-0.02-12.17,0.61-20.5,0.71-32.57c0.01-1.65,0.17-6.69,0.1-8.32c-0.07-1.67,0.28-10.71,0.16-13.76
		c-0.25-6.79,0.5-13.45-0.18-20.23c-0.68-6.75,0.25-14.77,0.14-21.54c-0.03-1.66,0.26-7.47,0.22-8.81c-0.08-3.14-0.09-3.67,0-6.83
		C839.06,101,839.06,97.92,837.73,97.48z M811.57,147.22c-0.32,0.16-0.32,0.08,0-0.24C811.88,146.98,811.88,147.06,811.57,147.22z"
		/>
	<path class="st1" d="M765.45,107.93c-0.14,0.29-0.12,0.37,0.06,0.28c0-0.09,0-0.18-0.01-0.27
		C765.48,107.93,765.47,107.93,765.45,107.93z"/>
	<path class="st1" d="M973.13,251.11c-0.2,0.11-3.98,0.22-6.79,0.22c0.03,0.04,0.01,0.1-0.06,0.17c-0.16,0.16-0.28,0.2-0.35,0.12
		c-0.07-0.07-0.03-0.17,0.07-0.29c-0.94,0-1.74-0.02-2.22-0.06c-1.7-0.12-8.32,0.97-9.83,0.42c0.06-0.14-1.02-13.07-1.03-16.16
		c-0.01-2.52-0.15-5.07,0.04-7.59c0.16-2.22,0.89-24.13,0.46-28.72c-1.54-16.77,0.78-33.83-0.38-50.64
		c-0.6-8.69,0.07-17.34-0.01-26.03c-0.04-4.3-0.48-18.14-0.59-22.11c-0.12-1.53,0.07-3.6-0.12-4.18c-1.77-0.39-3.81-0.38-5.32-0.1
		c-1.33,0.24-6.05-0.03-7.2-0.35c-1.47-0.42-15.67,0.46-16.11,0.9c0.22,1.54,0.22,3.83,0.46,7.03c0.18,2.54-0.31,5.09-0.17,7.65
		c1.09,20.41-0.21,40.9,0.41,61.33c0.78,25.85-0.45,51.8-0.13,77.67c0.02,1.78-0.1,5.54-0.3,5.57c0.17,2.71,0.61,12.13,0.22,12.09
		c-0.56,2.29,0.13,7.86,0.62,7.89c3.96,0.22,12.36-0.12,12.4-0.31c2.84,0.41,5.95,0.48,8.83,0.37c3.15-0.12,6.47,0.41,9.56,0.17
		c1.38-0.11,2.52-0.51,3.59-0.52c1.08-0.01,2.06,0.29,3.22,0.14c2.83-0.36,3.83-0.67,6.65-0.06c1.98,0.22,3.78,1.23,4.4-0.22
		c0.54-1.26,0-4.4-0.22-7.27C973.9,263.17,973.19,251.24,973.13,251.11z"/>
	<path class="st1" d="M966.04,251.26c-0.03,0.03-0.03,0.05-0.05,0.07c0.11,0,0.23,0,0.35,0
		C966.3,251.28,966.21,251.26,966.04,251.26z"/>
	<path class="st1" d="M1007.13,99.02c0.1-1.53-2.6-1.26-3.8-1.18c-2.34,0.15-12.83-0.25-16.1-0.48c-2.06-0.14-3.92-0.34-5.33,0.17
		c-1.33,0.48-2.2,0.03-2.19,2.39c0.02,3.86,0.35,6.6,0.42,9.36c0.26,0.01,0.29,0.09,0.07,0.24c-0.03,0.02-0.04,0.02-0.06,0.03
		c0.03,1.42-0.01,2.86-0.21,4.46c-0.23,1.9-0.22,8.37-0.44,12.11c-0.11,1.9,0.16,6.87,0.31,8.86c0.65,8.66-0.09,17.39,0.03,26.07
		c0.22,15.61-0.43,31.21-0.51,46.8c-0.05,8.76,0.52,17.08,0.17,24.83c-0.35,7.82-0.19,16.17-0.22,24
		c-0.02,5.44-1.66,19.13,0.1,19.13c7.17,0,12.6,0.58,18.42,0.17c2.55-0.18,5.09,0.08,7.63,0.17c0.29-4.86,1.35-26.3,1.15-26.3
		c0-0.66,0.05-13.66,0.01-15.9c-0.05-2.68-0.22-5.22,0.04-7.91c0.53-5.49,0.13-11.62,0.17-17.14c0.08-10.05,0.73-17.91,0.66-27.96
		c-0.07-10.07-0.4-18.33-0.22-28.4c0.09-4.91,0.23-13.1-0.04-18.02c-0.27-4.98,0.1-8.91,0.26-13.91c0.16-4.95,0.73-10.03,0.22-14.97
		C1007.56,104.57,1007.23,100.58,1007.13,99.02z"/>
	<path class="st1" d="M123.5,213.73c-0.01-0.29-0.13-2.24-0.11-2.75c0.11-2.64-5.28-9.36-8.81-13.43
		c-1.92-3.01-8.18-13.05-11.78-17.06c0.17-0.04-1.85-2.25-1.72-2.36c-3.91-4.06-7.69-10.71-11.04-15.73
		c-4.23-6.34-11.61-12.86-10.02-21.25c0.15-0.8,0.1-2.94,0.1-4.48c0-2.33,0.15-16.11,0.77-15.74c0,0,1.98,0,1.98,0
		c2.53-0.3,15.94-0.91,16.2,0.34c0.32,1.5-0.79,20.68,0.2,20.57c0.32,0,1.84,0.28,2.15,0.28c6.09,0,12.38,0.49,18.58,0.48
		c0.63,0.16,1.1,0.04,1.42-0.36c0.31-0.4,0.62-0.77,0.94-1.09c0.15-0.81-0.33-14.7-0.21-20.34c0.08-3.74,0.54-7.37,0.35-11.12
		c-0.26-4.91-0.13-15.07-7.18-15.1c-0.64,0-1.23,0-1.77,0c-12.45,0-33.43-2.29-47.63-0.64c-2.17,0.25-9.91,1.76-10.57,5.39
		c-0.77,4.26-0.74,13.31,0,17.57c0.24,1.38,0.11,4.92,0.11,6.43c-0.02,8.23,0.11,13.21,0.22,22.02c0.08,6.75-1.53,10.65,2.42,16.73
		c3.58,5.51,8.72,11.36,12.1,16.97c2.93,4.86,10.91,17.71,13,20.68c3.41,5.39,11.28,12.73,13.27,16.8c0,0.01,0.01,0.02,0.01,0.03
		c0.15,0.33,0.24,0.65,0.24,0.97c0,0.33-0.24,1.13-0.24,1.46c0,1.31,0.04,3.76,0.26,6.29c-0.33,3.85,0.51,8.82,0.33,11.56
		c-0.25,3.91,0.29,9.13,0.11,12c-0.11,1.76-2.64,0.88-4.84,0.99c-0.77,0.11-1.76,0-3.3,0c-0.99,0-1.98,0.33-3.08,0.11
		c-1.32,0.22-4.01,0.28-7.05-0.77c-0.88,0.11-0.78-2.8-0.76-3.05c0.1-1.87,0.1-3.6-0.11-6.61c0.06-0.65,0.34-11.21,0.44-13.58
		c-0.11-0.44-0.99-0.33-2.86-0.55c-1.87,0.33-8.23-0.22-9.62-0.35c-0.66-0.06-7.78-0.86-9.74-0.92c-0.79,0.39-0.94,12.36-0.99,16.23
		c-0.04,3.8-0.13,8.37,0.2,11.78c0,3.19,0.73,6.41,0.41,9.09c-0.4,3.39-0.33,5.81-0.33,9.16c0,9.52,27.71,4.86,32.51,4.71
		c4.77-0.15,25.2,0.38,26.63-0.06c0.66,0,1.76-0.55,2.42-1.21c0.66-0.39,1.55-1.07,1.97-1.73c2.63-4.08,3.89-9.06,4.01-14.01
		c0.11-4.73-0.08-9.27,0.14-13.91c0.21-4.38-0.34-21.76,0.14-21.74C123.14,220.43,123.61,216.6,123.5,213.73z"/>
	<path class="st1" d="M200.84,252.54c-0.93-11.22-2.56-22.51-4.58-33.58c-1.03-5.67-2.12-11.35-2.29-17.13
		c-0.08-2.55-4.34-26.88-5.37-32.32c-1.67-8.84-1.91-15.88-3.43-26.76c-1.22-8.74-2.48-16.05-3.76-24.79
		c-0.64-4.4-1.42-9.72-2.2-14.09c-0.31-1.75-1.1-4.59-1.1-6.39c0-1.32-2.88-1.6-5.28-1.1c-0.67,0.14-7.71,0.66-12.38,0.36
		c-1.93-0.12-6.18-0.19-8.1,0.3c-2.88,0.73-6.68,40.72-7.68,48.28c-0.91,6.88-1.07,13.61-2.7,20.4c-1.58,6.57-2.84,13.22-3.64,19.93
		c-1.52,12.76-3.47,25.15-5.43,37.89c-2.12,13.8-3.61,27.66-5.58,41.47c-0.28,1.95-2.04,9.28-1.16,9.28c1.78,0,4.39,0.34,5.95,0.49
		c3.01,0.29,6.57,1.22,9.55,0.51c1.41-0.33,11.36-0.34,12.9-0.12c0.35-1.22,0.55-7.38,0.77-8.9c0.45-3.04,0.67-5.87,0.86-8.82
		c0.35-5.39,1.44-12.23,2.55-17.5c1.31,0.43,14.09-0.22,14.09,0.66c0,2.8,0.36,7.05,0.78,9.85c0.83,5.53,0.92,10.84,1.16,16.39
		c0.19,4.32,0.04,7.66,0.48,7.88c1.18,0.59,12.73,0.23,16.48,0.07c2.19-0.1,5.04-1.33,7.4-0.82c1.45,0.31,4.46,0.4,4.74,0.1
		c0,0,0,0,0-0.01C203.63,273.92,201.23,257.26,200.84,252.54z M158.72,215.72c-0.15-0.52,1.22-6.03,1.32-7.27
		c0.21-2.53,0.98-7.02,1.19-9.54c0.57-6.73,3.65-30.31,4.92-30.64c1.12-0.29,3.85,27.78,3.8,33.14c-0.02,2.61,1.49,13.77,1.74,14.69
		C171.09,215.51,158.96,215.65,158.72,215.72z"/>
	<path class="st1" d="M250.39,250.05c-0.03,0.03-0.03,0.05-0.05,0.07c0.11,0,0.23,0,0.35,0
		C250.65,250.07,250.56,250.05,250.39,250.05z"/>
	<path class="st1" d="M257.48,249.9c-0.2,0.11-3.98,0.22-6.79,0.22c0.03,0.04,0.01,0.1-0.06,0.17c-0.16,0.16-0.28,0.2-0.35,0.12
		c-0.07-0.07-0.03-0.17,0.07-0.29c-0.94,0-1.74-0.02-2.22-0.06c-1.7-0.12-8.32,0.97-9.83,0.42c0.06-0.14-1.02-13.07-1.03-16.16
		c-0.01-2.52-0.15-5.07,0.04-7.59c0.16-2.22,0.89-24.13,0.46-28.72c-1.54-16.77,0.78-33.83-0.38-50.64
		c-0.6-8.69,0.07-17.34-0.01-26.03c-0.04-4.3-0.48-18.14-0.59-22.11c-0.12-1.53,0.07-3.6-0.12-4.18c-1.77-0.39-3.81-0.38-5.32-0.1
		c-1.33,0.24-6.05-0.03-7.2-0.35c-1.47-0.42-15.67,0.46-16.11,0.9c0.22,1.54,0.22,3.83,0.46,7.03c0.18,2.54-0.31,5.09-0.17,7.65
		c1.09,20.41-0.21,40.9,0.41,61.33c0.78,25.85-0.45,51.8-0.13,77.67c0.02,1.78-0.1,5.54-0.3,5.57c0.17,2.71,0.61,12.13,0.22,12.09
		c-0.56,2.29,0.13,7.86,0.62,7.89c3.96,0.22,12.36-0.12,12.4-0.31c2.84,0.41,5.95,0.48,8.83,0.37c3.15-0.12,6.47,0.41,9.56,0.17
		c1.38-0.11,2.52-0.51,3.59-0.52c1.08-0.01,2.06,0.29,3.22,0.14c2.83-0.36,3.83-0.67,6.65-0.06c1.98,0.22,3.78,1.23,4.4-0.22
		c0.54-1.26,0-4.4-0.22-7.27C258.25,261.95,257.54,250.03,257.48,249.9z"/>
	<path class="st1" d="M265.45,107.93c-0.14,0.29-0.12,0.37,0.06,0.28c0-0.09,0-0.18-0.01-0.27
		C265.48,107.93,265.47,107.93,265.45,107.93z"/>
	<path class="st1" d="M337.73,97.48c-0.37-1.2-13.08-0.71-17.05-0.52c-2.08,0.1-5.86,0.6-8.06,0.74c-1.59,0.1-1.99,1.94-1.76,3.52
		c-0.44,6.17,0.08,17.06,0.06,25.62c-0.05,17.33,0,31.91,0.6,49.24c0.14,4.07,0,12.77,0,18.94c0,8.38-0.26,14.18-0.44,17.17
		c-0.39,6.26,0.01,11.99-0.24,18.27c-0.12,3.18,0.04,6.07,0.24,9.26c0.2,3.24,0.66,8.59-0.66,9.25c0.09-0.51-18.28-0.44-18.5-0.44
		c0-0.66,0.05-13.66,0.01-15.9c-0.05-2.68-0.22-5.22,0.04-7.91c0.53-5.49,0.13-11.62,0.17-17.14c0.08-10.05,0.73-17.91,0.66-27.96
		c-0.07-10.07-0.4-18.33-0.22-28.4c0.09-4.91,0.23-13.1-0.04-18.02c-0.27-4.98,0.1-8.91,0.26-13.91c0.16-4.95,0.73-10.03,0.22-14.97
		c-0.11-1.07-0.44-5.06-0.54-6.62c0.1-1.53-2.6-1.26-3.8-1.18c-2.34,0.15-12.83-0.25-16.1-0.48c-2.06-0.14-3.92-0.34-5.33,0.17
		c-1.33,0.48-2.2,0.03-2.19,2.39c0.02,3.86,0.35,6.6,0.42,9.36c0.26,0.01,0.29,0.09,0.07,0.24c-0.03,0.02-0.04,0.02-0.06,0.03
		c0.03,1.42-0.01,2.86-0.21,4.46c-0.23,1.9-0.22,8.37-0.44,12.11c-0.11,1.9,0.16,6.87,0.31,8.86c0.65,8.66-0.09,17.39,0.03,26.07
		c0.22,15.61-0.43,31.21-0.51,46.8c-0.05,8.76,0.52,17.08,0.17,24.83c-0.35,7.82-0.19,16.17-0.22,24
		c-0.02,5.44-0.48,9.47,2.77,14.11c3.67,5.24,9.93,5.6,15.75,5.19c3.69-0.26,7.34,0.41,11.02,0.13c3.88-0.3,7.53-1.15,11.45-0.84
		c3.13,0.24,6.14,0.19,9.26,0.2c1.84,0,13.87,0.27,16.68-0.29c4.4-0.88,5.6-6.21,5.94-11.89c0.83-13.67,0.19-33,0.17-46.69
		c-0.02-12.17,0.61-20.5,0.71-32.57c0.01-1.65,0.17-6.69,0.1-8.32c-0.07-1.67,0.28-10.71,0.16-13.76
		c-0.25-6.79,0.5-13.45-0.18-20.23c-0.68-6.75,0.25-14.77,0.14-21.54c-0.03-1.66,0.26-7.47,0.22-8.81c-0.08-3.14-0.09-3.67,0-6.83
		C339.06,101,339.06,97.92,337.73,97.48z M311.57,147.22c-0.32,0.16-0.32,0.08,0-0.24C311.88,146.98,311.88,147.06,311.57,147.22z"
		/>
	<path class="st1" d="M403.62,95.71c-2.78-0.18-5.63-0.05-8.33,0.01c-9,0.19-17.99-0.52-26.98-0.43
		c-6.12,0.06-17.24-0.79-18.68,0.65c-0.88,0.88-0.96,23.41-0.87,29.59c0.13,9.03-0.1,18.01-0.33,27.03
		c-0.24,8.97-0.08,19.84,0.11,28.81c0.39,18.02,1.43,34.27,1.08,52.29c-0.17,8.84-0.86,18.39-0.64,28.29
		c0.05,2.31,0.22,10.35,0.22,12.11c0,1.32,4.1,1.32,6.57,1.44c13.48,0.65,27.23-0.62,40.73-0.76c10.88-0.12,20.74-3.16,22.05-15.65
		c0.92-8.8,1.03-15.12,1.32-24c0.3-9.03,0.07-21.79,0-30.83c-0.13-17.97-0.48-32.24-0.22-50.2c0.13-9.04,0.19-19.58,0.44-28.62
		c0.2-7.29,0.68-17.23-3.73-23.62C413.25,97.34,408.56,96.03,403.62,95.71z M393.22,236.41c0.07,2.8,0.31,4.56-0.2,7.34
		c-0.43,2.32-1.16,4.06-3.42,4.84c-0.9,0.32-1.62,0.96-2.54,1.25c-1.13,0.36-2.37,0.27-3.52,0.22c-3.89-0.17-6.92-0.73-7.27-0.71
		c-0.65-3.57-0.15-14.97-0.21-16.91c-0.52-14.83-0.38-29.38,0-44.26c0.26-10.1,0.44-64.51,0-68.7c-0.07-0.69,8.6-0.87,9.45-0.82
		c2.66,0.16,6.19-0.06,6.85,3.02c0.52,2.42,0.74,8.96,0.66,11.23c-0.88,26.64,0,45.8,0,71.34c0,8.37-0.07,15.69,0.31,22.13
		C393.49,229.4,393.15,233.42,393.22,236.41z M393.24,199.84c-0.32,0.16-0.32,0.08,0-0.24C393.55,199.6,393.55,199.69,393.24,199.84
		z"/>
	<path class="st1" d="M591.11,95.94c-0.78-0.13-11.01-0.22-18.72,0c-1.9,0.05-8.99-0.02-10.86-0.1c-6.06-0.25-11.87,0.4-17.99,0.1
		c-3.76-0.19-10.79,0-13.21,0.22c-0.98,0.09-0.66,3.07-0.66,7.49c0,11.67,1.06,28.06,0,39.19c-0.44,4.62,0.21,7.44-0.11,10.41
		c-0.32,3.02,0.33,12.58,0.33,15.57c0,0.44-2.29,0.88-3.08,0.88c-0.66,0-5.56,22.9-2.64,22.9c3.3,0,6.89,0.28,7.05,0.44
		c0.22,0.22-0.57,11.53-0.77,17.83c-0.2,6.41,0.34,12.82,0.34,19.23c0,6.32-0.67,13.58-0.23,19.74c0.52,7.23-0.22,15.41-0.66,21.14
		c-0.23,2.93,1.43,2.51,4.4,2.86c5.5,0.66,12.36,1.24,18.28,1.1c9.47-0.22,16.49,0.74,24.88,0.22c3.52-0.22,10.9-0.66,12.33-0.66
		c0.88,0,0.59-8.22,0.78-11.31c0.28-4.55-0.29-13.39-1.22-14.01c-0.66-0.44-10.56-0.71-14.22,0.01c-4.71,0.92-10.88-0.23-17.7-0.67
		c0-0.22,1.54-54.17,1.54-54.17c0.44-0.22,8.05-0.78,11.44-0.48c7.69,0.69,18.1,0.96,18.06,0.26c-0.22-3.74,1.1-25.54-0.88-25.98
		c-0.04,0.41-3.74,0.44-5.28,0.22c-5.06,0-10.36-0.31-17.23,0.32c-2.65,0.24-8.09-0.54-8.09-0.54c-0.22-0.22-0.22-6.8-0.22-9.91
		c0-8.81,0.07-15.95-0.22-23.56c-0.11-2.91-0.08-11.52,0.22-12.11c0.22-0.44,5.36-0.31,8.35-0.35c5.96-0.09,9.62-0.43,13.67-0.09
		c5.28,0.44,8.85-0.22,12.55-0.22c1.1,0,0.74-8.49,0.71-12.43C592.01,105.29,592.43,96.16,591.11,95.94z"/>
	<path class="st1" d="M1084.05,113.44c-0.48-4.96-0.61-13.06-5.35-16.06c-5.39-3.42-14.75-3.08-22.46-2.98
		c-4.05,0.05-11.23,0.12-17.84,0.34c-9.22,0.31-20.26,3.3-20.26,14.09c0,9.03-0.66,10.79-0.88,17.61
		c-0.07,2.28,0.48,67.74,0.6,91.75c0.05,10.66-0.12,21.12,0.29,31.77c0.44,11.45,1.76,18.05,4.62,21.14c3.7,3.99,16,5.27,23.78,5.06
		c9.48-0.25,17.39,0,24.44-1.76c13.5-3.38,12.33-9.91,12.55-29.06c0.06-5.23,0-15.63,0.22-19.6c0.08-1.47-17.51-1.2-22.9,0
		c-0.44,3.52-0.04,8.52,0.22,12.55c0.34,5.22,0.21,9.95-1.54,11.23c-2.46,1.78-5.28,1.32-9.25,1.54c-4.4-0.22-3.3-10.13-3.82-22.98
		c-0.97-24.05-0.75-48.16-0.61-72.21c0.03-5.75,0.02-12.04-0.2-17.98c-0.16-4.38,0.19-9.31,0.39-14.03
		c0.01-0.01,0.02-0.01,0.03-0.02c0.11-0.11,0.09-0.18-0.02-0.21c0.02-0.38,0.03-0.77,0.05-1.14c0.22-6.39,16.07-6.17,16.07-2.2
		c0.44,10.57-1.49,19.81,3.96,19.82c3.22,0,18.28,0.22,18.28-0.88C1083.98,137.45,1084.89,122.12,1084.05,113.44z"/>
	<path class="st1" d="M836.89,64.29l-9.36,0.34l-9.31-0.24c-0.97,0-1.42-0.16-1.92,0.5l-4.18,6.07c-0.09,0.12-0.24,0.31-0.34,0.43
		l-5.06,6.41l-3.44,5.17c-0.13,0.2-3.87,4.66-4.04,4.84l-2.41,2.77c-0.28,0.32,0.02,0.76,0.52,0.76l6.73-0.1l3.96-0.09
		c0.82,0,3.02-0.09,3.54-0.58l4.05-4.81c0.71-0.59,3.14-2.95,3.3-3.08l10.02-8.73c-0.64,0.41,4.88-3.55,4.95-3.62l5-5.42
		C839.14,64.71,838.32,64.03,836.89,64.29z"/>
	<path class="st1" d="M1164.42,125.44c-0.22-6.83-0.88-8.59-0.88-17.61c0-10.37-10.2-13.54-19.18-14.04
		c-4.52-0.58-9.6-0.45-14.12-0.39c-0.71,0.01-1.52,0.02-2.4,0.03c-0.88-0.01-1.69-0.02-2.4-0.03c-4.52-0.06-9.6-0.19-14.12,0.39
		c-8.98,0.5-19.18,3.67-19.18,14.04c0,9.03-0.26,12.99-0.48,19.82c-0.07,2.28,0.08,65.54,0.19,89.55
		c0.05,10.66-0.12,21.12,0.29,31.77c0.44,11.45,1.76,18.05,4.62,21.14c3.7,3.99,16,5.27,23.78,5.06c2.54-0.07,4.96-0.1,7.29-0.14
		c2.33,0.04,4.75,0.08,7.29,0.14c7.78,0.2,20.08-1.08,23.78-5.06c2.86-3.08,4.18-9.69,4.62-21.14c0.41-10.65,0.23-21.11,0.29-31.77
		C1163.94,193.18,1164.49,127.72,1164.42,125.44z M1136.81,226.94c-0.41,10.27,0.25,18.46-1.72,21.45c-0.27,0.1-0.52,0.21-0.71,0.35
		c-0.55,0.4-1.17,0.67-1.83,0.86c-3.83-0.13-8.06,0.63-10.42-1.08c-0.12-0.08-0.24-0.17-0.37-0.25c-1.7-3.2-1.53-10.46-1.92-20.01
		c-0.97-24.05-0.13-49.34,0.01-73.4c0.03-5.75,0.02-12.04-0.2-17.98c-0.16-4.38,0.19-9.31,0.39-14.03c0.01-0.01,0.02-0.01,0.03-0.02
		c0.11-0.11,0.09-0.18-0.02-0.21c0.02-0.38,0.03-0.77,0.05-1.14c0.05-1.53,1.02-2.58,2.46-3.23c1.53-0.52,3.41-0.84,5.27-0.88
		c1.86,0.04,3.74,0.36,5.27,0.88c1.44,0.66,2.41,1.7,2.46,3.23c0.01,0.38,0.03,0.76,0.05,1.14c-0.11,0.04-0.12,0.11-0.02,0.21
		c0.01,0.01,0.02,0.01,0.03,0.02c0.2,4.72,0.55,9.66,0.39,14.03c-0.22,5.94,0.1,13.85,0.14,19.6
		C1136.29,180.54,1137.77,202.89,1136.81,226.94z"/>
</g>
</svg>
