<?xml version="1.0" encoding="utf-8"?>
<!-- Generator: Adobe Illustrator 26.0.3, SVG Export Plug-In . SVG Version: 6.00 Build 0)  -->
<svg version="1.1" id="Layer_1" xmlns="http://www.w3.org/2000/svg" xmlns:xlink="http://www.w3.org/1999/xlink" x="0px" y="0px"
	 viewBox="0 0 1224 792" style="enable-background:new 0 0 1224 792;" xml:space="preserve">
<style type="text/css">
	.st0{fill:#EA8328;}
	.st1{fill:#283981;}
</style>
<path d="M1037.3-698.86c-0.02-0.18-0.05-0.35-0.06-0.53c-0.04-0.56-0.05-1.22-0.14-1.83c0.33-0.26,0.64-0.58,0.92-0.98
	c0.15-0.21,0.25-0.42,0.34-0.63c0.09-0.12,0.17-0.24,0.25-0.34c0.27-0.35,0.3-0.76,0.21-1.14c-0.24-0.97,2.26-6.02,2.41-7.75
	c0.26-3.04-0.36-5.99-2.15-8.09c-5.03-5.92-9.63-8.19-16.67-10.24c-6.15-1.79-12.5-2.77-18.9-2.65c-5.3,0.1-10.65,0.03-15.99,0.83
	c-4.55,0.68-8.9,2.51-13.42,3.03c-9.27,1.05-18.76,6.44-27.49,8.34c-10.08,2.2-18.86,8.3-28.45,11.91
	c-10.61,3.99-23.67,11.9-34.83,9.67c-5.76-1.15-10.97-1.23-16.66-4.44c-13.55-7.63-14.9-31.68-10.18-45.49
	c0.26-0.77,0.54-1.55,0.83-2.33c3.4-9.23,11.03-20.33,19.89-20.64c0.65-0.02,1.33-0.15,1.96-0.25c3.91-0.55,8.31-1.64,12.05,0.29
	c8.16,4.2,14.86,12.07,15.7,23.08c0.79,10.4-3.14,17.18-11.14,23.48c-2.9,2.29-6.62,2.62-9.77,2.63c-6.63,0.03-10.9-1.7-14.74-8.12
	c-0.26,0.84-0.33,1.89-0.13,2.8c0.79,3.64,5.89,7.74,8.65,8.91c0.77,0.33,1.78,0.73,2.68,0.58c0.1,0.22,0.27,0.39,0.51,0.44
	c15.46,3.3,27.99-9.94,30.07-28.77c0.01-0.06,0.02-0.11,0.02-0.17c0.04-0.42,0.12-1.05,0.13-1.67c0.06-8.17-1.25-15.68-6.12-21.21
	c-3.89-4.42-7.73-8.39-13.07-9.71c-0.71-0.17-2.11,0.29-2.76,0.42c-0.37-0.1-2.17-1.44-2.56-1.49c-7.21-0.78-15.47-0.52-21.93,5.79
	c-1.22,1.2-3.35,3.11-4.82,3.82c-0.06-0.33-0.14-0.65-0.24-0.98c-0.14-0.71-0.34-1.4-0.55-2.03c-0.96-2.93-3.63-6.45-6-7.52
	c-0.48,2.04,0.68,4.15,1.07,6.2c0.2,1.05,0.23,2.1,0.25,3.17c0.09,5.21-3.09,9.18-5.26,13.64c-3.27,6.71-7.1,21.06-5.99,32.09
	c1.1,11.01,5.93,22.22,13.59,28.12c7.71,5.93,16.96,8.55,26.19,8.97c8.3,0.38,16.25-3.2,23.22-5.65c3.98-1.4,8.17-2.94,12.11-4.23
	c5.18-1.69,10.17-3.94,15.01-6.91c0.46-0.28,0.89-0.61,1.28-1c0.1,0,0.21-0.01,0.33-0.05c10.43-4.01,22.58-7.64,33.38-8.75
	c4.34-0.45,8.69-0.69,13.03-0.74c6.71-0.08,13.18-0.8,19.78,0.52c7.58,1.52,15.54,1.93,21.93,7.41
	c6.37,5.47,10.05,14.32,14.29,22.06c0.13,0.24,0.3-0.37,0.26-1.07C1039.46-690.89,1037.57-698.25,1037.3-698.86z"/>
<path d="M915.65-723.46c3.39-2.87,6-7.06,9.48-9.61c0.07-0.05,0.14-0.1,0.2-0.15c2.89-2.8,13.8-12.89,14.6-12.45
	c0.12,0.07,0.27,0.08,0.43-0.02c4.34-2.61,8.58-5.69,13.15-7.63c3.85-1.63,8.16-1.55,11.82-3.86c3.68-2.33,3.38-6.2-0.7-7.83
	c-8.44-3.37-20.15,6.13-27.14,12.04c-3.46,2.92-5.74,7.47-8.79,10.93c-3.78,4.3-7.22,8.79-10.65,13.51
	c-1.02,1.4-2.22,2.66-3.17,4.13C914.47-723.75,915.13-723.01,915.65-723.46z"/>
<path d="M907.92-711.83c-0.16,0.11-0.23,0.29-0.24,0.47c-0.94,0.56-1.82,1.4-2.67,2.08c-0.3,0.24-0.02,0.83,0.29,0.63
	c1.1-0.68,2.38-1.28,3.33-2.27c0.06-0.06,0.07-0.13,0.1-0.2c1.28-0.72,2.63-1.45,3.63-2.69c0.83-0.55,1.66-1.09,2.5-1.64
	c5.59-3.66,11.31-7.25,17.09-10.18c4.99-2.52,9.9-6.18,14.99-8.14c0.7-0.27,1.4-0.53,2.1-0.8c4.41-1.75,9.61-4.46,14.21-5.87
	c4.92-1.51,10.09-2.43,15.08-3.36c1.68-0.31,6.49-0.8,8.17-1.02c5.29-0.67,9.8,0.55,13.63,1.25c3.58,0.65,7.26,0.83,10.76,1.9
	c1.51,0.46,6.77,4.18,8,3.88c1.5-0.37,1.83-2.34,1.02-3.78c-0.04-0.06-0.09-0.11-0.14-0.16c0-0.09,0-0.17-0.01-0.26
	c0.88-6.03-5.4-11.16-9.65-11.64c-2.55-0.29-4.87-1.31-7.58-1.32c-4.95-0.01-10.47-1.51-15.33-0.02c-0.55,0.1-1.1,0.23-1.63,0.33
	c-8.67,1.65-16.76,5.01-25.1,7.88c-6.77,2.33-12.78,6.52-19.3,10.19c-1.3,0.74-2.46,1.62-3.58,2.59
	c-6.29,3.46-11.46,8.71-17.36,12.86c-0.38,0.27-0.75,0.56-1.12,0.85c-0.02,0.01-0.05,0.01-0.07,0.02c-1.92,0.81-3.64,1.97-5.27,3.51
	c-0.17,0.16-0.24,0.34-0.28,0.52c-0.56,0.38-1.13,0.77-1.69,1.15c-0.32,0.22-0.39,0.63-0.3,0.96
	C910.22-713.61,909.04-712.65,907.92-711.83z"/>
<path d="M75.03-698.75c0.02-0.18,0.05-0.35,0.06-0.53c0.04-0.56,0.05-1.22,0.13-1.83c-0.33-0.26-0.63-0.58-0.92-0.98
	c-0.15-0.21-0.25-0.42-0.34-0.63c-0.09-0.12-0.17-0.24-0.25-0.34c-0.27-0.35-0.3-0.76-0.21-1.14c0.23-0.97-2.25-6.02-2.41-7.75
	c-0.27-3.04,0.34-5.99,2.11-8.09c4.98-5.92,9.53-8.19,16.52-10.24c6.1-1.79,12.39-2.77,18.75-2.66c5.26,0.09,10.56,0.03,15.87,0.83
	c4.52,0.68,8.84,2.51,13.32,3.02c9.2,1.05,18.63,6.43,27.3,8.33c10.01,2.2,18.73,8.3,28.25,11.9c10.54,3.99,23.51,11.9,34.58,9.66
	c5.71-1.15,10.88-1.24,16.52-4.44c13.43-7.64,14.71-31.68,10-45.49c-0.26-0.77-0.54-1.55-0.83-2.33
	c-3.4-9.23-10.99-20.33-19.79-20.63c-0.65-0.02-1.32-0.15-1.95-0.24c-3.88-0.55-8.25-1.64-11.96,0.29
	c-8.09,4.2-14.72,12.07-15.53,23.08c-0.76,10.4,3.16,17.18,11.11,23.48c2.89,2.29,6.58,2.62,9.7,2.63
	c6.58,0.03,10.81-1.7,14.61-8.13c0.26,0.84,0.33,1.89,0.14,2.8c-0.78,3.64-5.83,7.74-8.56,8.91c-0.76,0.33-1.77,0.74-2.66,0.58
	c-0.1,0.22-0.26,0.39-0.5,0.44c-15.34,3.31-27.79-9.93-29.91-28.76c-0.01-0.06-0.02-0.11-0.02-0.17c-0.05-0.42-0.12-1.05-0.13-1.67
	c-0.08-8.17,1.21-15.68,6.02-21.21c3.85-4.43,7.65-8.39,12.94-9.71c0.7-0.17,2.1,0.29,2.74,0.41c0.37-0.1,2.15-1.44,2.54-1.49
	c7.15-0.78,15.35-0.53,21.78,5.78c1.22,1.19,3.33,3.11,4.79,3.82c0.06-0.33,0.14-0.65,0.24-0.98c0.14-0.71,0.34-1.4,0.54-2.03
	c0.95-2.93,3.59-6.45,5.94-7.52c0.48,2.04-0.66,4.15-1.05,6.2c-0.2,1.05-0.23,2.1-0.24,3.17c-0.08,5.21,3.09,9.18,5.25,13.64
	c3.26,6.71,7.09,21.06,6.02,32.09c-1.07,11.01-5.83,22.22-13.43,28.12c-7.64,5.93-16.81,8.56-25.97,8.98
	c-8.24,0.38-16.13-3.2-23.05-5.64c-3.95-1.4-8.11-2.94-12.03-4.23c-5.14-1.69-10.1-3.94-14.91-6.91c-0.46-0.28-0.89-0.61-1.27-1
	c-0.1,0-0.21-0.01-0.33-0.05c-10.36-4-22.42-7.63-33.15-8.75c-4.31-0.45-8.62-0.68-12.93-0.74c-6.66-0.08-13.08-0.8-19.62,0.52
	c-7.51,1.52-15.42,1.94-21.74,7.42c-6.31,5.47-9.94,14.32-14.13,22.06c-0.13,0.24-0.3-0.37-0.27-1.07
	C72.91-690.78,74.76-698.14,75.03-698.75z"/>
<path d="M195.68-723.37c-3.37-2.87-5.97-7.06-9.43-9.6c-0.07-0.05-0.14-0.1-0.2-0.15c-2.88-2.8-13.72-12.88-14.51-12.44
	c-0.12,0.07-0.27,0.08-0.43-0.02c-4.32-2.61-8.52-5.69-13.06-7.63c-3.82-1.63-8.1-1.55-11.74-3.86c-3.66-2.33-3.37-6.2,0.68-7.83
	c8.37-3.37,20.01,6.12,26.96,12.03c3.44,2.92,5.71,7.47,8.74,10.93c3.76,4.3,7.18,8.79,10.59,13.51c1.02,1.4,2.21,2.66,3.15,4.13
	C196.85-723.66,196.21-722.93,195.68-723.37z"/>
<path d="M203.38-711.75c0.16,0.11,0.23,0.29,0.24,0.47c0.93,0.56,1.81,1.39,2.66,2.08c0.29,0.24,0.02,0.83-0.29,0.63
	c-1.09-0.68-2.36-1.28-3.31-2.27c-0.06-0.06-0.07-0.13-0.1-0.2c-1.27-0.72-2.61-1.45-3.61-2.69c-0.83-0.55-1.65-1.09-2.48-1.64
	c-5.55-3.66-11.24-7.25-16.98-10.17c-4.96-2.52-9.84-6.18-14.89-8.13c-0.69-0.27-1.39-0.53-2.08-0.8
	c-4.38-1.75-9.55-4.46-14.11-5.86c-4.89-1.51-10.01-2.43-14.97-3.35c-1.67-0.31-6.45-0.8-8.11-1.01c-5.25-0.67-9.72,0.55-13.52,1.26
	c-3.55,0.65-7.2,0.83-10.67,1.9c-1.5,0.46-6.71,4.18-7.93,3.88c-1.49-0.37-1.82-2.34-1.02-3.78c0.04-0.06,0.09-0.11,0.14-0.16
	c0-0.09,0-0.17,0.01-0.26c-0.88-6.03,5.33-11.16,9.55-11.64c2.53-0.29,4.83-1.31,7.52-1.32c4.91-0.02,10.39-1.51,15.21-0.02
	c0.55,0.1,1.09,0.23,1.62,0.33c8.61,1.65,16.64,5.01,24.93,7.87c6.73,2.33,12.7,6.51,19.17,10.19c1.3,0.74,2.44,1.62,3.56,2.59
	c6.25,3.46,11.39,8.7,17.26,12.86c0.38,0.27,0.75,0.56,1.12,0.85c0.02,0.01,0.05,0.01,0.07,0.02c1.91,0.81,3.62,1.97,5.23,3.51
	c0.16,0.16,0.24,0.34,0.28,0.51c0.56,0.38,1.12,0.77,1.68,1.15c0.32,0.22,0.39,0.63,0.3,0.96
	C201.1-713.52,202.27-712.57,203.38-711.75z"/>
<g>
	<path class="st0" d="M1066.39,474.05c-0.35-0.1-0.74-0.08-1.1,0.05c-0.52,0.19-0.9,0.59-1.05,1.09c-0.82,2.82,0.11,5.67,0.17,8.51
		c0.06,2.9-0.43,5.66-0.16,8.58c0.02,0.21,0.09,0.4,0.2,0.56c0.01,0.23,0.01,0.46,0.01,0.68c-0.04,0.07-0.09,0.15-0.12,0.23
		c-0.2,0.47-0.17,0.94,0.09,1.36c-0.05,1.85-0.02,3.53,0.57,5.2c0.66,1.87-0.38,5.31-0.41,7.31c-0.05,3.03,0.29,6.06,0.51,9.08
		c0.5,6.88-0.18,12.74,0.42,19.63c0.2,2.3,0.4,6.22,0.47,8.54c0.05,1.58,0.2,6.17,1.65,6.92c0.86,0.45,1.58-10.43,1.59-10.73
		c0.2-3.75,0.41-7.5,0.32-11.26c-0.16-6.65,1.2-13.2,0.58-19.87l0.02-0.17c0.28-2.98,0.56-6.07,0.12-9.04
		c0.18-1.02,0.23-2.05,0.17-3.24c0.65-3.27,0.32-6.6,0.18-9.9c-0.02-0.47,0.92-4.61,1.02-5.47
		C1071.8,480.61,1071.06,470.15,1066.39,474.05z"/>
	<path class="st0" d="M1064.37,443.98c1.98,2.93,6.97,0.25,7.24-2.99c0.02-0.26-0.01-0.53-0.09-0.8
		c-0.59-2.03-0.32-21.85-1.74-21.89c-0.05,0-0.44,0.01-0.48-0.01c0.66,0.3-0.2-13.07-0.39-14.24c0.01-2.85-0.11-5.92-0.36-9.65
		c-0.06-1.15-0.14-2.3-0.24-3.39c0.05-3.53-0.13-6.55-0.58-9.21c0.2-3.75,0.44-7.4-0.1-11.14c-0.24-1.62-0.49-9.62-1.88-6.46
		c-0.95,2.16-1.18,5.31-1.18,8.54c0,2.51,0.41,5.7-0.03,8.17c-1.18,6.71-0.51,14.57-0.45,21.39c0.04,3.96,0.24,8.01-0.2,11.95
		c-0.39,3.53-0.7,7.37-0.71,10.73c0,1.64,0.34,2.95-0.08,4.71c-0.83,3.47-1.09,9.14,0.5,12.88
		C1063.83,443.07,1064.08,443.55,1064.37,443.98z M1070.7,432.61L1070.7,432.61L1070.7,432.61
		C1070.7,432.62,1070.7,432.61,1070.7,432.61z"/>
	<path class="st0" d="M1128.12,454.93c-4.39-0.56-8.54,0.06-13,0.18c-3.82,0.1-7.7-0.79-11.59-0.83c-1.8-0.02-3.6,0.03-5.38,0.04
		c-1.57,0.01-3.14-0.01-4.71-0.14c-3.98-0.31-13.07-0.85-12.22,4.95c1,6.81,12.65,2.59,16.29,2.42c4.68-0.21,14.63-1.38,19.3-1.85
		c3.35-0.34,7.83-0.96,11.07-1.33c2.79-0.32,8.97-0.5,11.75-1.21C1146,455.56,1129.21,455.07,1128.12,454.93z"/>
	<path class="st0" d="M1046.53,463.07c1.6-0.16,3.27-0.42,4.59-1.59c1.68-1.5,0.44-4.77-0.43-5.92c-1.71-2.25-8.39-0.33-10.85-0.14
		c-4.29,0.34-8.52,1.1-12.8,1.53c-11.1,1.12-25.8,1.42-36.83,2.99c-2.06,0.29,0.56,1.81,2.12,1.85c3.03,0.08,6.95,0.21,7.3,0.23
		c3.77,0.23,4.99-0.04,9.01-0.07c4.86-0.04,9.73-0.01,14.57,0.41c3.43,0.3,6.78,0.73,10.23,1.01
		C1038.04,463.74,1042.04,463.51,1046.53,463.07z"/>
	<path class="st0" d="M1055.72,470.79c-0.27-0.07-0.54-0.1-0.8-0.1c-2.74,0-5.02,3.5-6.93,5.13c-4.34,3.69-5.26,9.65-8.81,13.82
		c-1.5,1.76-3.19,3.36-4.59,5.19c-0.69,0.9-12.13,16.11-5.09,9.37c1.36-1.3,3.74-2.59,5.05-3.81c3.03-2.83,5.63-6.02,8.47-9.01
		c2.53-2.68,5.3-5.34,8.26-7.52c2.89-2.12,5.53-5.19,6.79-8.5C1058.74,473.58,1057.55,471.25,1055.72,470.79z"/>
	<path class="st0" d="M1090.22,477.59c-1.84-2.26-3.7-5.08-6.33-6.54c-2.67-1.49-6.79,0.01-5.91,3.67c0.12,0.48,0.3,0.93,0.47,1.31
		c0.69,1.55,1.82,2.94,3.36,3.74c1.55,0.81,1.4,0.86,2.63,2.08c2.19,2.18,5.23,3.62,7.63,5.63c2.65,2.21,4.93,3.64,7.33,6.15
		c1.26,1.32,6.41,5.44,9.18,7.15c3.09,1.91-10.37-13.69-12.11-15.65C1094.3,482.69,1092.28,480.12,1090.22,477.59z"/>
	<path class="st0" d="M1078.89,446.54c3.33,2.56,6.82-1.53,8.27-3.21c1.3-1.5,3.51-3.89,4.84-5.37c1.12-1.24,1.82-1.71,2.69-2.94
		c1.07-1.52,2.41-3.88,3.69-5.26c2.7-2.89,3.66-5.97,6.48-8.61c2.17-2.03,4.61-4.35,6.13-6.9c0.69-1.17,3.94-3.93,1.83-3.92
		c-1.67,0.01-4.7,3.13-5.67,4.16c-2.24,2.37-4.92,4.61-8.45,7.84c-5.7,5.22-10.44,9.29-16.19,14.36c-1.76,1.55-5.7,4.56-4.52,8.03
		C1078.06,444.92,1078.73,446.42,1078.89,446.54z"/>
	<path class="st0" d="M1027.76,422.43c0.11,0.11,0.23,0.23,0.33,0.35c1.97,2.15,3.54,4.61,5.5,6.76c2.01,2.21,3.78,4.62,5.73,6.91
		c1.88,2.21,3.19,4.51,5.29,6.61c2.82,2.82,4.56,5.23,8.64,4.63c0.73-0.11,1.32-0.6,1.52-1.26c0.15-0.51,0.21-1.07,0.21-1.7
		c3.07-4.71-3.33-7.95-6.49-10.25c-3.65-2.65-7.08-5.51-10.62-8.4c-3.16-2.58-6.35-5.14-9.59-7.62c-1.78-1.36-3.38-3.5-5.48-4.44
		c-2.75-1.21-0.52,2.22,0.12,3C1024.34,418.77,1026.18,420.83,1027.76,422.43z"/>
	<path class="st0" d="M1066.59,452.28c-1.73,0.47-4,3.38-3.65,5.14c-0.05,0.16-0.08,0.33-0.1,0.52c-0.41,1.43,0.75,2.95,2.12,3.72
		c1.4,0.79,3.22,1.13,4.86,0.92c1.59-0.2,2.79-3.86,2.76-5.2c-0.02-0.72-0.36-1.54-0.9-2.32
		C1070.55,453.43,1068.77,451.68,1066.59,452.28z M1064.95,454.5L1064.95,454.5L1064.95,454.5L1064.95,454.5z"/>
</g>
<g>
	<path class="st0" d="M185.47,663.7c-1.51-0.13-4.24,0.2-5.77,0.35c-1.86,0.19-3.28,0.95-5.65,1.25c-0.96,0.12-4.04,0.8-4.83,0.85
		c-2.22,0.14-3.9,0.49-6.07,0.74c-1.21,0.14-2.57,0.17-4.11,0.45c-0.96,0.18-5.56,0.35-5.23,1.76c0.08,0.35,1.02,0.9,1.36,1.01
		c1.14,0.37,1.38,0.06,2.17,0.09c0.91,0.04,2.5,0.04,3.4,0.07c1.3,0.05,2.28,0.15,3.57,0.13c2.46-0.03,4.95-0.32,7.4-0.28
		c3.46,0.06,6.77,0.66,10.14,0.64c0.92-0.01,1.85-0.06,2.79-0.18c1.03-0.14,2.46-0.33,3.35-1.11c1.15-1,1.68-3.1,0.51-4.37
		C187.53,664.06,186.69,663.81,185.47,663.7z"/>
	<path class="st0" d="M199.12,676.39c-0.95,0.82-1.66,0.7-2.28,1.95c-0.47,0.96-0.75,2.49-0.53,3.58c0.22,1.13,0.24,2.38,0.44,3.59
		c0.24,1.43,0.56,2.44,0.69,3.88c0.22,2.46,0.48,5.08,0.52,7.55c0.05,3.09,0.45,4.5,0.51,6.89c0.03,1.22,0.43,3.52,0.68,5.1
		c0.12,0.76,0.99,0.54,1.36,0.25c0.74-0.57,0.77-2.58,0.81-3.29c0.11-2.04-0.02-3.76,0.04-5.8c0.14-4.34,0.6-8.64,1.13-12.95
		c0.28-2.25,0.82-4.52,0.74-6.82C203.18,678.6,201.73,674.14,199.12,676.39z"/>
	<path class="st0" d="M240.47,664.51c-1.62,0.04-3.15-0.27-4.75-0.34c-1.76-0.08-4.13-0.49-5.88-0.42c-4.86,0.2-8.89-0.6-13.75-0.61
		c-0.88,0-2.65-0.1-4.04,0.23c-0.76,0.18-1.41,0.5-1.73,1.03c-0.35,0.09-0.68,0.24-0.99,0.38l-0.25,0.11
		c-0.27,0.12-0.49,0.4-0.59,0.76c-0.1,0.37-0.07,0.75,0.1,1.03c0.04,0.06,0.05,0.13,0.08,0.26c0.02,0.08,0.03,0.16,0.06,0.25
		c0.38,1.34,1.76,1.87,2.86,2.09c0.97,0.19,2.13,0.53,3.15,0.51c1.06-0.01,2.09-0.38,3.15-0.44c1.08-0.06,1.9-0.34,3-0.43
		c1.81-0.16,3.2-0.31,4.63-0.33c1.79-0.03,2.59-0.43,4.4-0.59c1.81-0.16,3.32-0.52,4.74-0.46c1.97,0.08,3.62-0.4,5.64-0.73
		c0.67-0.11,2.91-0.16,2.96-1.18C243.32,664.25,241.19,664.49,240.47,664.51z"/>
	<path class="st0" d="M195.51,656.08c1.08,1.52,3.23,2.21,4.78,1.34c1.63-0.92,1.98-2.6,1.99-4.15c0-0.67,0.13-1.92,0-2.56
		c-0.2-0.99-0.05-2-0.19-2.99c-0.3-2-0.62-3.62-0.67-5.69c-0.06-2.54-0.25-5.08-0.52-7.61c-0.36-3.36-1.06-5.64-1.12-9.02
		c-0.02-0.85-0.78-4.11-1.24-5c-0.66-1.28-1.07,1.93-0.98,2.97c0.16,1.87-0.69,4.28-0.54,6.18c0.05,2.83-0.15,5.24-0.55,7.55
		c-0.54,3.14-0.85,5.65-1.25,8.82c-0.34,2.71-0.55,4.08-0.43,5.77C194.88,653.16,194.6,654.81,195.51,656.08z"/>
	<path class="st0" d="M196.14,663.56c-0.12,0.06-0.25,0.15-0.37,0.25c-1.09,0.6-1.34,2.17-1.01,3.42c0.33,1.28,0.45,2.36,2.24,3.38
		c1.28,0.74,3.57-0.03,4.52-0.74c1.32-0.99,1.85-2.23,1.74-3.89c0,0-0.61-1.98-0.61-1.98C202.04,662.28,197.18,662.04,196.14,663.56
		z M199.03,663.04C199.03,663.04,199.03,663.04,199.03,663.04L199.03,663.04L199.03,663.04z"/>
</g>
<g>
	<path class="st0" d="M272.83,593.69c-0.82-0.07-2.32,0.11-3.15,0.19c-1.01,0.1-1.79,0.52-3.08,0.68c-0.52,0.07-2.2,0.44-2.64,0.46
		c-1.21,0.08-2.13,0.27-3.31,0.4c-0.66,0.08-1.4,0.09-2.25,0.25c-0.52,0.1-3.03,0.19-2.85,0.96c0.04,0.19,0.56,0.49,0.74,0.55
		c0.62,0.2,0.76,0.03,1.18,0.05c0.49,0.02,1.36,0.02,1.86,0.04c0.71,0.03,1.24,0.08,1.95,0.07c1.34-0.02,2.7-0.17,4.04-0.15
		c1.89,0.03,3.69,0.36,5.53,0.35c0.5,0,1.01-0.03,1.52-0.1c0.56-0.07,1.34-0.18,1.83-0.61c0.63-0.55,0.91-1.69,0.28-2.39
		C273.96,593.89,273.49,593.75,272.83,593.69z"/>
	<path class="st0" d="M280.28,600.62c-0.52,0.45-0.91,0.38-1.24,1.06c-0.26,0.52-0.41,1.36-0.29,1.95c0.12,0.61,0.13,1.3,0.24,1.96
		c0.13,0.78,0.31,1.33,0.38,2.12c0.12,1.34,0.26,2.77,0.29,4.12c0.03,1.68,0.24,2.46,0.28,3.76c0.02,0.67,0.24,1.92,0.37,2.78
		c0.07,0.41,0.54,0.3,0.74,0.14c0.4-0.31,0.42-1.41,0.44-1.8c0.06-1.11-0.01-2.05,0.02-3.16c0.08-2.37,0.33-4.72,0.62-7.07
		c0.15-1.23,0.45-2.47,0.4-3.72C282.5,601.82,281.7,599.39,280.28,600.62z"/>
	<path class="st0" d="M302.85,594.14c-0.88,0.02-1.72-0.15-2.59-0.19c-0.96-0.04-2.25-0.27-3.21-0.23c-2.65,0.11-4.85-0.33-7.5-0.34
		c-0.48,0-1.45-0.05-2.2,0.13c-0.42,0.1-0.77,0.27-0.94,0.56c-0.19,0.05-0.37,0.13-0.54,0.21l-0.13,0.06
		c-0.15,0.06-0.27,0.22-0.32,0.42c-0.06,0.2-0.04,0.41,0.05,0.56c0.02,0.03,0.03,0.07,0.04,0.14c0.01,0.04,0.02,0.09,0.03,0.13
		c0.21,0.73,0.96,1.02,1.56,1.14c0.53,0.11,1.16,0.29,1.72,0.28c0.58-0.01,1.14-0.21,1.72-0.24c0.59-0.03,1.04-0.18,1.64-0.24
		c0.99-0.09,1.75-0.17,2.53-0.18c0.98-0.02,1.41-0.23,2.4-0.32c0.99-0.09,1.81-0.28,2.59-0.25c1.07,0.04,1.98-0.22,3.08-0.4
		c0.37-0.06,1.59-0.09,1.62-0.64C304.4,593.99,303.24,594.13,302.85,594.14z"/>
	<path class="st0" d="M278.31,589.53c0.59,0.83,1.77,1.2,2.61,0.73c0.89-0.5,1.08-1.42,1.09-2.26c0-0.36,0.07-1.05,0-1.4
		c-0.11-0.54-0.03-1.09-0.11-1.63c-0.16-1.09-0.34-1.98-0.37-3.11c-0.03-1.39-0.14-2.77-0.28-4.15c-0.2-1.83-0.58-3.08-0.61-4.92
		c-0.01-0.46-0.42-2.24-0.68-2.73c-0.36-0.7-0.58,1.06-0.54,1.62c0.09,1.02-0.38,2.34-0.3,3.37c0.03,1.54-0.08,2.86-0.3,4.12
		c-0.3,1.71-0.46,3.08-0.68,4.81c-0.19,1.48-0.3,2.23-0.24,3.15C277.97,587.94,277.81,588.84,278.31,589.53z"/>
	<path class="st0" d="M278.65,593.62c-0.07,0.03-0.13,0.08-0.2,0.14c-0.6,0.33-0.73,1.18-0.55,1.87c0.18,0.7,0.25,1.29,1.22,1.85
		c0.7,0.4,1.95-0.01,2.47-0.41c0.72-0.54,1.01-1.21,0.95-2.12c0,0-0.34-1.08-0.34-1.08C281.87,592.92,279.22,592.79,278.65,593.62z
		 M280.23,593.33C280.23,593.33,280.23,593.33,280.23,593.33L280.23,593.33L280.23,593.33z"/>
</g>
<g>
	<path class="st0" d="M962.42,532.27c-0.83-0.07-2.32,0.11-3.16,0.19c-1.02,0.1-1.8,0.52-3.09,0.68c-0.53,0.07-2.21,0.44-2.65,0.47
		c-1.22,0.08-2.14,0.27-3.32,0.41c-0.66,0.08-1.41,0.09-2.25,0.25c-0.53,0.1-3.05,0.19-2.86,0.96c0.04,0.19,0.56,0.49,0.74,0.55
		c0.62,0.2,0.76,0.03,1.19,0.05c0.5,0.02,1.37,0.02,1.86,0.04c0.71,0.03,1.25,0.08,1.96,0.07c1.35-0.02,2.71-0.17,4.06-0.15
		c1.89,0.03,3.71,0.36,5.56,0.35c0.51,0,1.01-0.03,1.53-0.1c0.56-0.07,1.35-0.18,1.83-0.61c0.63-0.55,0.92-1.7,0.28-2.39
		C963.55,532.46,963.08,532.32,962.42,532.27z"/>
	<path class="st0" d="M969.9,539.22c-0.52,0.45-0.91,0.38-1.25,1.07c-0.26,0.53-0.41,1.36-0.29,1.96c0.12,0.62,0.13,1.31,0.24,1.97
		c0.13,0.78,0.31,1.34,0.38,2.12c0.12,1.35,0.26,2.78,0.29,4.14c0.03,1.69,0.25,2.47,0.28,3.77c0.02,0.67,0.24,1.93,0.37,2.79
		c0.07,0.41,0.54,0.3,0.75,0.14c0.41-0.31,0.42-1.41,0.44-1.8c0.06-1.12-0.01-2.06,0.02-3.18c0.08-2.38,0.33-4.73,0.62-7.09
		c0.15-1.23,0.45-2.47,0.4-3.74C972.12,540.42,971.32,537.98,969.9,539.22z"/>
	<path class="st0" d="M992.55,532.71c-0.89,0.02-1.73-0.15-2.6-0.19c-0.97-0.04-2.26-0.27-3.22-0.23c-2.66,0.11-4.87-0.33-7.53-0.34
		c-0.48,0-1.45-0.05-2.21,0.13c-0.42,0.1-0.77,0.27-0.95,0.56c-0.19,0.05-0.37,0.13-0.54,0.21l-0.13,0.06
		c-0.15,0.06-0.27,0.22-0.32,0.42c-0.06,0.2-0.04,0.41,0.05,0.56c0.02,0.03,0.03,0.07,0.04,0.14c0.01,0.04,0.02,0.09,0.03,0.13
		c0.21,0.74,0.96,1.03,1.57,1.15c0.53,0.11,1.17,0.29,1.72,0.28c0.58-0.01,1.14-0.21,1.72-0.24c0.59-0.03,1.04-0.18,1.64-0.24
		c0.99-0.09,1.75-0.17,2.54-0.18c0.98-0.02,1.42-0.23,2.41-0.32c0.99-0.09,1.82-0.28,2.6-0.25c1.08,0.04,1.98-0.22,3.09-0.4
		c0.37-0.06,1.6-0.09,1.62-0.64C994.11,532.56,992.94,532.7,992.55,532.71z"/>
	<path class="st0" d="M967.91,528.09c0.59,0.83,1.77,1.21,2.62,0.73c0.89-0.5,1.08-1.42,1.09-2.27c0-0.37,0.07-1.05,0-1.4
		c-0.11-0.54-0.03-1.09-0.11-1.64c-0.16-1.09-0.34-1.98-0.37-3.12c-0.03-1.39-0.14-2.78-0.28-4.17c-0.2-1.84-0.58-3.09-0.62-4.94
		c-0.01-0.47-0.43-2.25-0.68-2.74c-0.36-0.7-0.59,1.06-0.54,1.63c0.09,1.02-0.38,2.34-0.3,3.39c0.03,1.55-0.08,2.87-0.3,4.13
		c-0.3,1.72-0.46,3.1-0.68,4.83c-0.19,1.48-0.3,2.24-0.24,3.16C967.57,526.49,967.42,527.39,967.91,528.09z"/>
	<path class="st0" d="M968.26,532.19c-0.07,0.03-0.13,0.08-0.2,0.14c-0.6,0.33-0.73,1.19-0.55,1.87c0.18,0.7,0.25,1.29,1.23,1.85
		c0.7,0.4,1.95-0.01,2.48-0.41c0.72-0.54,1.01-1.22,0.95-2.13c0,0-0.34-1.08-0.34-1.08C971.49,531.48,968.83,531.35,968.26,532.19z
		 M969.84,531.9C969.84,531.9,969.84,531.9,969.84,531.9L969.84,531.9L969.84,531.9z"/>
</g>
<g>
	<path class="st0" d="M617.91,463.48c-1.51-0.16-4.24,0.24-5.77,0.42c-1.86,0.22-3.28,1.15-5.65,1.5c-0.96,0.14-4.04,0.96-4.83,1.02
		c-2.22,0.17-3.9,0.59-6.07,0.89c-1.21,0.17-2.57,0.21-4.11,0.55c-0.96,0.21-5.56,0.42-5.23,2.11c0.08,0.42,1.02,1.08,1.36,1.21
		c1.14,0.44,1.38,0.07,2.17,0.11c0.91,0.05,2.5,0.04,3.4,0.09c1.3,0.06,2.28,0.18,3.57,0.16c2.46-0.03,4.95-0.38,7.4-0.33
		c3.46,0.07,6.77,0.8,10.14,0.78c0.92-0.01,1.85-0.07,2.79-0.22c1.03-0.16,2.46-0.4,3.35-1.34c1.15-1.21,1.68-3.73,0.51-5.26
		C619.97,463.91,619.12,463.61,617.91,463.48z"/>
	<path class="st0" d="M631.56,478.76c-0.95,0.99-1.66,0.84-2.28,2.35c-0.47,1.16-0.75,3-0.53,4.3c0.22,1.35,0.24,2.87,0.44,4.33
		c0.24,1.72,0.57,2.94,0.69,4.67c0.22,2.96,0.48,6.11,0.52,9.08c0.05,3.71,0.45,5.42,0.51,8.29c0.03,1.47,0.43,4.23,0.68,6.14
		c0.12,0.91,0.99,0.65,1.36,0.31c0.74-0.69,0.77-3.11,0.81-3.96c0.11-2.46-0.02-4.52,0.04-6.98c0.14-5.23,0.6-10.4,1.13-15.58
		c0.28-2.71,0.82-5.44,0.74-8.21C635.62,481.41,634.17,476.04,631.56,478.76z"/>
	<path class="st0" d="M672.9,464.45c-1.62,0.05-3.15-0.32-4.75-0.41c-1.76-0.1-4.13-0.59-5.88-0.5c-4.86,0.24-8.89-0.72-13.75-0.74
		c-0.88,0-2.65-0.12-4.04,0.28c-0.76,0.22-1.41,0.6-1.73,1.24c-0.35,0.11-0.68,0.29-0.99,0.46l-0.25,0.13
		c-0.27,0.14-0.49,0.48-0.59,0.92c-0.1,0.44-0.07,0.9,0.1,1.23c0.04,0.08,0.05,0.16,0.08,0.31c0.02,0.09,0.03,0.19,0.06,0.3
		c0.38,1.62,1.76,2.25,2.86,2.52c0.97,0.23,2.13,0.63,3.15,0.62c1.06-0.02,2.09-0.46,3.15-0.53c1.08-0.07,1.9-0.41,3-0.52
		c1.81-0.19,3.2-0.37,4.63-0.4c1.79-0.04,2.59-0.51,4.4-0.71c1.81-0.19,3.32-0.62,4.74-0.56c1.97,0.09,3.62-0.48,5.64-0.88
		c0.67-0.13,2.91-0.2,2.96-1.42C675.75,464.14,673.62,464.43,672.9,464.45z"/>
	<path class="st0" d="M627.94,454.31c1.08,1.83,3.23,2.65,4.78,1.61c1.63-1.1,1.98-3.13,1.99-4.99c0-0.8,0.13-2.31,0-3.08
		c-0.2-1.19-0.05-2.4-0.19-3.59c-0.3-2.4-0.62-4.36-0.67-6.85c-0.06-3.06-0.25-6.11-0.52-9.16c-0.36-4.04-1.06-6.79-1.12-10.86
		c-0.02-1.02-0.78-4.95-1.24-6.01c-0.66-1.53-1.07,2.33-0.98,3.58c0.16,2.25-0.69,5.15-0.54,7.44c0.05,3.4-0.15,6.31-0.55,9.08
		c-0.54,3.77-0.85,6.8-1.25,10.61c-0.34,3.26-0.55,4.91-0.43,6.94C627.31,450.8,627.03,452.78,627.94,454.31z"/>
	<path class="st0" d="M628.57,463.31c-0.12,0.08-0.25,0.18-0.37,0.3c-1.09,0.72-1.34,2.61-1.01,4.12c0.33,1.54,0.45,2.84,2.24,4.07
		c1.28,0.89,3.57-0.03,4.52-0.89c1.32-1.19,1.85-2.68,1.74-4.68c0,0-0.61-2.38-0.61-2.38C634.47,461.76,629.62,461.48,628.57,463.31
		z M631.46,462.68C631.46,462.68,631.46,462.68,631.46,462.68L631.46,462.68L631.46,462.68z"/>
</g>
<g>
	<path class="st1" d="M1004.77,752.83c0.19-0.27,0.31-0.6,0.36-1c-18.97-6.52-36.29-16.63-55.66-22.34
		c-5.3-1.56-10.27-2.73-15.71-3.58c3.41-2.98,4.83-6.5,7.49-10.01c-6.13-0.18-9.88,6.13-13.54,9.99
		c-4.02,4.23-9.36,7.05-14.02,10.51c-9.48,7.05-20.55,9.65-31.94,11.81c-5.93,1.13-11.99,1.78-17.98,2.48
		c-5.83,0.69-11.42-0.67-17.25-0.28c-11.93,0.79-23.27,1.79-35.21,1.96c-12.09,0.18-23.52,2.87-35.42,3.53
		c-6.16,0.34-11.6-2.55-17.19-1.89c-6.22,0.73-10.46,3.58-16.86,2.59c-11.07-1.71-22.05-5.08-32.83-7.74
		c-13.11-3.24-16.84-15.08-13.93-27.04c1.5-6.16,3.86-10.71,8.58-15.07c4.07-3.76,9.23-5.63,13.16-9.75
		c4.2-4.4,8.49-8.11,13.13-12.11c5.26-4.53,9.55-4.75,16.21-5.44c3-0.31,5.86-0.44,8.88-0.52c-1.38,10,11.71,8.79,18.05,7.35
		c15.57-3.55,12.68-6,11.7-15.42c6.39-0.84,7.78,6.17,7.52,12.16c-0.22,5.14-2.21,9.31-5.92,12.88
		c-6.48,6.23-17.54,12.24-26.24,14.77c-5.92,1.72-17.9-0.26-23.63-0.38c-0.06,0.53,6.51,2.27,6.46,2.78
		c1.43,0.37,2.69,1.41,4.08,1.87c-1.91,10.54-10.21,20.8-18.5,29.54c0.45,0.52,4.1,0.42,6.16-1.24
		c10.19-7.47,11.84-24.13,23.58-29.24c2.87,3.58,3.37,8.95,3.76,15.59c0.36,6.15,0.17,12.58,0.41,18.67
		c2.42-7.71,2.85-14.95,2.69-22.78c-0.05-2.34-0.8-10.05-0.02-11.76c1.32-2.88,7.98-4.42,10.64-5.71
		c6.36-3.07,15.26-7.85,18.43-14.59c2.88-6.13,4.91-17.91-0.45-23.19c-6.02-5.92-8.53-6.15-26.85,0.07
		c-0.71-13.86-1.45-29.95-3.46-43.66c-2.05-14.05-5.47-28.11-6.46-42.31c-0.57-8.24-0.37-16.51-0.33-24.76
		c-3.27,10.22-2.45,19.51-2.03,29.95c0.4,9.92-0.49,20.63,1.1,30.37c1.65,10.12,1.96,20.51,4.02,30.5
		c1.79,8.69,1.21,23.19,1.21,23.19c-5.76,0.82-18.59,1.49-24.31,2.7c-6.47,1.36-8.02,4.81-13.17,8.01
		c0.08-5.29-2.71-11.18-7.18-12.15c4.55,5.98,3.81,14.23,3.61,14.54c-4.18,6.47-11.21,10.3-16.51,14.2
		c-4.67,3.43-8.95,7.95-10.84,13.53c-2.14,6.31-2.27,10.95-2.27,10.95c-17.88,11.35-36.49,2.57-41.15-8.3
		c-2.47-5.76,0.07-10.97-0.17-16.95c-0.25-6.23,0.94-12.02,0.79-18.33c-0.18-7.81-2.48-12.89,4.71-18.12
		c5.33-3.88,12.34-6.84,18.68-8.35c-1.54,10.38,8.42,9.23,15.3,8.43c5.99-0.7,17.11-0.55,20.93-6.02c2.6-3.73,1.98-8.34,2.14-12.55
		c9.5,10.78-4.18,22.18-12.31,28.04c-4.67,3.37-14.13,6.16-19.07,8.88c-0.46,0.25,2.12,6.55,1.35,15.81
		c-0.56,6.7-1.33,10.7-4.16,19.37c-4.17,8.89,1.68,0.93,2.49,1c2.87-5.28,4.47-11.13,6.32-16.82c1.2-3.7,1.14-5.29,1.21-8.93
		c0.05-2.73,0.39-7.47,0.39-7.47c0.46-0.25,6.68-2.72,8.65-3.91c2.47-1.5,4.8-3.31,7.2-4.81c5.18-3.25,10.5-7.22,12.35-13.06
		c1.58-5.01,3.77-10.94,1.16-16.03c-2.13-4.16-8.52-10.68-13.35-10.05c-4.93,0.65-12.01,4.58-16.57,6.78
		c-5.28,2.55-10.07,4.96-15.52,6.8c-6.36,2.14-12.77,4.04-18.3,7.88c-6.4,4.44-7.46,8.64-10,15.84c-5.38-1.82-11.3-1.99-16.54-3.73
		c-5.48-1.82-8.89-7.01-11.93-11.54c-5.45-8.13-12.11-20.69-11.93-30.81c0.15-8,6.1-8.93,11.85-12.88
		c-4.24,14.96,7.34,17.52,19.52,14.39c8.23-2.11,19.27-10.99,18.4-20.55c-0.48-5.33-5.3-11.26-8.69-15.02
		c12.12-1.49,17.26,4.4,15.25,16.24c-1.72,10.11-7.52,17.13-14.94,23.62c-4.1,3.58-5.99,7.78-11.13,12.44
		c-7.56,4.72,1.31,1.19,1.89,1.46c6.11-5.19,12.05-9.24,17.93-14.82c2.69,6.91,1.56,14.34,3.04,21.68
		c0.87-5.06,2.07-10.75,2.04-15.89c-0.03-5.89-0.69-11.33,5.08-15.17c7.68-5.11,21.02-6.39,30.12-8.2
		c6.37-1.27,17.3-3.14,16.48-6.78c0.8-5.59-27.22-8.43-39.04-10.36c-7.34-1.2-11.47-5.6-18.41-7.98c-7.61-2.61-14.11,0.65-21.2,3.48
		c-6.99,2.78-12.7,2.1-19.68,1.12c-6.71-0.95-13.2,2.85-19.68,4.77c-10.2,3.02-32.64,8.64-40.01-2.6
		c-3.49-5.33,2.61-14.1,7.82-17.06c5.75-3.27,13.86-4.16,20.11-6.72c12.5-5.1,27.35-7.04,40.76-9.08
		c13.67-2.08,27.44-4.05,41.1-6.33c7.33-1.22,13.78-1.28,21.21-0.52c6.93,0.71,13.45,0.12,20.47,1.7
		c13.9,3.14,27.53,0.88,41.46-0.82c8.18-1,12.53-2.85,19.22,2.25c5.33,4.07,11.38,8.7,18.03,10.21c3.53,0.8,10.24,2.8,12.65,2.76
		c0.2,6.68,2.24,19.44,8.03,28.28c5.21,7.94,12.75,14.71,19.29,21.39c4.44,4.54,20.24,12.1,26.32,13.95
		c-2.93-3.15-18.14-12.78-20.8-14.32c-4.09-2.39-7.21-5.77-10.45-9.41c-6.96-7.82-12.75-14.13-16.1-23.76
		c-1.69-4.86-3.41-12.12-2.91-16.51c5.11-0.89,10.22-1.94,15.3-2.86c6.44-3.22,17.8-8-0.18-3.69c-9.62,3.46-12.45,2.64-19.77,2.07
		c-14.68-3.14-26.3-8.54-35.13-20.99c4.83-3.08,10.05-2.69,12.97-8.43c-5.44,0.4-10.72,2.95-16.12,3.28
		c-5.56,0.34-10.9-2.22-15.65-5.38c-7.88-5.24-22.01-14.64-24.15-24.45c-1.03-4.7-0.42-11.45,2.73-15.24
		c4.57-5.5,9.72-2.9,15.53-0.69c10.99,4.18,22.35,7.49,33.14,11.97c5.24,2.18,10.23,3.67,15.2,6.38c4.94,2.69,10.5,6.59,16.06,7.38
		c11.13,1.58,23.15,1.71,34.31,4.21c11.83,2.65,21.36,3.43,30.39,12.46c8.46,8.45,19.43,12.45,28.97,19.49
		c9.61,7.09,16.96,13.67,24.23,23.23c6.9,9.08,14.1,18.16,21.55,26.83c1.83,2.13,3.59,4.4,5.6,6.32c10.75,8.06,6.93,3.09,0.7-3.68
		c-2.8-3.46-3.5-5.54-6.47-8.86c12.4,3.93,25.02,6.11,37.74,9.09c12.64,2.96,24.78,4.98,37.6,6.71c7.34,0.99,19.79,4.15,27.24,4.71
		c9.33-0.38,10.31-5.09,1.95-6.74c-8.67-0.58-21.55-1.58-28.3-3.35c-6.55-1.72-13.73-3.3-20.39-4.23
		c-13.27-1.87-28.81-3.64-41.57-8.05c-6.77-2.34-13.33-2.7-19.2-7.24c-5.66-4.38-10.96-9.99-15-15.89
		c-8.34-12.17-18.84-19.45-30.37-28.57c-5.5-4.35-11.77-6.51-17.28-10.35c-5.65-3.94-10.56-9.36-17.21-11.76
		c-13.67-4.94-27.94-5.67-42.26-7.35c-7.19-0.84-14.05-1.98-20.63-5.14c-6.59-3.16-12.61-7.18-19.63-9.33
		c-13.66-4.18-27-10.51-40.95-14.35c-17.43-4.8-23.91,16.13-16.08,28.92c3.22,5.25,10.16,10.49,14.69,15.19
		c5.14,5.33,11.14,7.7,17.66,10.86c2.98,1.44,6.56,2.78,8.71,5.38c-14.04,3.75-29.08,5.51-43.3,3.9
		c-14.72-1.66-29.69-3.21-44.58-1.94c-7.47,0.64-16.04-0.14-23.31,1.49c-7.31,1.64-14.13,3.82-21.73,4.36
		c-14.58,1.02-28.23,6.54-42.39,10.04c-11.36,2.81-35.64,9.3-32.71,25.31c2.26,12.32,19.38,15.09,29.59,14.34
		c10.31-0.76,19.1-5.31,29.26-7.17c5.48-1,11.31,0.51,16.97,0.39c-5.33,10.79-25.25,11.94-24.47,29.51
		c0.5,11.16,9.94,31.07,18.3,38.88c4.45,4.16,8.3,6.76,14.22,7.95c8.71,1.75,13.46,2.17,13.78,2.83c4.33,8.93-7.86,33.83,4.54,44.79
		c4.01,3.54,12.82,7.44,17.9,8.7c5.6,1.39,14.09,0.81,19.4-1.41c1.51-0.63,3.03-1.89,4.44-2.76c1.02,5.41,2.68,11.9,6.38,16.19
		c3.92,4.54,9.65,4.25,14.98,5.98c10.32,3.35,19.59,7.86,31.13,8.3c5.77,0.22,10.39-2.17,15.84-2.51c4.87-0.3,10.6,1.74,15.84,1.98
		c11.66,0.52,21.61-2.04,32.94-3.92c22.08-3.66,44.96,0.36,66.97-1.21c10.36-0.74,27.55-4.46,36.51-10.04
		c8.22-5.11,20.27-15.65,20.27-15.65c5.14,1.49,15.6,3.98,20.33,6.07c5.3,2.33,11.26,3.16,16.86,5.12
		c10.08,3.52,22.04,9.78,33.08,14.12C1002.78,755.59,1003.69,754.4,1004.77,752.83z M683.64,604.77c3.99,0.59,8,1.1,12.05,1.28
		c3.09,0.13,5.4,0.73,8.35,1.59c-2.02,3.1-12.38,3.67-15.98,4.18c-5.62,0.8-11.8,1.52-17.02,3.72c-2.96,1.25-5.93,2.5-8.91,3.69
		c0.24-0.09,1.68-6.7,1.85-7.5c0.7-3.3,0.08-6.16-0.37-9.45C670.37,602.56,676.99,603.78,683.64,604.77z M764.03,684
		c-2.43-0.38-4.57-1.28-5.84-2.91c1.44-5.55,18.62-9.29,23.54-10.33c1.13,10.7,3.87,9.19-5.29,11.73
		C773.38,683.33,768.32,684.67,764.03,684z M707.99,654.81c0,0-0.72,1.6-2.69,2.68c-3,1.64-8.22,2.83-11.67,3.16
		c-4.11,0.39-12.24,0.84-15.75-0.99c-1.93-1.26-1-2.41-0.44-4.28c0.27-0.91,3.53-2.85,4.44-3.57c2.07-1.64,5.22-2.51,7.59-3.77
		c0,0,2.51-1.33,2.51-1.34c2.82-1.5,6.14-2.03,9.01-3.5c0,0,1.33-0.68,1.33-0.68l3.86-0.11l1.71,3.57l0.24,2.52l0.26,3.95
		L707.99,654.81z M619.62,612.12c0.71-1.06,3.96-4.2,4.95-5.07c4.29-3.77,9.14-7.56,13.79-10.98c3.14,4.9,11.31,11.34,9.32,17.17
		c-2.31,6.79-10.4,13.54-16.57,14.8C613.97,631.53,614.81,619.28,619.62,612.12z"/>
	<path class="st1" d="M437.01,488.06c3.43,4.25,6.63,8.82,10.89,12.15c5.45,4.28,13.09,7.15,19.17,10.12
		c5.78,2.82,7.13,12.34,11.21,17.92c4.23,5.78,12.55,13.08,18.72,16.83c9.4,5.7,37.06,1.93,28.83-14.76
		c-3.18-6.45-7.78-13.89-12.03-19.53c-4.22-5.62-7.01-10.94-10.77-16.9c-4.22-6.69-9.83-10.95-15.68-16.04
		c-5.61-4.88-9.61-10.55-14.78-15.72c-1.24-1.24-1.72-1.13-2.76-2.52c0.03-0.01,0.18-0.42,0.17-0.46
		c12.6,7.95,27.34,12.07,42.44,5.93c6.64-2.7,11.86-10.66,11.92-14.97c0.06-4.55-11.8-10.34-17.36-12.42
		c-14.36-5.37-20.86-11.77-42.64-16c-14.65-2.84-27.42-11.74-41.74-16.05c-7.33-2.21-14.08-6.28-21.61-7.65
		c-8.14-1.49-13.81,0.71-21.21,3.42c-6.04,2.21-14.03,5.52-20.42,6.67c-6.2,1.11-13.51-5.94-20.24-7.35
		c-7.3-1.53-14.9,0.73-22.16,2.33c-8.59,1.9-16.03,3.14-23.6,4.72c-14.73,3.07-26.16,3.75-41.61,6.29
		c-14.29,2.35-32,3.48-45.96,7.51c-6.67,1.92-10.96,1.78-18.91,3.63c-5.55,1.29-12.52,1.41-24.34,2.67
		c-4.16,0.44-7.32,0.83-10.76,1.87c-11.41,2.84-7.57,3.1,0.9,2.54c13.88-1.9,28,0.2,41.92-2.93c13.77-3.1,27.76-4.96,41.55-8.29
		c13.38-3.23,27.07-3.04,40.54-5.23c13.91-2.26,27.59-5.54,41.63-7.62c6.43-0.95,14.5-3.08,20.79-1.89
		c6.69,1.27,13.2,4.85,19.17,7.95c12.3,6.38,25.05,12.66,37.92,17.93c12.98,5.31,26.83,5.97,40.38,9.06
		c15.2,3.46,24.07,13.48,33.88,24.6c4.59,5.2,8.75,10.67,13.5,15.75c4.62,4.93,16.16,14.19,19.01,19.2
		c0.18,0.32-3.97,3.24-1.96,16.4c0.92,5.99,5.16,13.96,8.49,18.11c2.92,3.63,5.55,4.7,9.71,6.26c-10.16,4.77-18.3-0.55-26.62-5.92
		c-9.37-6.05-15.65-15.3-18.68-25.65c-1.56-5.35-1.37-8.63-3.04-13.94c-0.55,3.1-1.02,6.22-1.58,9.33
		c-7.37-2.64-14.75-6.84-20.65-11.95c-6.32-5.46-9.83-11.04-17.76-14.39c-14.97-6.33-28.66-14.04-44.2-19.36
		c-8.44-2.89-16.13-7.33-24.57-10.07c-0.49,0.54-1.07,1.73-1.21,2.44c9.3,6.5,20.35,11.09,30.93,15.1
		c10.6,4.02,24.22,6.71,32.75,14.68c8.37,7.82,11.67,19.34,16.81,29.21c2.76,5.29,5.93,10.46,8.89,15.69
		c2.16,3.81,7.18,10.48,7.04,14.87c-0.1,3.13-2.62,5.76-4.05,8.29c-1.46,2.58-2.62,5.98-3.61,8.8c-2.22,6.37-2.72,13.63,0.51,19.78
		c-3.45-2.39-7.05-2.8-9.8-6.02c-2.61-3.05-3.86-7.24-5.18-10.98c-2.81-7.96-4.67-13.98-3.84-22.28c0.46-4.61,1.04-8.6,2.2-13.15
		c-2.06,4.27-4.03,8.59-6.44,12.67c-11.8-9.52-20.6-22.7-22.36-37.72c0.37-9.04-2.63-4.53-3.6,0.7c0.31,2.49,0.51,5,0.81,7.49
		c-4.4-1.64-8.65-0.1-12.93-2.09c-3.95-1.83-6.28-5.43-10.11-7.48c-7.45-3.99-15.62-7.26-23.28-11c-4.33-2.11-8.53-4.43-12.76-6.72
		c-0.56,0.51-1.41,1.85-1.63,2.55c7.21,4.3,14.84,8.49,22.09,12.56c7.45,4.18,15.89,5.83,20.99,13.45c2.43,3.63,3.53,7.73,6,11.38
		c2.49,3.67,5.27,6.97,7.65,10.72c2.27,3.57,4.34,6.71,5.78,10.73c1.96,5.47,0.88,6.33-0.58,11.53c-2.77,9.85-2.35,18.16-0.05,27.96
		c-12.12-6.59-18.81-19.97-19.12-33.35c-0.09-3.84-0.92-7.68-0.44-11.56c-1.24,2.38-2.52,4.76-3.52,7.25
		c-7.37-2.49-14.11-8.48-19.74-13.67c-2.76-2.54-5.28-6.04-8.23-8.27c-3.54-2.67-7.44-2.66-11.84-2.75
		c-9.53-0.19-15.07-3.39-23.66-6.6c-8.52-3.19-15.5-2-24.19,0.16c-15.72,3.89-31.37,9.46-47.32,11.77
		c-15.81,2.29-32.16,4.7-48.17,5.44c-16.84,0.78-31.88-3.18-48.15-6.04c-1.88-0.33-3.76-0.75-5.62-0.92
		c15.27,13.03,44.33,13.9,61.12,12.28c21.09-2.04,44.33-5.15,44.76-4.85c7.17,5.05,40.57,7.66,50.71,6.36
		c5.64-0.72,10.37-1.3,16.02-1.42c3.33-0.07,5.42-0.87,8.42,0.45c2.35,1.03,7.54,4.06,9.93,5.24c10.07,4.95,18.12,8.11,28.5,12.27
		c4.83,1.93,11.75,4.41,17.23,4.49c0.58,0.01,2.71,7.43,5.48,12.22c6.08,10.55,11.8,16.78,24.67,15.26
		c7.39-0.87,9.57-2.79,7.99-10.39c-1.11-5.33-3.57-10.19-4.68-15.66c-0.57-2.8-0.85-4.83-2.2-7.47c7.44-1.17,11-4.13,15.64-10.01
		c1.54,3.32-0.38,5.86,0.74,9.87c1.05,3.74,2.78,10.54,4.62,13.95c4.15,7.68,10.75,15.46,21.16,15.03c0.37-0.02,8.71,0.9,9.07-2.12
		c1.13-6.9-0.17-12.36-0.33-19.25c-0.08-3.45-0.43-7.1-0.37-10.52c0.05-3.23,1.1-5.68,0.97-8.76c-0.26-6.25-6.67-13.23-9.8-18.18
		c-3.58-5.65-6.13-12.33-9.39-18.26c-1.89-3.43-2.88-7.22-4.63-10.68c-1.76-3.47-4.29-5.84-5.01-9.85
		C434.88,485.47,435.95,486.75,437.01,488.06z M459.26,575.89c-0.18,0.62-0.45,1.14-0.82,1.52c-2.25,2.31-6.19-4.76-6.52-6.02
		c-1.27-4.88,0.2-9.64,2.12-14.11c1-2.32,1.95-6.81,3.67-8.4c-0.59,5.36,1.21,10.5,1.34,15.93
		C459.11,567.39,460.17,572.83,459.26,575.89z M520.2,452.76c-1.7,2.82-4.06,2.55-5.99,1.96c-9.9-3.04-23.36-14.87-20.38-17.1
		c9.26,0.76,19.23,5.8,26.83,11.11C520.7,448.75,520.78,451.79,520.2,452.76z M487.23,433.35c0.87,0.51,1.72,1.06,2.54,1.68
		c-2.86,6.12,5.2,12.58,9.82,15.24c2.88,1.66,12.79,9.12,15.74,6.94c-9.41,11.2-23.57,7.09-35.2,1.53
		c-4.68-2.24-10.7-5.1-15.34-7.25c-4.84-2.25-7.95-6.91-12.49-9.53c-8.46-4.87-19.04-6.23-28.53-7.55c-10.04-1.4-19.56-5-29.07-8.48
		c-10.82-3.97-21.18-8.63-31.58-13.38c8.4-1.88,17.3-4.94,25.5-7.65c9.94-3.29,14.89-0.47,24.33,2.74
		c16.65,5.66,32.85,11.55,49.29,17.75C470.2,428.4,479.72,429.01,487.23,433.35z M504.85,512.88c-0.01-1.87,0.02-3.73-0.07-5.58
		c0.05,0.03,0.35-0.03,0.36-0.05c2,0.25,6.15,6.52,9.43,10.92c6.28,8.42,11.8,19.02,8.59,20.17c-5.92,2.12-10.12-4.3-10.88-4.99
		c-3.08-2.84-4.88-7.1-6.23-10.98C505,519.31,504.87,516.1,504.85,512.88z M520.96,539.48l1.17-1.21l-0.17,0.11l-0.57,1l-1.18,0.84
		L520.96,539.48z M416.76,582.37l0.07-0.04l-0.11-0.04L416.76,582.37z M412.93,573.73c0.77,1.89,1.51,3.78,2.08,5.77
		c0,0,0.74,2.31,0.76,2.37c0.58,1.8-6.27,0.39-7.21-0.47c-2.27-2.11-4.06-6.4-4.26-9.44c0,0-0.46-6.86-0.46-6.86s1.1-6.22,1.18-6.67
		c0.12-0.66,1.33-1.61,1.77-2.19c1.36-1.78,3.54,7.2,3.72,7.99C411.26,567.62,411.61,570.49,412.93,573.73z M417.4,547.14
		c-1.18,0.5-5.67,1.46-6.5,1.86c-1.73-11.2-9.5-18.65-14.94-27.98c5.12,0.61,12.36,3.2,12.59,3.49c2.68,3.37,5.34,7.51,7.63,9.52
		c1.93,1.7,5.23,5.94,7.87,6.93C424.4,541.1,421.06,545.6,417.4,547.14z M401.25,517.31l-2.4-0.31l-4.15-0.96l-3.38-2.71l2.2,0.3
		l3.16,0.6l2.91,0.38l4.54,1.02l0.04-0.06l2.13,3.77L401.25,517.31z M253.25,529.76c8.09-3.07,17.4-5.09,25.88-6.84
		c8.25-1.71,17.19-5.49,25.48-6.34c4.8-0.49,9.67,2.35,14.07,3.77c4.03,1.3,7.37,1.94,11.44,3.11c4.4,1.27,10.74,2.75,15.12,1.73
		c1.3-0.3,5.77,4.68,9.69,7.95c3.77,3.14,7.63,5.84,11.12,9.33c4,4,7.68,5.67,13.04,7.57c-0.06,1.66,0.02,3.33,0.15,4.99
		c-5.99-0.72-10.45-2.2-15.71-4.99c-6.01-3.18-12.76-4.61-18.76-7.79c-6.68-3.55-14.13-7.85-21.57-9.6
		c-7.34-1.72-15.54-0.96-22.9,0.04c-3.47,0.47-6.97,1.14-10.45,1.34c-4.17,0.24-9.56,0.02-13.58-0.43
		C267.88,532.67,261.55,531.66,253.25,529.76z"/>
	<path class="st1" d="M909.24,664.06c-8.32-0.22-17.32,1.93-25.17,1.63c-9.06-0.35-18.14-0.36-27.04-2.35
		c-8.82-1.98-17.16-5.98-25.29-9.84c-8.05-3.83-16.5-6.5-23.89-11.62c-7.9-5.46-16.13-11.26-23.15-17.83
		c-2.73-2.56-4.37-5.61-6.42-8.7c-1-1.51-2-3.19-3.39-4.39c-0.39-0.34-3.67-2.05-3.69-2.12c5.92,20.37,28.04,30.98,44.46,41.54
		c21.71,13.97,43.95,20.75,69.89,19.67c10.7-0.44,22.62-1.12,32.85-4.41C915.51,664.58,912.43,664.15,909.24,664.06z"/>
	<path class="st1" d="M962.48,696.67c3.72-12.52,5.6-26.08,6.26-38.53c0.31-5.9-0.93-9.63-2.02-15.36
		c-0.55,4.94-1.85,8.02-1.76,12.98c0.08,4.04-0.91,8.66-1.37,12.71c-1.06,9.26-3.01,17.3-6.37,25.86
		c-1.81,4.62-2.59,11.82,0.14,16.19C959.35,706.15,961.05,701.49,962.48,696.67z"/>
	<path class="st1" d="M708.92,586.48c-1.18,3.04-2.28,6.09,0.86,7.13c2.91-3.99,4.62-7,5.09-11.97c0.32-3.38,0.36-10.87-3.97-11.77
		c1.12,0.23-0.52,11.75-0.77,13.01C709.91,583.98,709.41,585.22,708.92,586.48z"/>
	<path class="st1" d="M662.04,581.03c0.06-4.29-0.71-14.62-3.24-16.5c-1.62,0.3,1.04,11.08,1.17,14.55
		c0.08,2.01-1.33,3.04-0.79,4.99c0.18,0.64,0.11,2.28,0.56,2.76c0.17,0.18,1.48,3.2,1.47,2.59
		C661.16,587.21,662.01,583.25,662.04,581.03z"/>
	<path class="st1" d="M714.4,619.82c-0.49-0.5-1.01-0.92-1.55-1.24c1.94,1.13,1.29,14.77,2.12,17.28
		C720.23,632.98,718.28,623.81,714.4,619.82z"/>
	<path class="st1" d="M608.04,583.67c-0.64-3.22-3.48-7.15-4.01-10.39c-2.09,3.24,0.66,6.91,0.63,9.78
		c-0.05,4.18,2.16,7.15,4.32,9.67C607.76,592.12,609.25,589.77,608.04,583.67z"/>
</g>
<g>
	<path class="st1" d="M589.98,181.17c0.03-3.26,0.42-5.19-3.7-5.04c-3.41,0.12-10.1-0.44-14.23-0.73c0.22-22.74,0.4-44.72,0.64-66.7
		c0.18-15.98,0.47-34.19,0.68-50.17c0.07-5.07-1.71-4.67-7.15-4.83c-3.56-0.1-7.13,0.18-10.7,0.23c-7.36,0.11-8.4-2.46-8.61,4.3
		c-0.32,10.13-0.87,23.84-0.95,33.98c-0.08,10.39,0.09,20.78,0.29,31.16c0.09,4.8,0.84,9.6,0.76,14.4
		c-0.22,14.21-0.89,28.41-1,42.62c-0.04,5.72,0.58,13.94,0.58,19.02c15.11-0.08,29.51,0.07,43.9,0
		C593.38,199.11,589.83,195.53,589.98,181.17z"/>
	<path class="st1" d="M1020.98,119.89c0.24-11.04,0.67-25.68,0.91-36.72c0.22-10.29-0.28-20.59-0.47-31.04
		c-6.65-1.22-12.63-0.19-18.51-0.96c-3.55-0.47-5.51-0.59-5.95,2.52c-0.43,3-0.5,6.06-0.44,9.09c0.3,13.89,0.72,27.78,1.03,41.67
		c0.02,1.04,0.2,3.24,0.2,5.32c0,2.97-0.09,5.32-0.65,5.35c-4.06-11.45-10-30.37-14.14-41.79c-2.07-5.71-4.25-11.4-6.72-16.98
		c-0.65-1.47-2.47-3.48-3.85-3.55c-6.45-0.32-14.67-1.64-17.89-1.64c-2.9,0.3-0.97,10.41-1.61,31.83
		c-0.23,7.57,0.1,13.36-0.13,20.91c-0.8,26.55-0.98,52.2-0.2,78.76c0.32,11.01-2.58,14.58-0.32,15.17c9.27,0.13,14.66-0.13,23.88,0
		c2.9,0,1.45-5.17,1.39-7.46c-0.28-10.85-1.14-21.71-1.07-32.55c0.05-8.09,0.02-20.71,0.65-28.41
		c6.46,17.85,13.36,47.55,22.92,67.83c7.34-0.44,21.63,2.08,21.95-0.6c-0.65-6.62-0.64-14.73-0.65-20.23
		C1021.3,155.95,1020.53,140.36,1020.98,119.89z"/>
	<path class="st1" d="M113.29,187.5c-0.55-14.19-1-28.38-1.72-42.56c-0.32-6.41-2.84-13.8-10.41-17.76c0.32-0.3,3.43-1.95,4.32-2.85
		c4.53-4.54,6.25-9.87,6.19-16.02c-0.06-7.1,0.58-14.21,0.7-21.31c0.13-7.34,0.31-14.7-0.09-22.03c-0.34-6.2-4.13-9.87-10.77-11.87
		c-5.87-1.76-12.1-1.35-17.78-1.43c-11.18-0.15-23.22,0.28-34.54,0c-2.58-0.3-0.55,4.06-0.56,5.7c-0.04,8.6,0.19,17.2,0.4,25.8
		c0.24,9.62,0.37,24.85,0.48,34.47c0.02,1.83-2.33-0.76-3.55,0.6c-4.67,5.18-8.07,16.42-8.39,21.19c0.32,1.79,7.95,0.97,11.36,0.84
		c0.4,19.01,0.83,39.94,1.23,58.56c8.34,0.58,14.76-0.29,23.24,0.3c2.08-19.97,0.32-60.59,0-61.19c9.19-1.74,10.83,0.42,12.06,7.69
		c0.42,2.49,0.74,5.01,0.85,7.52c0.66,14.9,1.25,29.8,1.87,44.92c6.17,2.25,12.46,0.46,18.45,0.16c7.99-0.4,7.7,1.19,6.74-6.14
		C113.2,190.56,113.35,189.02,113.29,187.5z M88.58,90.16c-0.39,6.57,0.21,11.94-0.32,18.51c-0.67,8.29-3.3,7.58-13.23,8.06
		c-0.45-0.98,0.18-30.06,0.32-42.68c0.03-3.09,0.58-1.75,4.54-1.99c3.45-0.21,7.07,2.17,7.52,5.66
		C87.88,81.47,88.8,86.38,88.58,90.16z"/>
	<path class="st1" d="M251.21,74.75c-0.56-9.42-2.22-17.72-16.42-21.6c-3.65-1-8.7-1.51-12.45-1.49c-10.65,0.06-21.13-0.5-31.77,0
		c-3.81,0.18-5.22,0.39-5.16,3.58c0.07,3.91,0.55,11.36,0.56,15.27c0.04,12.02-0.08,24.03-0.03,36.05
		c0.09,22.13,0.16,44.26,0.43,66.39c0.1,8.54,0.23,15.28,0.66,24.97c13.22-0.76,26.15,0.35,38.58-0.42
		c10.67-0.66,18.04-6.02,21.87-15.29c1.97-4.78,3.37-10.02,3.68-15.12c0.87-14.34,0.75-26.44,0.74-40.8
		C251.88,109.86,252.19,91.14,251.21,74.75z M227.69,109.26c0.07,12.41-0.71,19.44-0.7,30.15c0.01,8.37,0.54,13.74,0.05,22.09
		c-0.61,10.43-3.75,15.69-16.31,16.65c0.44-35.47,0.88-70.85,1.32-107.09c3.57-0.19,6.02-0.59,8.43-0.4
		c4.72,0.37,6.46,2.22,6.78,7.04C227.93,87.56,227.63,99.29,227.69,109.26z"/>
	<path class="st1" d="M313.55,196.42c3.47-1.07,4.7-1.4,6.78-3.88c4.14-4.95,4.59-13.06,4.79-19.01
		c0.38-11.27,0.35-22.55,0.69-33.82c0.28-9.45,1.08-18.89,1.25-28.34c0.28-14.61,0.23-29.22,0.3-43.83
		c0.01-2.82,0.15-5.66-0.14-8.46c-0.31-3.03,0.18-7.64-3.02-7.42c-7.68,0.54-22.27-1.19-22.59,1.49c0.63,8.12-0.89,17.32-0.78,24.4
		c0.23,15.59,0.05,31.19,0.03,46.79c-0.01,5.04,0.14,10.08-0.07,15.1c-0.41,9.49-0.04,20.64-0.79,30.11
		c-0.3,3.83-2.51,4.11-8.39,3.88c-4.64-0.19-7.77-1.46-7.73-5.95c0.12-16.65,0.36-33.29,0.75-49.93c0.48-20.24,1.14-40.47,1.77-60.7
		c0.1-3.18-1.39-4.85-4.75-4.99c-4.66-0.2-9.32-0.35-13.99-0.47c-5.23-0.14-6.32,0.43-6.58,5.47c-0.29,5.6,0.45,11.25,0.33,16.86
		c-0.58,29.21-1.16,58.43-2.05,87.63c-0.25,8.03,0.11,14.28,1.26,22.24c1.18,8.15,8.2,14.62,17.1,14.4
		C289.11,197.71,302.27,199.9,313.55,196.42z"/>
	<path class="st1" d="M170.88,176.72c-6.72,0.19-14.14-0.89-21.24-0.52c0.08-7.83,0.23-14.88,0.2-21.94
		c-0.02-7.27-0.21-14.54-0.34-22.56c3.74-0.19,6.4-0.47,9.05-0.43c3.57,0.06,10.7-0.67,14.26-0.53c6.54,0.26,6.61-0.21,6.46-2.69
		c-0.22-3.49-0.14-14.58,0-18.51c0.11-3.06-0.71-2.28-4.15-2.39c-5.46-0.17-10.92-0.32-16.38-0.41c-2.6-0.04-5.21,0.06-8.52,0.1
		c0.34-11.52,0.66-22.14,0.99-33.4c6.58,0,16.92-0.52,22.58-0.32c5.14,0.17,5.01-1.19,5.23-4.6c0.32-4.81-0.09-9.66-0.3-14.81
		c-0.04-0.98-0.91-1.76-1.97-1.77c-18.41-0.11-35.75-0.21-53.15-0.31c-0.51,2.46-1.13,3.99-1.08,5.5c0.28,8.64,1.27,17.29,0.94,25.9
		c-0.32,8.55,0.95,26.51,0.62,27.11c-0.05,0.09-3.55-0.6-3.87,1.19c-0.84,4.64-1.7,6.71-2.58,11.34c-0.46,2.44-1.68,4.77-1.94,8.06
		c3.29-0.57,5.76,0.47,8.91-0.08c-0.11,10-0.24,18.91-0.31,27.82c-0.09,10.7-0.44,21.41-0.11,32.09c0.27,8.6-3.71,8.01,5.39,8.22
		c12.91,0.3,35.17-0.73,47.12,0c3.43,0.21,2.36-1.1,2.7-4.47c0.35-3.52,0.66-7.05,0.7-10.59
		C180.18,175.8,179.8,176.47,170.88,176.72z"/>
	<path class="st1" d="M392.47,186.52c-0.49-10.99,0.47-19.63,0.8-29.5c0.04-1.24-1.22-3.6-2.73-3.67c-6.2-0.29-8.51-0.35-14.7-0.21
		c-4.2,0.3-5.1,1.97-5.2,2.65c-0.28,2.01-0.42,4.05-0.48,6.07c-0.05,1.77,0.26,3.56,0.13,5.32c-0.41,5.47,1.03,7.14-7.66,6.62
		c-2.92-0.18-5.96-1.28-5.83-4.25c-0.26-6.13,0.45-7.43,0.65-13.43c0.52-16.23-0.06-31.83,0.65-48.05
		c0.4-9.14,0.02-23.41,0.65-32.53c0.45-6.49,3.99-5.33,11.94-4.78c2.4,0.27,0.58,10.21,0.97,15.22c0.29,1.61,11.67,1.34,19.74,1.44
		c3.82,0.05,2.12-4.28,2.21-5.62c0.49-7.87,1.03-14.16,0.97-20.3c-0.08-7.07-2.52-8.7-10.01-9.85c-11.62-1.79-22.99,0.01-35.36,0.4
		c-6.65,0.21-10.4,1.13-12.41,5.87c-1.56,3.69-1.63,10.9-1.75,14.91c-0.57,19.02-1.04,38.04-1.15,57.06
		c-0.1,17.47-0.65,38.17,0.64,59.06c0.43,6.94,5.95,9.36,13.23,9.85c9.85,0.67,23.59,0,30.66,0
		C390.36,198.81,392.9,196.17,392.47,186.52z"/>
	<path class="st1" d="M403.92,199.1c5.21,0.33,12.26-0.9,19.37-0.3c1.89,0.56,2.07-4.08,2.03-10.23c-0.1-17.53-0.1-28.34-0.1-43.8
		c0-9.89,0.5-22.37,0.38-32.25c-0.18-14.41,0.27-26.98,0.27-41.47c0-10.75,2.45-20.43-0.65-19.1c-8.46,0.02-12.31-0.02-20.01,0
		c-7.1,0.6-4.84,2.09-5.45,15.48c-0.19,4.3,0.73,8.59,0.74,12.88c0.03,9.87-0.59,19.76-0.19,29.61c0.7,17.24-0.59,32.76-0.27,50.37
		c0.2,11.14-0.22,23.17-0.32,34.32C399.68,199.46,399.29,198.81,403.92,199.1z"/>
	<path class="st1" d="M595.18,198.54c1.46,0,3.59,0.28,4.87,0.4c2.46,0.24,5.37,1,7.82,0.42c1.15-0.27,9.3-0.28,10.56-0.1
		c0.28-1,0.45-6.04,0.63-7.29c0.37-2.49,0.55-4.81,0.71-7.22c0.29-4.41,1.18-10.01,2.09-14.32c1.07,0.35,11.53-0.18,11.53,0.54
		c0,2.29,0.29,5.76,0.64,8.06c0.68,4.52,0.76,8.87,0.95,13.41c0.15,3.54,0.03,6.27,0.39,6.45c0.97,0.48,10.41,0.19,13.48,0.06
		c1.79-0.08,4.13-1.08,6.05-0.67c1.18,0.25,3.65,0.33,3.88,0.08c0,0,0,0,0,0c-0.19-0.12-2.15-13.75-2.46-17.62
		c-0.76-9.18-2.1-18.42-3.75-27.48c-0.85-4.64-1.73-9.29-1.87-14.02c-0.06-2.09-3.56-22-4.4-26.45c-1.37-7.23-1.56-12.99-2.81-21.89
		c-1-7.15-2.03-13.13-3.08-20.28c-0.53-3.6-1.16-7.96-1.8-11.53c-0.26-1.43-0.9-3.76-0.9-5.22c0-1.08-2.36-1.31-4.32-0.9
		c-0.55,0.11-6.31,0.54-10.13,0.29c-1.58-0.1-5.06-0.16-6.63,0.25c-2.35,0.6-5.47,33.32-6.29,39.5c-0.75,5.63-0.88,11.13-2.21,16.7
		c-1.29,5.38-2.33,10.82-2.98,16.31c-1.24,10.44-2.84,20.58-4.45,31.01c-1.74,11.29-2.95,22.64-4.57,33.93
		C595.9,192.54,594.46,198.54,595.18,198.54z M622.93,144.67c0.17-2.07,0.8-5.74,0.97-7.81c0.47-5.51,2.99-24.8,4.02-25.07
		c0.92-0.24,3.15,22.73,3.11,27.11c-0.02,2.13,1.22,11.26,1.42,12.02c-0.49-0.48-10.42-0.37-10.61-0.31
		C621.73,150.18,622.85,145.68,622.93,144.67z"/>
	<path class="st1" d="M690.87,177.7c0.36,9.37,1.44,14.77,3.78,17.3c3.03,3.26,13.09,4.31,19.46,4.14c7.75-0.2,14.23,0,20-1.44
		c11.05-2.76,10.09-8.11,10.27-23.78c0.05-4.28,0-12.79,0.18-16.04c0.07-1.21-14.33-0.98-18.74,0c-0.36,2.88-0.03,6.97,0.18,10.27
		c0.28,4.28,0.18,8.15-1.26,9.19c-2.01,1.46-4.32,1.08-7.57,1.26c-3.6-0.18-2.7-8.29-3.13-18.8c-0.79-19.68-0.62-39.4-0.5-59.09
		c0.03-4.71,0.02-9.85-0.16-14.71c-0.13-3.58,0.15-7.62,0.32-11.48c0.01-0.01,0.01-0.01,0.02-0.02c0.09-0.09,0.08-0.15-0.01-0.18
		c0.01-0.31,0.03-0.63,0.04-0.94c0.18-5.22,13.15-5.04,13.15-1.8c0.36,8.65-1.22,16.21,3.24,16.22c2.64,0,14.95,0.18,14.95-0.72
		c-0.36-1.44,0.38-13.99-0.31-21.09c-0.4-4.06-0.5-10.69-4.38-13.14c-4.41-2.8-12.07-2.52-18.38-2.44c-3.31,0.04-9.19,0.1-14.6,0.28
		c-7.54,0.25-16.58,2.7-16.58,11.53c0,7.39-0.54,8.83-0.72,14.41c-0.06,1.87,0.39,55.43,0.49,75.08
		C690.68,160.43,690.53,168.99,690.87,177.7z"/>
	<path class="st1" d="M504.29,192.07c-0.2-1.5-0.04-3.04-0.1-4.57c-0.55-14.19-1-28.38-1.72-42.56c-0.32-6.41-2.84-13.8-10.41-17.76
		c0.32-0.3,3.43-1.95,4.32-2.85c4.53-4.54,6.25-9.87,6.19-16.02c-0.06-7.1,0.58-14.21,0.7-21.31c0.13-7.34,0.31-14.7-0.09-22.03
		c-0.34-6.2-4.13-9.87-10.77-11.87c-5.87-1.76-12.1-1.35-17.78-1.43c-11.18-0.15-23.22,0.28-34.54,0c-2.58-0.3-0.55,4.06-0.56,5.7
		c-0.04,8.6,0.19,17.2,0.4,25.8c0.24,9.62,0.37,24.85,0.48,34.47c0.02,1.83-2.33-0.76-3.55,0.6c-4.67,5.18-8.07,16.42-8.39,21.19
		c0.32,1.79,7.95,0.97,11.36,0.84c0.4,19.01,0.83,39.94,1.23,58.56c8.34,0.58,14.76-0.29,23.24,0.3c2.08-19.97,0.32-60.59,0-61.19
		c9.19-1.74,10.83,0.42,12.06,7.69c0.42,2.49,0.74,5.01,0.85,7.52c0.66,14.9,1.25,29.8,1.87,44.92c6.17,2.25,12.46,0.46,18.45,0.16
		C505.54,197.81,505.25,199.4,504.29,192.07z M479.48,90.16c-0.39,6.57,0.21,11.94-0.32,18.51c-0.67,8.29-3.3,7.58-13.23,8.06
		c-0.45-0.98,0.18-30.06,0.32-42.68c0.03-3.09,0.58-1.75,4.54-1.99c3.45-0.21,7.07,2.17,7.52,5.66
		C478.78,81.47,479.7,86.38,479.48,90.16z"/>
	<path class="st1" d="M771.53,191.97c0.37-2.49,0.55-4.81,0.71-7.22c0.29-4.41,1.18-10.01,2.09-14.32
		c1.07,0.35,11.53-0.18,11.53,0.54c0,2.29,0.29,5.76,0.64,8.06c0.68,4.52,0.76,8.87,0.95,13.41c0.15,3.54,0.03,6.27,0.39,6.45
		c0.97,0.48,10.41,0.19,13.48,0.06c1.79-0.08,4.13-1.08,6.05-0.67c1.18,0.25,3.65,0.33,3.88,0.08c0,0,0,0,0,0
		c-0.19-0.12-2.15-13.75-2.46-17.62c-0.76-9.18-2.1-18.42-3.75-27.48c-0.85-4.64-1.73-9.29-1.87-14.02c-0.06-2.09-3.56-22-4.4-26.45
		c-1.37-7.23-1.56-12.99-2.81-21.89c-1-7.15-2.03-13.13-3.08-20.28c-0.53-3.6-1.16-7.96-1.8-11.53c-0.26-1.43-0.9-3.76-0.9-5.22
		c0-1.08-2.36-1.31-4.32-0.9c-0.55,0.11-6.31,0.54-10.13,0.29c-1.58-0.1-5.06-0.16-6.63,0.25c-2.35,0.6-5.47,33.32-6.29,39.5
		c-0.75,5.63-0.88,11.13-2.21,16.7c-1.29,5.38-2.33,10.82-2.98,16.31c-1.24,10.44-2.84,20.58-4.45,31.01
		c-1.74,11.29-2.95,22.64-4.57,33.93c-0.23,1.59-1.67,7.59-0.95,7.59c1.46,0,3.59,0.28,4.87,0.4c2.46,0.24,5.37,1,7.82,0.42
		c1.15-0.27,9.29-0.28,10.56-0.1C771.18,198.26,771.35,193.22,771.53,191.97z M775.4,144.67c0.17-2.07,0.8-5.74,0.97-7.81
		c0.47-5.51,2.99-24.8,4.02-25.07c0.92-0.24,3.15,22.73,3.11,27.11c-0.02,2.13,1.22,11.26,1.42,12.02
		c-0.49-0.48-10.42-0.37-10.61-0.31C774.2,150.18,775.32,145.68,775.4,144.67z"/>
	<path class="st1" d="M858.48,145.61c0.42,2.49,0.74,5.01,0.85,7.52c0.66,14.9,1.25,29.8,1.87,44.92
		c6.17,2.25,12.46,0.46,18.45,0.16c7.99-0.4,7.7,1.19,6.74-6.14c-0.2-1.5-0.04-3.04-0.1-4.57c-0.55-14.19-1-28.38-1.72-42.56
		c-0.32-6.41-2.84-13.8-10.41-17.76c0.32-0.3,3.43-1.95,4.32-2.85c4.53-4.54,6.25-9.87,6.19-16.02c-0.06-7.1,0.58-14.21,0.7-21.31
		c0.13-7.34,0.31-14.7-0.09-22.03c-0.34-6.2-4.13-9.87-10.77-11.87c-5.87-1.76-12.1-1.35-17.78-1.43c-11.18-0.15-23.22,0.28-34.54,0
		c-2.58-0.3-0.55,4.06-0.56,5.7c-0.04,8.6,0.19,17.2,0.4,25.8c0.24,9.62,0.37,24.85,0.48,34.47c0.02,1.83-2.33-0.76-3.55,0.6
		c-4.67,5.18-8.07,16.42-8.39,21.19c0.32,1.79,7.95,0.97,11.36,0.84c0.4,19.01,0.83,39.94,1.23,58.56
		c8.34,0.58,14.76-0.29,23.24,0.3c2.08-19.97,0.32-60.59,0-61.19C855.61,136.18,857.24,138.34,858.48,145.61z M848.03,116.73
		c-0.45-0.98,0.18-30.06,0.32-42.68c0.03-3.09,0.58-1.75,4.54-1.99c3.45-0.21,7.07,2.17,7.52,5.66c0.48,3.75,1.4,8.66,1.17,12.45
		c-0.39,6.57,0.21,11.94-0.32,18.51C860.59,116.96,857.96,116.24,848.03,116.73z"/>
	<path class="st1" d="M891.08,131.47c2.7,0,5.64,0.23,5.77,0.36c0.18,0.18-0.47,9.43-0.63,14.59c-0.16,5.25,0.28,10.49,0.28,15.73
		c0,5.17-0.55,11.11-0.19,16.16c0.42,5.92-0.18,12.61-0.54,17.3c-0.18,2.4,1.17,2.05,3.6,2.34c4.5,0.54,10.12,1.01,14.95,0.9
		c7.75-0.18,13.49,0.61,20.36,0.18c2.88-0.18,8.92-0.54,10.09-0.54c0.72,0,0.48-6.72,0.64-9.25c0.23-3.72-0.24-10.96-1-11.46
		c-0.54-0.36-8.64-0.58-11.64,0c-3.85,0.76-8.9-0.18-14.49-0.54c0-0.18,1.26-44.32,1.26-44.32c0.36-0.18,6.59-0.64,9.36-0.39
		c6.3,0.56,14.81,0.78,14.78,0.21c-0.18-3.06,0.9-20.9-0.72-21.26c-0.04,0.34-3.06,0.36-4.32,0.18c-4.14,0-8.48-0.25-14.1,0.26
		c-2.17,0.2-6.62-0.44-6.62-0.44c-0.18-0.18-0.18-5.56-0.18-8.11c0-7.21,0.06-13.05-0.18-19.28c-0.09-2.38-0.06-9.43,0.18-9.91
		c0.18-0.36,4.38-0.25,6.83-0.29c4.88-0.07,7.87-0.35,11.18-0.07c4.32,0.36,7.24-0.18,10.27-0.18c0.9,0,0.6-6.95,0.58-10.17
		c-0.03-3.43,0.32-10.91-0.76-11.09c-0.64-0.11-9.01-0.18-15.31,0c-1.55,0.04-7.35-0.02-8.88-0.08c-4.96-0.2-9.71,0.33-14.72,0.08
		c-3.08-0.16-8.83,0-10.81,0.18c-0.8,0.07-0.54,2.51-0.54,6.13c0,9.55,0.87,22.96,0,32.07c-0.36,3.78,0.17,6.09-0.09,8.52
		c-0.26,2.47,0.27,10.29,0.27,12.74c0,0.36-1.87,0.72-2.52,0.72C892.7,112.73,888.7,131.47,891.08,131.47z"/>
	<path class="st1" d="M1082.92,65.99c-0.4-4.06-0.5-10.69-4.38-13.14c-4.41-2.8-12.07-2.52-18.38-2.44
		c-3.31,0.04-9.19,0.1-14.6,0.28c-7.54,0.25-16.58,2.7-16.58,11.53c0,7.39-0.54,8.83-0.72,14.41c-0.06,1.87,0.39,55.43,0.49,75.08
		c0.04,8.73-0.1,17.28,0.23,26c0.36,9.37,1.44,14.77,3.78,17.3c3.03,3.26,13.09,4.31,19.46,4.14c7.75-0.2,14.23,0,20-1.44
		c11.05-2.76,10.09-8.11,10.27-23.78c0.05-4.28,0-12.79,0.18-16.04c0.07-1.21-14.33-0.98-18.74,0c-0.36,2.88-0.03,6.97,0.18,10.27
		c0.28,4.28,0.18,8.15-1.26,9.19c-2.01,1.46-4.32,1.08-7.57,1.26c-3.6-0.18-2.7-8.29-3.13-18.8c-0.79-19.68-0.62-39.4-0.5-59.09
		c0.03-4.71,0.02-9.85-0.16-14.71c-0.13-3.58,0.15-7.62,0.32-11.48c0.01-0.01,0.01-0.01,0.02-0.02c0.09-0.09,0.08-0.15-0.01-0.18
		c0.01-0.31,0.03-0.63,0.04-0.94c0.18-5.22,13.15-5.04,13.15-1.8c0.36,8.65-1.22,16.21,3.24,16.22c2.64,0,14.95,0.18,14.95-0.72
		C1082.87,85.64,1083.61,73.09,1082.92,65.99z"/>
	<path class="st1" d="M1113.21,51.96c-8.46,0.02-12.31-0.02-20.01,0c-7.1,0.6-4.84,2.09-5.45,15.48c-0.19,4.3,0.73,8.59,0.74,12.88
		c0.03,9.87-0.59,19.76-0.19,29.61c0.7,17.24-0.59,32.76-0.27,50.37c0.2,11.14-0.22,23.17-0.32,34.32c-0.04,4.83-0.43,4.18,4.2,4.48
		c5.21,0.33,12.26-0.9,19.37-0.3c1.89,0.56,2.07-4.08,2.03-10.23c-0.1-17.53-0.1-28.34-0.1-43.8c0-9.89,0.5-22.37,0.38-32.25
		c-0.18-14.41,0.27-26.98,0.27-41.47C1113.85,60.31,1116.3,50.63,1113.21,51.96z"/>
	<path class="st1" d="M1183.61,197.37c-0.19-0.12-2.14-13.75-2.46-17.62c-0.76-9.18-2.1-18.42-3.75-27.48
		c-0.85-4.64-1.73-9.29-1.87-14.02c-0.06-2.09-3.56-22-4.4-26.45c-1.37-7.23-1.56-12.99-2.81-21.89c-1-7.15-2.03-13.13-3.08-20.28
		c-0.53-3.6-1.16-7.96-1.8-11.53c-0.26-1.43-0.9-3.76-0.9-5.22c0-1.08-2.36-1.31-4.32-0.9c-0.55,0.11-6.31,0.54-10.13,0.29
		c-1.58-0.1-5.06-0.16-6.63,0.25c-2.35,0.6-5.47,33.32-6.29,39.5c-0.75,5.63-0.88,11.13-2.21,16.7c-1.29,5.38-2.33,10.82-2.98,16.31
		c-1.24,10.44-2.84,20.58-4.45,31.01c-1.74,11.29-2.95,22.64-4.57,33.93c-0.23,1.59-1.67,7.59-0.95,7.59c1.46,0,3.59,0.28,4.87,0.4
		c2.46,0.24,5.37,1,7.82,0.42c1.15-0.27,9.3-0.28,10.56-0.1c0.28-1,0.45-6.04,0.63-7.29c0.37-2.49,0.55-4.81,0.71-7.22
		c0.29-4.41,1.18-10.01,2.09-14.32c1.07,0.35,11.53-0.18,11.53,0.54c0,2.29,0.29,5.76,0.64,8.06c0.68,4.52,0.76,8.87,0.95,13.41
		c0.15,3.54,0.03,6.27,0.39,6.45c0.97,0.48,10.41,0.19,13.48,0.06c1.79-0.08,4.13-1.08,6.05-0.67
		C1180.92,197.55,1183.38,197.62,1183.61,197.37C1183.62,197.37,1183.62,197.37,1183.61,197.37z M1146.68,149.63
		c-0.12-0.43,1-4.93,1.08-5.95c0.17-2.07,0.8-5.74,0.97-7.81c0.47-5.51,2.99-24.8,4.02-25.07c0.92-0.24,3.15,22.73,3.11,27.11
		c-0.02,2.13,1.22,11.26,1.42,12.02C1156.8,149.45,1146.87,149.57,1146.68,149.63z"/>
	<path class="st1" d="M668.6,268.84c-0.1-8.13,0.09-16.26-0.42-24.38c-0.78-12.61,0.31-17.77-25.68-18.2
		c-3-0.05-6.15,0.02-8.96,0.11c-9.91,0.32-19.66-0.37-29.47,0.05c-9.29,0.4-14,4.56-15.08,11c-1.11,6.65-0.32,16.31-0.79,23
		c-0.82,11.76-0.79,23.82-0.79,35.82c0,12.88-0.18,27.12,0,40c0.12,8.33,0.5,16.74,0.79,25.07c0.24,6.92,2.32,11.04,11.02,11.04
		c4.33,0,10.63-1.15,12.99-0.9c5.25,0.56,6.9-0.7,12.21-0.57c9.4,0.23,20.35,0.31,29.9,0.87c5.12,0.3,13.05-4.29,13.38-9.55
		c0.39-6.27,0.94-11.53,1.11-15.78c0.45-11.66,0.31-23.34,0.25-35.01C668.99,297.22,668.77,283.03,668.6,268.84z M639.76,286.69
		c-0.56,17.7-0.93,31.55-1.57,49.25c-0.09,2.5,0.34,8.82,0,12.24c0,2.98-20.46,3.58-20.56,0.06c-2.75-10.4-1.79-93.93,1.67-102.44
		c0.39-2.09,8.3-1.01,11.21-0.84c4.67,0.27,9.36,1.24,9.26,5.02C639.44,261.64,640.12,275.04,639.76,286.69z"/>
	<path class="st1" d="M566.28,225.44c-15.35,0.3-21.25-2.09-21.25,0.9c-0.82,19.4,0.79,42.98-0.79,58.5
		c-5.03,0.19-11.79-0.18-16.53,0c-0.58-1.97,0.06-5.08,0.06-6.75c-0.02-8.36,0.08-16.73,0.35-25.09c0.25-7.61,0.92-15.21,1.1-22.82
		c0.12-4.95-1.22-5.05-5.84-5.03c-8.19,0.03-15.24-0.44-24.01,0c-6.3-0.3-3.15,4.78-3.4,34.95c-0.12,13.68,0.6,27.37,0.49,41.06
		c-0.16,19.54-0.38,43.24-0.24,62.78c0.05,6.26-1.79,7.17,1.57,7.16c8.08-0.1,10.33-0.51,17.32-0.6c0.67-0.01,6.81,0.05,7.48,0
		c5.23-0.39,5.31,1.02,5.12-2.98c-0.53-10.63-0.63-26.08-0.71-36.71c-0.05-6.75-0.78-14.17-0.08-21.19
		c4.97,0.02,11.2,0.71,16.16,0.73c-0.42,19.89,0.79,40.05,0.37,59.86c9,0.51,17.63,0.91,25.58,0.9c6.74-0.01,5.17,0.46,5.12-4.78
		c-0.16-16.5,0.12-35.42-0.08-51.92c-0.11-9.38-0.86-18.77-0.61-28.15c0.46-17.26,1.43-38.17,1.87-55.44
		C575.43,227.23,577.7,225.44,566.28,225.44z"/>
	<path class="st1" d="M747.5,228.35c-5.26-1.44-11.04-2.17-16.64-2.39c-7.31-0.29-14.69,0.4-22.03,0.37
		c-14.83-0.07-20.63,3.26-23.63,14.29c-0.73,2.7-0.87,5.53-0.89,8.3c-0.02,3.04,0.63,6.07,0.64,9.11
		c0.05,21.55-0.13,43.1,0.04,64.66c0.1,12.94,0.59,25.87,1.08,38.8c0.27,7.27,5,11.24,14.64,11.44c12.03,0.25,29.52,0.52,41.52-0.13
		c14.75-0.8,15.42,0.59,18.1-10.45c0.55-2.24,0.21-10.14,0.23-12.4c0.11-15.46,0.05-30.93,0.1-46.39c0.02-5.8-0.42-9.97-0.32-15.53
		c-0.21-4.35-26.76-3.28-38.96-2.39c-0.74,7.42-0.53,13.13-1.24,20.33c4.35,0.71,7.87,0.04,11.08,0.56
		c0.48,14.75,2.11,33.38-0.39,47.76c0.38,1.96-17.71,3.88-18.1-0.3c-0.12-6.68-0.98-18.75-0.79-24.77
		c0.67-21.05,0.55-40.02,1.35-61.07c0.19-5.07,0.07-10.18,0.79-15.21c0.63-4.45,3.81-6.02,9.75-5.77c6.03,0.24,8.42,1.99,8.53,6.64
		c0.06,2.49,0.33,5.09,0.05,7.96c-0.4,2.48,19.63,1.14,28.34,0.6c1.19-0.08,1.35-2.77,1.4-4.25c0.19-5.06,0.22-10.17-0.6-15.18
		C760.43,236.28,756.18,230.73,747.5,228.35z"/>
	<path class="st1" d="M338.43,224.78c-2.77-0.15-5.62-0.04-8.31,0.01c-8.98,0.15-17.95-0.43-26.92-0.35
		c-6.1,0.05-17.2-0.65-18.64,0.53c-0.88,0.72-0.21,18.46-0.13,23.51c0.13,7.39-0.09,16.67-0.33,24.05c-0.23,7.34-0.08,16.98,0,24.32
		c0.16,15.54,0.78,26.06,0.44,40.81c-0.17,7.24-0.86,15.04-0.64,23.15c0.05,1.89,0.22,8.47,0.22,9.91c0,1.08,4.09,1.08,6.56,1.18
		c13.45,0.53,27.17-0.51,40.64-0.63c10.86-0.1,20.69-2.59,22-12.81c0.92-7.2,1.02-12.37,1.32-19.64c0.3-7.39,0.06-17.83,0-25.22
		c-0.13-14.7-0.48-26.38-0.22-41.08c0.13-7.4,0.19-16.02,0.44-23.42c0.2-5.96,0.68-14.1-3.72-19.33
		C348.04,226.11,343.36,225.04,338.43,224.78z M328.05,339.91c0.07,2.29,0.31,3.73-0.2,6.01c-0.43,1.9-1.16,3.32-3.41,3.96
		c-0.9,0.26-1.62,0.78-2.54,1.02c-1.13,0.29-2.36,0.22-3.51,0.18c-3.88-0.14-6.91-0.6-7.26-0.58c-0.65-2.92-0.15-12.25-0.21-13.84
		c-0.52-12.13-0.38-24.04,0-36.21c0.26-8.27,0.44-52.79,0-56.21c-0.07-0.57,8.58-0.71,9.43-0.67c2.66,0.13,6.17-0.05,6.83,2.47
		c0.52,1.98,0.73,7.33,0.66,9.19c-0.88,21.8,0,37.47,0,58.38c0,6.85-0.07,12.84,0.31,18.11
		C328.32,334.17,327.98,337.46,328.05,339.91z M328.07,309.99c-0.32,0.13-0.32,0.07,0-0.2
		C328.39,309.79,328.39,309.86,328.07,309.99z"/>
	<path class="st1" d="M431.69,224.96c-0.78-0.11-10.98-0.18-18.67,0c-1.89,0.04-8.97-0.02-10.83-0.08
		c-6.05-0.2-11.84,0.33-17.95,0.08c-3.75-0.16-10.76,0-13.18,0.18c-0.98,0.07-0.66,2.51-0.66,6.13c0,9.55,1.06,22.96,0,32.07
		c-0.44,3.78,0.21,6.09-0.11,8.52c-0.32,2.47,0.33,10.29,0.33,12.74c0,0.36-2.28,0.72-3.08,0.72c-0.66,0-5.55,18.74-2.64,18.74
		c3.3,0,6.87,0.23,7.03,0.36c0.22,0.18-0.57,9.43-0.77,14.59c-0.2,5.25,0.34,10.49,0.34,15.73c0,5.17-0.67,11.11-0.23,16.16
		c0.52,5.92-0.22,12.61-0.66,17.3c-0.22,2.4,1.43,2.05,4.39,2.34c5.49,0.54,12.34,1.01,18.23,0.9c9.45-0.18,16.45,0.61,24.82,0.18
		c3.51-0.18,10.88-0.54,12.3-0.54c0.88,0,0.59-6.72,0.78-9.25c0.28-3.72-0.29-10.96-1.22-11.46c-0.66-0.36-10.53-0.58-14.19,0
		c-4.7,0.76-10.85-0.18-17.66-0.54c0-0.18,1.54-44.32,1.54-44.32c0.44-0.18,8.03-0.64,11.42-0.39c7.68,0.56,18.06,0.78,18.02,0.21
		c-0.22-3.06,1.1-20.9-0.88-21.26c-0.04,0.34-3.73,0.36-5.27,0.18c-5.05,0-10.34-0.25-17.19,0.26c-2.64,0.2-8.07-0.44-8.07-0.44
		c-0.22-0.18-0.22-5.56-0.22-8.11c0-7.21,0.07-13.05-0.22-19.28c-0.11-2.38-0.08-9.43,0.22-9.91c0.22-0.36,5.34-0.25,8.33-0.29
		c5.95-0.07,9.6-0.35,13.64-0.07c5.27,0.36,8.83-0.18,12.52-0.18c1.1,0,0.74-6.95,0.71-10.17
		C432.58,232.62,433.01,225.14,431.69,224.96z"/>
	<path class="st1" d="M845.4,353.21c-0.93-9.18-2.56-18.42-4.57-27.48c-1.03-4.64-2.11-9.29-2.28-14.02
		c-0.08-2.09-4.33-22-5.36-26.45c-1.67-7.23-1.91-12.99-3.42-21.89c-1.22-7.15-2.48-13.13-3.76-20.28c-0.64-3.6-1.41-7.96-2.2-11.53
		c-0.31-1.43-1.1-3.76-1.1-5.22c0-1.08-2.88-1.31-5.27-0.9c-0.67,0.11-7.69,0.54-12.35,0.29c-1.93-0.1-6.17-0.16-8.08,0.25
		c-2.87,0.6-13.2,67.02-14,72.51c-1.52,10.44-3.46,20.58-5.42,31.01c-2.12,11.29-3.6,22.64-5.57,33.93
		c-0.28,1.59-2.03,7.59-1.15,7.59c1.78,0,4.38,0.28,5.93,0.4c3,0.24,6.55,1,9.53,0.42c1.4-0.27,11.33-0.28,12.87-0.1
		c0.35-1,0.54-6.04,0.77-7.29c0.45-2.49,0.67-4.81,0.86-7.22c0.35-4.41,1.44-10.01,2.54-14.32c1.31,0.35,14.06-0.18,14.06,0.54
		c0,2.29,0.36,5.76,0.78,8.06c0.83,4.52,0.92,8.87,1.16,13.41c0.19,3.54,0.04,6.27,0.48,6.45c1.18,0.48,12.7,0.19,16.44,0.06
		c2.19-0.08,5.03-1.08,7.38-0.67c1.44,0.25,4.45,0.33,4.73,0.08c0,0,0,0,0,0C848.18,370.71,845.79,357.08,845.4,353.21z
		 M803.37,323.08c-0.15-0.43,1.22-4.93,1.32-5.95c0.21-2.07,0.97-5.74,1.19-7.81c0.57-5.51,3.64-24.8,4.91-25.07
		c1.12-0.24,3.84,22.73,3.79,27.11c-0.02,2.13,1.49,11.26,1.74,12.02C815.71,322.91,803.61,323.03,803.37,323.08z"/>
	<path class="st1" d="M947.05,360.98c-0.67-14.19-1.22-28.38-2.09-42.56c-0.39-6.41-3.47-13.8-12.69-17.76
		c0.39-0.3,4.18-1.95,5.27-2.85c5.52-4.54,7.62-9.87,7.55-16.02c-0.08-7.1,0.7-14.21,0.86-21.31c0.16-7.34,0.38-14.7-0.11-22.03
		c-0.41-6.2-5.04-9.87-13.13-11.87c-7.15-1.76-14.75-1.35-21.68-1.43c-13.64-0.15-28.31,0.28-42.11,0c-3.15-0.3-0.67,4.06-0.68,5.7
		c-0.05,8.6,0.23,17.2,0.49,25.8c0.3,9.62,0.46,24.85,0.58,34.47c0.02,1.83-2.84-0.76-4.33,0.6c-5.7,5.18-9.84,16.42-10.23,21.19
		c0.39,1.79,9.69,0.97,13.85,0.84c0.49,19.01,1.01,39.94,1.49,58.56c10.17,0.58,18-0.29,28.34,0.3c2.53-19.97,0.39-60.59,0-61.19
		c11.21-1.74,13.2,0.42,14.71,7.69c0.52,2.49,0.91,5.01,1.04,7.52c0.81,14.9,1.53,29.8,2.28,44.92c7.53,2.25,15.19,0.46,22.5,0.16
		c9.74-0.4,9.39,1.19,8.22-6.14C946.93,364.04,947.12,362.5,947.05,360.98z M916.91,263.64c-0.47,6.57,0.26,11.94-0.39,18.51
		c-0.82,8.29-4.03,7.58-16.14,8.06c-0.55-0.98,0.22-30.06,0.39-42.68c0.04-3.09,0.71-1.75,5.53-1.99c4.21-0.21,8.63,2.17,9.17,5.66
		C916.06,254.94,917.19,259.86,916.91,263.64z"/>
</g>
</svg>
