<svg width="526" height="622" viewBox="0 0 526 622" fill="none" xmlns="http://www.w3.org/2000/svg">
<path d="M524.521 60.7459C525.339 49.7695 517.134 40.1952 506.162 39.3228L22.6199 0.877946C10.2713 -0.103854 0.00906849 10.2617 1.11459 22.5999L44.409 505.788C45.313 515.877 53.6173 523.698 63.7425 523.995L325.941 531.69L393.28 533.666L469.966 535.917C480.657 536.23 489.702 528.077 490.497 517.411L524.521 60.7459Z" fill="white"/>
<path d="M325.941 531.69L432.013 621L393.28 533.666L325.941 531.69Z" fill="white"/>
<path d="M432.013 621L431.691 621.383L432.47 620.797L432.013 621ZM63.7425 523.995L63.7278 524.495L63.7425 523.995ZM469.966 535.917L469.951 536.416L469.966 535.917ZM524.521 60.7459L525.02 60.7831L524.521 60.7459ZM22.5803 1.37637L506.122 39.8213L506.201 38.8244L22.6595 0.379519L22.5803 1.37637ZM524.023 60.7088L489.998 517.374L490.996 517.448L525.02 60.7831L524.023 60.7088ZM44.907 505.744L1.61259 22.5553L0.61658 22.6445L43.911 505.833L44.907 505.744ZM325.956 531.19L63.7571 523.495L63.7278 524.495L325.927 532.19L325.956 531.19ZM432.335 620.618L326.263 531.307L325.619 532.072L431.691 621.383L432.335 620.618ZM325.927 532.19L393.266 534.166L393.295 533.166L325.956 531.19L325.927 532.19ZM393.266 534.166L469.951 536.416L469.98 535.417L393.295 533.166L393.266 534.166ZM391.947 531.892L392.823 533.869L393.737 533.463L392.861 531.487L391.947 531.892ZM392.823 533.869L431.556 621.203L432.47 620.797L393.737 533.463L392.823 533.869ZM43.911 505.833C44.8376 516.174 53.3495 524.19 63.7278 524.495L63.7571 523.495C53.8851 523.205 45.7884 515.581 44.907 505.744L43.911 505.833ZM489.998 517.374C489.224 527.773 480.404 535.723 469.98 535.417L469.951 536.416C480.909 536.738 490.181 528.381 490.996 517.448L489.998 517.374ZM506.122 39.8213C516.82 40.6718 524.82 50.0067 524.023 60.7088L525.02 60.7831C525.858 49.5322 517.448 39.7186 506.201 38.8244L506.122 39.8213ZM22.6595 0.379519C10.0022 -0.626826 -0.516574 9.99791 0.61658 22.6445L1.61259 22.5553C0.534711 10.5256 10.5404 0.419118 22.5803 1.37637L22.6595 0.379519Z" fill="white"/>
</svg>
