<svg width="32" height="32" viewBox="0 0 32 32" fill="none" xmlns="http://www.w3.org/2000/svg">
<rect width="32" height="32" fill="#E5E5E5"/>
<rect width="288" height="1117" transform="translate(-219 -178)" fill="white"/>
<circle cx="16" cy="16" r="16" fill="#EA8329"/>
<path d="M17.5 24H11.5C11.2348 24 10.9804 23.8946 10.7929 23.7071C10.6054 23.5196 10.5 23.2652 10.5 23V9C10.5 8.73478 10.6054 8.48043 10.7929 8.29289C10.9804 8.10536 11.2348 8 11.5 8H16.5V11C16.5 11.7956 16.8161 12.5587 17.3787 13.1213C17.9413 13.6839 18.7044 14 19.5 14H22.5V19C22.5 19.2652 22.6054 19.5196 22.7929 19.7071C22.9804 19.8946 23.2348 20 23.5 20C23.7652 20 24.0196 19.8946 24.2071 19.7071C24.3946 19.5196 24.5 19.2652 24.5 19V13C24.5 13 24.5 13 24.5 12.94C24.4896 12.8481 24.4695 12.7576 24.44 12.67V12.58C24.3919 12.4772 24.3278 12.3827 24.25 12.3V12.3L18.25 6.3C18.1673 6.22222 18.0728 6.15808 17.97 6.11C17.9369 6.10421 17.9031 6.10421 17.87 6.11C17.7728 6.058 17.6683 6.02092 17.56 6H11.5C10.7044 6 9.94129 6.31607 9.37868 6.87868C8.81607 7.44129 8.5 8.20435 8.5 9V23C8.5 23.7956 8.81607 24.5587 9.37868 25.1213C9.94129 25.6839 10.7044 26 11.5 26H17.5C17.7652 26 18.0196 25.8946 18.2071 25.7071C18.3946 25.5196 18.5 25.2652 18.5 25C18.5 24.7348 18.3946 24.4804 18.2071 24.2929C18.0196 24.1054 17.7652 24 17.5 24ZM18.5 9.41L21.09 12H19.5C19.2348 12 18.9804 11.8946 18.7929 11.7071C18.6054 11.5196 18.5 11.2652 18.5 11V9.41ZM13.5 18H19.5C19.7652 18 20.0196 17.8946 20.2071 17.7071C20.3946 17.5196 20.5 17.2652 20.5 17C20.5 16.7348 20.3946 16.4804 20.2071 16.2929C20.0196 16.1054 19.7652 16 19.5 16H13.5C13.2348 16 12.9804 16.1054 12.7929 16.2929C12.6054 16.4804 12.5 16.7348 12.5 17C12.5 17.2652 12.6054 17.5196 12.7929 17.7071C12.9804 17.8946 13.2348 18 13.5 18ZM17.5 20H13.5C13.2348 20 12.9804 20.1054 12.7929 20.2929C12.6054 20.4804 12.5 20.7348 12.5 21C12.5 21.2652 12.6054 21.5196 12.7929 21.7071C12.9804 21.8946 13.2348 22 13.5 22H17.5C17.7652 22 18.0196 21.8946 18.2071 21.7071C18.3946 21.5196 18.5 21.2652 18.5 21C18.5 20.7348 18.3946 20.4804 18.2071 20.2929C18.0196 20.1054 17.7652 20 17.5 20ZM13.5 14H14.5C14.7652 14 15.0196 13.8946 15.2071 13.7071C15.3946 13.5196 15.5 13.2652 15.5 13C15.5 12.7348 15.3946 12.4804 15.2071 12.2929C15.0196 12.1054 14.7652 12 14.5 12H13.5C13.2348 12 12.9804 12.1054 12.7929 12.2929C12.6054 12.4804 12.5 12.7348 12.5 13C12.5 13.2652 12.6054 13.5196 12.7929 13.7071C12.9804 13.8946 13.2348 14 13.5 14ZM27.21 20.29C27.117 20.1963 27.0064 20.1219 26.8846 20.0711C26.7627 20.0203 26.632 19.9942 26.5 19.9942C26.368 19.9942 26.2373 20.0203 26.1154 20.0711C25.9936 20.1219 25.883 20.1963 25.79 20.29L22.5 23.59L21.21 22.29C21.1168 22.1968 21.0061 22.1228 20.8842 22.0723C20.7624 22.0219 20.6319 21.9959 20.5 21.9959C20.3681 21.9959 20.2376 22.0219 20.1158 22.0723C19.9939 22.1228 19.8832 22.1968 19.79 22.29C19.6968 22.3832 19.6228 22.4939 19.5723 22.6158C19.5219 22.7376 19.4959 22.8681 19.4959 23C19.4959 23.1319 19.5219 23.2624 19.5723 23.3842C19.6228 23.5061 19.6968 23.6168 19.79 23.71L21.79 25.71C21.883 25.8037 21.9936 25.8781 22.1154 25.9289C22.2373 25.9797 22.368 26.0058 22.5 26.0058C22.632 26.0058 22.7627 25.9797 22.8846 25.9289C23.0064 25.8781 23.117 25.8037 23.21 25.71L27.21 21.71C27.3037 21.617 27.3781 21.5064 27.4289 21.3846C27.4797 21.2627 27.5058 21.132 27.5058 21C27.5058 20.868 27.4797 20.7373 27.4289 20.6154C27.3781 20.4936 27.3037 20.383 27.21 20.29V20.29Z" fill="white"/>
</svg>
