<svg width="32" height="32" viewBox="0 0 32 32" fill="none" xmlns="http://www.w3.org/2000/svg">
<rect width="32" height="32" fill="#E5E5E5"/>
<rect width="288" height="1117" transform="translate(-219 -119)" fill="white"/>
<circle cx="16" cy="16" r="16" fill="#EA8329"/>
<path d="M25.6601 13.25L16.6601 5.25002C16.4776 5.0897 16.243 5.00128 16.0001 5.00128C15.7572 5.00128 15.5226 5.0897 15.3401 5.25002L6.34012 13.25C6.18715 13.3853 6.07929 13.5642 6.03102 13.7627C5.98275 13.9611 5.99639 14.1696 6.07012 14.36C6.14264 14.548 6.27022 14.7096 6.43617 14.8238C6.60211 14.938 6.79868 14.9994 7.00012 15H8.00012V24C8.00012 24.2652 8.10548 24.5196 8.29301 24.7071C8.48055 24.8947 8.7349 25 9.00012 25H23.0001C23.2653 25 23.5197 24.8947 23.7072 24.7071C23.8948 24.5196 24.0001 24.2652 24.0001 24V15H25.0001C25.2016 14.9994 25.3981 14.938 25.5641 14.8238C25.73 14.7096 25.8576 14.548 25.9301 14.36C26.0038 14.1696 26.0175 13.9611 25.9692 13.7627C25.921 13.5642 25.8131 13.3853 25.6601 13.25V13.25ZM17.0001 23H15.0001V20C15.0001 19.7348 15.1055 19.4804 15.293 19.2929C15.4805 19.1054 15.7349 19 16.0001 19C16.2653 19 16.5197 19.1054 16.7072 19.2929C16.8948 19.4804 17.0001 19.7348 17.0001 20V23ZM22.0001 23H19.0001V20C19.0001 19.2044 18.684 18.4413 18.1214 17.8787C17.5588 17.3161 16.7958 17 16.0001 17C15.2045 17 14.4414 17.3161 13.8788 17.8787C13.3162 18.4413 13.0001 19.2044 13.0001 20V23H10.0001V15H22.0001V23ZM9.63012 13L16.0001 7.34002L22.3701 13H9.63012Z" fill="white"/>
</svg>
