<svg width="510" height="622" viewBox="0 0 510 622" fill="none" xmlns="http://www.w3.org/2000/svg">
<path d="M489.178 57.3705C488.741 47.3272 480.918 39.1685 470.901 38.3115L32.7434 0.822346C21.2167 -0.163894 11.2599 8.80604 11.042 20.3729L1.3968 532.388C1.18107 543.84 10.6087 553.134 22.0564 552.754L114.498 549.687L195.269 547.007L489.805 537.236C500.925 536.867 509.606 527.494 509.123 516.378L489.178 57.3705Z" fill="white"/>
<path d="M114.498 549.687L46.2599 621L195.269 547.007L114.498 549.687Z" fill="white"/>
<path d="M114.498 549.687L114.481 549.187L114.498 549.687ZM46.2599 621L45.8987 620.654L46.4823 621.448L46.2599 621ZM22.0564 552.754L22.0399 552.254L22.0564 552.754ZM509.123 516.378L508.623 516.4L509.123 516.378ZM489.805 537.236L489.821 537.735L489.805 537.236ZM489.178 57.3705L489.677 57.3488L489.178 57.3705ZM32.7434 0.822346L32.7008 1.32053L32.7434 0.822346ZM32.7008 1.32053L470.859 38.8097L470.944 37.8133L32.786 0.324166L32.7008 1.32053ZM488.678 57.3922L508.623 516.4L509.622 516.357L489.677 57.3488L488.678 57.3922ZM1.89671 532.398L11.5419 20.3823L10.5421 20.3634L0.896891 532.379L1.89671 532.398ZM114.481 549.187L22.0399 552.254L22.073 553.254L114.515 550.187L114.481 549.187ZM114.137 549.341L45.8987 620.654L46.6212 621.346L114.859 550.033L114.137 549.341ZM489.788 536.736L195.253 546.508L195.286 547.507L489.821 537.735L489.788 536.736ZM195.253 546.508L114.481 549.187L114.515 550.187L195.286 547.507L195.253 546.508ZM46.4823 621.448L195.492 547.455L195.047 546.559L46.0375 620.552L46.4823 621.448ZM0.896891 532.379C0.675768 544.117 10.3391 553.643 22.073 553.254L22.0399 552.254C10.8783 552.624 1.68638 543.563 1.89671 532.398L0.896891 532.379ZM508.623 516.4C509.094 527.238 500.63 536.376 489.788 536.736L489.821 537.735C501.219 537.357 510.117 527.75 509.622 516.357L508.623 516.4ZM470.859 38.8097C480.625 39.6453 488.253 47.6 488.678 57.3922L489.677 57.3488C489.23 47.0544 481.211 38.6918 470.944 37.8133L470.859 38.8097ZM32.786 0.324166C20.9711 -0.68673 10.7654 8.50745 10.5421 20.3634L11.5419 20.3823C11.7543 9.10462 21.4622 0.358942 32.7008 1.32053L32.786 0.324166Z" fill="white"/>
</svg>
