<svg width="32" height="32" viewBox="0 0 32 32" fill="none" xmlns="http://www.w3.org/2000/svg">
<rect width="32" height="32" fill="#E5E5E5"/>
<rect width="288" height="1117" transform="translate(-219 -355)" fill="white"/>
<circle cx="16" cy="16" r="16" fill="#EA8329"/>
<path d="M11 11C10.8022 11 10.6089 11.0586 10.4444 11.1685C10.28 11.2784 10.1518 11.4346 10.0761 11.6173C10.0004 11.8 9.98063 12.0011 10.0192 12.1951C10.0578 12.3891 10.153 12.5673 10.2929 12.7071C10.4327 12.847 10.6109 12.9422 10.8049 12.9808C10.9989 13.0194 11.2 12.9996 11.3827 12.9239C11.5654 12.8482 11.7216 12.72 11.8315 12.5556C11.9414 12.3911 12 12.1978 12 12C12 11.7348 11.8946 11.4804 11.7071 11.2929C11.5196 11.1054 11.2652 11 11 11ZM11 15C10.8022 15 10.6089 15.0586 10.4444 15.1685C10.28 15.2784 10.1518 15.4346 10.0761 15.6173C10.0004 15.8 9.98063 16.0011 10.0192 16.1951C10.0578 16.3891 10.153 16.5673 10.2929 16.7071C10.4327 16.847 10.6109 16.9422 10.8049 16.9808C10.9989 17.0194 11.2 16.9996 11.3827 16.9239C11.5654 16.8482 11.7216 16.72 11.8315 16.5556C11.9414 16.3911 12 16.1978 12 16C12 15.7348 11.8946 15.4804 11.7071 15.2929C11.5196 15.1054 11.2652 15 11 15ZM21 15H15C14.7348 15 14.4804 15.1054 14.2929 15.2929C14.1054 15.4804 14 15.7348 14 16C14 16.2652 14.1054 16.5196 14.2929 16.7071C14.4804 16.8946 14.7348 17 15 17H21C21.2652 17 21.5196 16.8946 21.7071 16.7071C21.8946 16.5196 22 16.2652 22 16C22 15.7348 21.8946 15.4804 21.7071 15.2929C21.5196 15.1054 21.2652 15 21 15ZM21 11H15C14.7348 11 14.4804 11.1054 14.2929 11.2929C14.1054 11.4804 14 11.7348 14 12C14 12.2652 14.1054 12.5196 14.2929 12.7071C14.4804 12.8946 14.7348 13 15 13H21C21.2652 13 21.5196 12.8946 21.7071 12.7071C21.8946 12.5196 22 12.2652 22 12C22 11.7348 21.8946 11.4804 21.7071 11.2929C21.5196 11.1054 21.2652 11 21 11ZM23 6H9C8.20435 6 7.44129 6.31607 6.87868 6.87868C6.31607 7.44129 6 8.20435 6 9V19C6 19.7956 6.31607 20.5587 6.87868 21.1213C7.44129 21.6839 8.20435 22 9 22H20.59L24.29 25.71C24.3834 25.8027 24.4943 25.876 24.6161 25.9258C24.7379 25.9755 24.8684 26.0008 25 26C25.1312 26.0034 25.2613 25.976 25.38 25.92C25.5626 25.845 25.7189 25.7176 25.8293 25.5539C25.9396 25.3901 25.999 25.1974 26 25V9C26 8.20435 25.6839 7.44129 25.1213 6.87868C24.5587 6.31607 23.7956 6 23 6ZM24 22.59L21.71 20.29C21.6166 20.1973 21.5057 20.124 21.3839 20.0742C21.2621 20.0245 21.1316 19.9992 21 20H9C8.73478 20 8.48043 19.8946 8.29289 19.7071C8.10536 19.5196 8 19.2652 8 19V9C8 8.73478 8.10536 8.48043 8.29289 8.29289C8.48043 8.10536 8.73478 8 9 8H23C23.2652 8 23.5196 8.10536 23.7071 8.29289C23.8946 8.48043 24 8.73478 24 9V22.59Z" fill="white"/>
</svg>
