<?xml version="1.0" encoding="utf-8"?>
<!-- Generator: Adobe Illustrator 26.0.3, SVG Export Plug-In . SVG Version: 6.00 Build 0)  -->
<svg version="1.1" xmlns="http://www.w3.org/2000/svg" xmlns:xlink="http://www.w3.org/1999/xlink" x="0px" y="0px"
	 viewBox="0 0 1224 792" style="enable-background:new 0 0 1224 792;" xml:space="preserve">
<style type="text/css">
	.st0{fill:#283981;}
	.st1{fill:#EA8328;}
</style>
<g id="Layer_2">
	<g>
		<path class="st0" d="M533.94,368.76c3.19,4.59,8.8,9.21,13.91,11.35c5.55,2.32,12.83,5.21,18.92,5.03
			c-0.24,0.01,4.1,7.85,4.69,8.57c2.33,2.77,5.65,5.67,9.03,7.08c7.06,2.93,18.33,2.35,25.54-0.06c3.55-1.19,8.66-4.11,11.18-6.63
			c0.74-0.74,5.22,0.72,9.72,2.07c7.55,2.26,14.81,3.06,22.23,5.5c7.61,2.51,15.03,2.27,21.99-2.08c3.77-2.36,6.83-7.62,7.08-7.71
			c2.79-1.03,7.07-1.83,10.87-2.47c8.13-1.37,18.47-4.74,23.85-11.48c2.49-3.13,5.8-7.3,5.8-7.3c2.96-0.74,10.37-1.72,14.07-2.22
			c7.84-1.04,15.33-3.71,20.63-10.09c9.27-11.16,7.79-18.08,8.53-18.58c0,0,13.09-2.47,20.51-15.92c4.17-7.56,1.61-15.15,0.6-23.13
			c-0.67-5.29-1.1-6.41-1.1-6.41c3.11-2.04,11.4-6.5,14.95-7.6c14.97-4.63,27.82-14.13,42.47-20.22c7.02-2.91,14.46-4.14,21.41-7.22
			c7.17-3.17,14.27-6.82,21.71-9.33c14.43-4.88,29.17-9.34,43.36-14.54c14.42-5.29,30.11-7.24,44.51-13.66
			c2.97-1.32,9.55-1.89,7.47-6.27c-18.92,2.21-37.59,10.24-55.87,15.25c-18.51,5.07-36.3,13.16-54.15,19.39
			c-8.93,3.11-15.55,6.18-24.09,10.11c-4.27,1.96-10.64,4.67-14.9,6.6c-4.96,2.25-9.19,2.84-13.56,6.48
			c-7.03,5.85-29.99,12.98-37.99,17.55c-3.46,1.98-5.54,2.75-14.73-0.68c-9.11-3.41-16.81-9.42-25.02-14.33
			c-4.13-2.47-8.07-5.57-11.97-8.54c-3.91-2.97-8.18-5.11-11.77-8.16c-1.53-1.3-2.82-3.03-4.4-4.17c12.07,2.15,31.78-4.01,42.7-9.33
			c-6.42,0.49-19.72,1.83-26.41,3.02c-4.63,0.82-8.18,1.65-12.97,0.63c-3.71-0.79-9.43-1.26-12.58-2.96
			c-7.28-3.93-12.43-12.63-19.18-17.49c-6.5-4.69-11.08-9.25-18.81-11.64c-11.22-3.46-21.53-9.86-32.9-12.86
			c-6.45-1.7-12.23-0.11-13.6-7.22c-0.93-4.84,0.81-15.23-3.88-16.46c-1.73,2.72-0.31,6.34,0.03,11.09
			c0.36,4.91-0.08,7.29-2.26,11.83c-5.25,10.88-14.93,20.14-26.31,24.34c-8.74,3.22-27.8,5.61-28.54-6.49
			c5.49-1.54,11.37,1.59,17.29,0.74c3.46-0.49,6.41-7.36,7.19-12.12c2.09-12.7,4.89-23.17-8.94-28.6
			c2.79-5.72,2.52-11.48,7.78-15.49c9.33-7.11,22.01-9.36,32.66-13.18c5.19-1.86,9.92-7.67,15.33-8.69
			c5.21-0.99,14.59,2.91,18.95,5.17c14.42,7.46,28.67,13.97,44.47,17.88c15.89,3.93,34.76,8.25,51.13,5.04
			c7.63-1.5,14.25-5.81,20.65-10.02c7.08-4.66,13.57-6.52,21.88-7.88c16.99-2.78,30.95-12.73,45.44-21.46
			c17.31-10.43,34.16-21.52,51.06-32.6c8.24-5.4,16.59-10.57,25.22-15.33c5.94-3.27,12.76-6.7,14.44-13.89
			c-17.21,0.67-34.56,17.46-47.07,27.83c-7.64,6.34-17.46,10.63-25.87,16.02c-8.73,5.59-17.78,10.8-26.4,16.53
			c-8.7,5.78-16.28,11.13-26.38,14.29c-10.48,3.28-21.22,5.75-31.49,9.7c-10.09,3.88-19.82,10.29-30.68,11.81
			c-10.19,1.42-21.27-1.67-31.3-3.34c-14.23-2.37-27.63-5.49-40.66-11.42c-9.91-4.52-20.04-12.9-31.23-13.44
			c-3.28-0.16-7.89,0.66-10.79,2.04c-3.88,1.84-5.45,5.53-9.8,5.48c-3.44-0.04-6.66-2.79-9.78-4.09c-3.49-1.45-6.98-2.15-10.76-2.73
			c-27-4.11-52.45,11.2-77.91,17.21c-1.69,0.4-3.38,0.74-5.06,1.16c-1.75-3.34-3.4-8.58-8.41-12.25c-4.27-3.13-8.76-4.8-13.64-6.59
			c-17.54-6.43-34.22-14.58-51.19-22.46c-5.81-2.7-9.16-1.19-12.19-7.43c-4.95-10.17-13.71-15.79-22.72-22.58
			c-8.97-6.76-17.83-15.37-25.72-23.41c-9.22-9.38-18.32-19.38-28.17-28.38c-5.38-4.91-9.26-11.45-16.49-13.65
			c-0.99,7.18,10.81,14.56,15.54,18.62c5.89,5.06,12.05,9.91,17.23,15.73c8.08,9.06,16.06,18.07,25.1,26.45
			c9.28,8.61,39.42,25.2,32.38,40.76c-3.36,7.44-8.8,14.62-13.24,21.62c-14.92-5.85-30.99-12.11-44.01-21.4
			c-3.32-2.37-7.14-3.99-10.65-6.08c-4-2.38-7.66-5.24-11.61-7.7c-2.91-1.81-10.41-6.06-6.88-0.37c1.96,3.16,8.56,6.23,11.6,8.22
			c4.68,3.06,9.32,6.03,13.86,9.31c6.25,4.51,12.81,7.51,19.56,11.06c8.12,4.27,16.49,8.24,24.65,12.6
			c-4.65,9.97-7.69,20.39-12.97,30.2c-8.9-1.44-19.03-2.45-27.4-5.97c-8.69-3.66-16.62-7.84-24.65-12.29
			c-2.13-1.18-4.74-1.43-6.91-2.51c-4.65-2.32-8.28-6.28-13.77-6.72c-0.42,11.66,24.17,17.78,32.52,21.17
			c8.02,3.26,15.89,7.12,24.36,9.08c4.52,1.05,9.18,1.96,13.76,2.69c-1.1,9.45-5.03,19.59-7.64,28.79
			c-3.87,13.61-8.5,28.59-6.81,42.88c-14.31-2.12-28.44-0.52-42.92-2.69c-15.95-2.39-32.11-2.01-47.67-5.68
			c-6.17-1.46-12.54-0.68-18.77-1.54c-5.92-0.82-12.12-4.61-18.15-3.38c-0.57,2.66,0.6,4.62,2.76,6.06
			c6.55,4.38,22.26,4.02,26.55,4.17c14.34,0.51,28.55,3.67,42.87,4.89c13.13,1.12,26.13,2.03,39.26,2.34
			c5.88,0.14,11.69-1.07,17.19,1.56c10.36,4.97,19.35,10.97,30.23,14.89c10.36,3.74,20.67,10.83,30.73,15.66
			c4.77,2.29,11.02,7.58,16.28,7.83c5.22,0.24,12.71-7.3,14.55-11.86c0.65,0.07,1.71,0.46,2.28,0.79c0.76,4.14-2.72,7.9-2.55,12.3
			c0.14,3.61,1.01,8.05,3.02,10.93c4.56,6.53,13.07,11.1,19.96,14.66c4.61,2.39,8.45,3.12,13.6,3.03
			c0.35,13.44,13.41,19.35,23.71,24.2C528.4,358.37,530.5,363.83,533.94,368.76z M561.64,380.19c-2.8,0.14-8.14-3.04-10.76-4.34
			c-4.11-2.04-7.59-4.99-11.08-7.93l-3.96-5.32l-1.55-6.28c0,0,2.5-1.13,2.7-1.22c5.62-2.55,9.74-7.45,13.22-12.38
			c2.36-3.35,4.29-8.69,7.18-11.53c0,0,4.54-4.46,4.54-4.46l5.81-2.72l5.51-0.91l1.21-0.16l6.38,1.02l5.5,3.11l2.21,1.45l3.39,2.52
			l1.22,2.98l0.32,1.13l0.29,0.66l-0.2-0.09l-1.82-1.15c0,0-0.65-0.65-0.65-0.65c-4.01-3.13-7.86-5.95-12.87-7.27
			c-6.07-1.6-9.02,0.19-12.93,4.48c-5.16,5.66-6.14,15.79-6.61,24.78c-0.2,3.82,2.84,8.73,5.63,11.3
			c3.86,3.54,11.45,0.11,15.09-2.59c3.19-2.37,5.37-6.5,8.16-9.37c0,0,1.88-1.93,1.88-1.93l2.1-1.96l-1.8,3.48l-1.21,2.18
			c0,0-0.99,2.4-0.99,2.4c-2.1,3.98-4.3,7.74-7.31,11.12C574.83,376.57,569.91,379.79,561.64,380.19z M599.56,361.56
			c2.2,0.8,5,2.44,5.08,4.88c0.02,0.56,0.53,2.64,0.47,3.19c-0.25,2.47-0.88,3.05-1.48,4.45c-0.78,1.8-1.87,3.76-2.96,5.44
			c-2.08,3.18-5.65,5.34-9.14,6.67c-2.16,0.82-4.15-1.43-6.55-2c-2.9-0.69,4.2-15.98,4.81-17.4c1.08-2.49,1.68-3.29,3.8-4.98
			C596.06,359.83,596.48,360.44,599.56,361.56z M590.66,343.14c-0.37,3.17-1.59,5.79-3.98,7.93c-2.54,2.28-3.59,4.76-5.71,7.25
			c-1.12,1.32-3.76,2.99-6.13,3.99c-1.04,0.44-2.03,0.75-2.83,0.85c-12.65,1.59-9.18-16.05-6.28-22.48c1.05-2.33,1.79-6.36,3.3-8.27
			c2.09-2.64,5.69-0.78,8.25-0.01C582.39,333.94,591.43,336.49,590.66,343.14z M610.86,393.84c-0.24-0.08-3.04,2.41-3.66,2.71
			c-4.61,2.23-10.25,1.4-15.13,2.02c-3.62,0.46-6.23-0.16-9.53-1.85c-1.81-0.93-6.76-2.73-8.06-4.36
			c-4.04-5.08-2.25-9.09,2.72-13.34l2.64-1.47c0,0-0.05,0.36-0.06,0.36c-0.31,2.02-0.9,7.52,1.96,8.64c0,0,4.39,1.72,4.39,1.72
			s1.42,0.28,1.42,0.28c6.95,1.36,12.55-2.92,16.35-8.33c4.76-6.77,6.83-12.51,1.33-19.6c-1.37-1.77-3.07-2.87-4.89-4.19
			c6.27,0.32,10.4,6.95,10.88,12.65c0,0,0.05,0.63,0.05,0.63c-0.01,3.87,0.01,7.64,0.86,11.42l-0.06,0.3l0.18,5.53
			c-0.83,1.8-1.56,4.58-3.1,5.93C609.75,393.07,610.27,393.66,610.86,393.84z M576.21,190.26c0.99,1.98,0.84,3.8,0.99,4.94
			c0.17,1.35-0.22,4.33-0.25,5.68c-0.06,2.38-0.21,4.84-0.74,7.16c-0.48,2.11-1.41,5.16-2.62,6.89c-1.48,2.11-1.75,3.91-4.29,4.23
			c-0.52,0.07-3.36-0.57-3.86-0.57c-1.26-0.01-10.72-1.5-11.05-0.41c2.73-8.86,7.39-17.49,11.06-26.07c1.17-2.73,1.76-5.14,4.1-7.04
			C571.46,184.66,574.89,187.63,576.21,190.26z M430.2,288.01c-7.99-5.02-16.41-8.49-25.02-12.23c-10.43-4.53-32.26-9.77-30.8-24.63
			c0.51-5.16,2.07-10.08,2.42-15.29c0.34-5.08,2.24-9.9,2.73-14.97c0.1-0.99,0.21-1.97,0.34-2.93c0.62-4.51,1.65-8.78,3.34-13.15
			c2.53-6.57,4.02-13.54,7.1-19.89c3.2-6.59,4.82-13.33,7.15-20.23c1.03-3.05,2.33-6.02,3.81-8.88c1.2-2.32,3.24-4.03,4.62-6.22
			c1.71-2.72,2.5-5.91,4.22-8.63c1.7-2.7,3.01-5.1,4.2-8.09c1.25-3.14,3.67-5.64,5.83-8.17c1.07-1.25,2.05-2.58,3.12-3.83
			c1.69-1.98,1.83-1.8,4.27-0.68c6.26,2.87,12.01,6.67,18.12,9.83c6.25,3.23,13.01,5.26,19.37,8.27c7,3.31,14.52,5.12,21.43,8.58
			c4.54,2.27,11.32,5.31,11.52,11.25c-4.78-0.82-11.37-1.09-15.65-3.33c1.66-4.36,6.64-1.02,9.72-2.22
			c-3.82-2.4-6.96-5.47-11.63-2.28c-4.33,2.95-6.24,9.67-9.1,13.91c-7.22,10.72-9.53,23.55-13.23,35.62
			c-1.8,5.88-4.88,11.07-6.02,17.17c-0.96,5.16-3.17,9.92-4.03,15.15c-1.97,11.95-4.78,23.7-5.53,35.78
			c-0.43,6.93,1.11,12.79,2.25,19.54c0.79,4.68,3.17,7.22,8.14,8.29C445.2,298.31,436.3,291.84,430.2,288.01z M456.62,289.1
			l-0.99,2.28l-0.22,0.33l-2.08,3.44l-0.5-0.81l-2.07-1.96l-2.07-2.56l-0.44-3.38l0.01-2.15l1.51,0.62l2.71,1.11l2.91,0.75
			l2.01,0.41L456.62,289.1z M465.05,284.79c-6.61-0.93-11.04-5.18-17.28-6.38c-1.89-16.63,4.27-33.03,6.22-49.33
			c1.87-15.61,10.22-30.64,15.53-45.4c2.18-6.06,7.15-20.09,11.31-25.29c0.99-1.24,15.59,3.17,22.22,3.49
			c7.69,0.38,16.07-3.03,23.71-4.71c7.92-1.74,15.68-4.89,23.51-7.09c16.9-4.73,30.72-8.96,47.42-1.77c1.8,0.77,3.8,1.28,5.65,1.94
			c-9.06,2.75-17.48,5.74-25.46,10.84c-6.19,3.96-8.28,8.08-9.82,13.23c-0.85,2.84-1.54,5.99-2.66,9.6
			c-4.16,13.37-26.4,37.76-8.51,48.72c17.46,10.69,36.33-2.28,48.7-14.86c2.46-2.5,3.98-7.29,6.61-9.36
			c3.05-2.39,6.71-1.03,10.25-0.15c13.96,3.46,29.5,8.14,41.93,15.45c12.51,7.36,23.41,17.99,34.24,27.71
			c10.74,9.64,21.66,19.72,34.22,26.81c12.17,6.87,25.25,18.11,39.71,19.12c1.87,0.13,3.78,0.1,5.65,0.11
			c1.7,9.96,3.6,19.68-2.45,28.49c-5.77,8.38-14.65,8.11-24.26,8.2c-10.51,0.1-19.29,1.03-28.52-4.8
			c-8.06-5.09-15.86-11.07-24.74-14.72c-9.6-3.95-19.9-11.48-30.38-7.47c11.91,4.47,22.44,10.74,33.75,16.36
			c11.74,5.83,21.4,14.57,34.52,15.8c7.22,0.67,15.98,1.39,21.73-0.15c-1.79,7.9-6.02,15.7-13.3,20.5
			c-5.81,3.83-16.42,3.8-23.42,5.72c-9.03,2.48-15.79-1.23-23.73-5.59c-7.34-4.04-14.23-7.42-21.89-10.74
			c-8.77-3.81-21.98-13.54-29.64-8.35c5.68,0.25,22.84,9.48,27.02,11.13c8.71,3.45,15.89,9.84,24.33,14.08
			c4.85,2.44,10.1,5.58,15.64,5.49c-8.59,11.58-21.66,14.48-35.67,13.76c-13.64-0.7-25.43-8.08-37.71-12.93
			c-4.9-1.93-10.36-3.47-15.69-4.73c-0.82-0.19-1.22,0.94-0.48,1.33c13.3,7.06,23.89,15.23,36.76,18.71
			c4.32,1.17,8.42,3.1,12.72,4.32c-6.45,13.07-30.26,2.35-40.17,0.34c-6.05-1.23-15.16-1.3-16.83-7.67
			c-0.95-3.62,1.32-7.32,1.01-10.8c-0.24-2.66-1.73-7-2.53-9.63c-2.15-7.04-9.59-13.68-17.32-13.55
			c6.67-16.02-5.24-34.09-23.17-32.98c-4.43,0.27-8.38,1.29-12.34,3.28c0.06-4.99,2.26-9.61,2.35-14.39
			c0.1-5.24-3.36-10.06-6.41-14.02c-7.03-9.11-16.93-11.36-27.15-6c-4.22,2.22-11.26,5.65-14,9.58c-1.95-11.6-5.19-21.42-18.8-21.34
			C485.64,274.78,476.01,286.33,465.05,284.79z M502.9,318.18c-1.92,4.01-3.76,8.74-8.99,8.19c-4.41-0.46-8.52-3.46-12.43-5.32
			c-8.61-4.11-14.7-12.16-12.86-22.14c0.01-0.07,0.03-0.15,0.04-0.22c1.18-5.87,6.01-11.23,10.8-14.46
			c1.74-1.17,3.98-1.49,5.88-2.37c3-1.4,5.12-2.85,8.53-2.7c3.11,0.13,7.86,0.61,10.66,2.04c4.03,2.05,4.74,8.45,5.4,12.33
			c0.7,4.12,0.24,8.66-1.04,12.64C507.46,310.64,504.89,314.04,502.9,318.18z M524.33,351.41l-3.58-1.85c0,0-2.05-1.19-2.05-1.19
			c-3.48-2.02-6.71-3.35-9.66-6.45l-0.8-0.84l-1.92-3.5l-1.23-2.12l-0.27-6.47l1.09-2.92l0.96-2.97l1.17-2.58
			c0,0,1.18-2.95,1.26-3.14c0.48-1.2,1.59-2.34,2.33-3.41c2.58-3.7,4.58-7.79,6.98-11.6c0.47,0,2.47-3.91,2.85-4.51
			c1.95-3.1,6.03-5.28,8.75-7.72c2.03-1.81,10.02-2.34,12.69-1.69c3.31,0.8,8.15,2.89,10.75,5.04c1.21,1,2.14,2.77,3.11,4.02
			l0.69,2.91c0,0,0.45,2.09,0.46,2.14c0.65,3.03,1.53,7.94,0.6,10.98c0,0-1.09,3.55-1.09,3.55l-0.87,2.3l-1.99,5.79l-0.16,0.77
			c0,0-2.36,4.79-2.37,4.82c-2.4,4.89-6.31,8.5-10.22,12.16c0,0-2.16,2.03-2.16,2.03l-2.33,2.42l-2.12,2.21l-0.27,0.15l-4.52,3.22
			l-5.33-1.22L524.33,351.41z"/>
		<path class="st0" d="M783.74,250.54c0.36,3.25,0.99,5.93,1.09,7.26c0.27,3.61,1.31-11.52,1.33-13.43
			c0.04-4.37-0.67-7.83-1.58-12.19c-1.76-8.36-4.58-15.11-7.26-23.15c-1.66-4.97-4.01-8.54-7.66-13.59
			c-1.79-1.62-10.13-13.34-1.73,1.09c5.93,9.54,16.03,31.56,15.57,46.6C783.46,244.13,783.42,247.68,783.74,250.54z"/>
		<path class="st0" d="M793.84,243.47c0.28-3.55-0.38-15.74-3-22.38c-2.83-7.17-7.34-17.49-11.84-20.47
			c4,5.95,6.58,15.89,9.93,25.22C790.79,231.01,791.48,238.94,793.84,243.47z"/>
		<path class="st0" d="M532.66,329.37c6.92-1.05,12.6-3.95,17.96-8.36l1.88-1.65l3.03-3.14l2.31-6.02l0.12-0.48
			c0,0-0.82-4.84-0.82-4.84c-4.37-4.37-7.91-7.82-13.34-10.82c0,0-2.45-1.35-2.45-1.35l-1.47-1.12l-3.84-2.02l-5.7,2.6l-3.56,4.64
			c-2.39,3.79-4.38,7.51-5.27,11.96c-0.9,4.52-3,9.07-0.46,13.45c0.19,0.33,0.38,0.65,0.57,0.97
			C524.24,327.57,527.43,330.17,532.66,329.37z M525.07,318.59c-0.93-3.14-0.85-6.36-0.11-9.5c0.65-2.72,1.79-5.37,3.22-7.85
			c1.05-1.83,3.33-4.73,5.16-5.78c3.34-1.92,5.64,0.99,8.3,2.77c3.72,2.49,12.33,6.45,11.15,12.19c-0.95,4.6-5.55,7.92-9.07,10.55
			c-4.67,3.49-7.61,4.78-13.58,3.87C526.47,324.29,526.05,321.9,525.07,318.59z"/>
		<path class="st0" d="M506.04,285.54c-1.57-2.08-8.04-5.57-10.77-5.15c0,0-6.46,1.02-6.51,1.02c-3.06,0.48-7.95,5.71-9.62,8.25
			c-4.79,7.29-5.95,20.66-0.52,25.6c2.34,2.12,5.9,2.52,9.14,1.48c3.47-1.11,8.66-3.42,10.87-6.42c2.09-2.84,4.22-4.73,6.18-7.66
			c2.03-3.04,4.78-7.39,3.22-11.69C507.44,289.38,507.06,286.9,506.04,285.54z M497.44,306.32c-2.6,3.05-10.71,8.8-15.11,6.68
			c-8.08-3.89-2.3-16.77,1.95-21.89c0,0,0.13-0.16,0.15-0.18c2.3-2.76,2.95-4.83,5.8-6.04c0.87-0.37,3.16-0.33,4.23-0.63
			c0,0,5.26,1.61,5.29,1.62c1.29,0.4,2.75,3.39,3.62,4.47C505.72,293.24,499.46,303.93,497.44,306.32z"/>
	</g>
	<g>
		<path class="st1" d="M1173.87,733.34c-0.75-3-4.87-10.68-5.38-11.3c-0.06-0.19-0.14-0.37-0.19-0.56c-0.17-0.6-0.3-1.31-0.54-1.95
			c0.44-0.32,0.82-0.71,1.16-1.18c0.18-0.25,0.29-0.49,0.38-0.73c0.11-0.14,0.21-0.28,0.31-0.4c0.33-0.41,0.29-0.86,0.09-1.25
			c-0.53-1.01,2.18-6.8,2.08-8.69c-0.18-3.31-1.64-6.4-4.64-8.42c-8.45-5.69-15.58-7.51-26.26-8.75c-9.32-1.08-18.77-1.27-28.1-0.27
			c-7.73,0.83-15.54,1.49-23.2,3.09c-6.53,1.36-12.53,3.93-19.04,5.1c-13.35,2.41-26.21,9.51-38.61,12.76
			c-14.31,3.75-26,11.53-39.34,16.73c-14.76,5.75-32.36,16.07-49.07,15.2c-8.62-0.45-16.25,0.18-25.16-2.5
			c-21.21-6.37-27.65-32.11-23.32-47.64c0.24-0.87,0.51-1.75,0.78-2.62c3.26-10.41,12.34-23.43,25.22-24.97
			c0.95-0.11,1.91-0.35,2.82-0.53c5.61-1.13,11.83-2.9,17.66-1.34c12.69,3.41,23.95,10.97,27.22,22.73
			c3.08,11.1-1.4,18.95-11.91,26.84c-3.82,2.86-9.19,3.73-13.78,4.18c-9.67,0.94-16.24-0.34-23.04-6.74
			c-0.23,0.94-0.13,2.08,0.33,3.03c1.84,3.82,10.04,7.53,14.28,8.41c1.19,0.25,2.74,0.55,4.02,0.26c0.19,0.22,0.46,0.38,0.82,0.4
			c23.2,1.44,39.03-14.55,38.58-35.14c0-0.07,0-0.13,0-0.19c-0.01-0.46-0.01-1.15-0.12-1.82c-1.42-8.82-4.74-16.73-12.88-22.02
			c-6.51-4.24-12.85-7.99-20.89-8.68c-1.06-0.09-3.03,0.6-3.96,0.83c0.15-1.33-3.44-1.26-4.02-1.25
			c-10.67,0.14-22.69,1.56-30.96,9.24c-1.57,1.46-4.31,3.82-6.33,4.78c-0.16-0.34-0.33-0.68-0.53-1.02
			c-0.33-0.75-0.76-1.46-1.18-2.11c-1.95-3.03-6.51-6.45-10.16-7.28c-0.33,2.27,1.76,4.38,2.72,6.53c0.49,1.1,0.73,2.24,0.96,3.38
			c1.1,5.6-2.81,10.32-5.16,15.42c-3.53,7.69-6.45,23.68-2.79,35.41c1.08,3.47,2.65,6.91,4.64,10.17
			c-3.63-1.41-22.54-8.75-22.59-8.84c-3.99-2.21-14.71-5.06-19.12-5.95c-14.69-2.96-28.99-5.58-44.05-3.89
			c-10.01,1.12-28.18,3.96-34.35,12.77c-1.01,1.44-3.11,3.28-3.52,6.17c-0.44,3.08-1.08,2.4-0.44,6.61
			c0.9,5.97,4.03,15.68,13.12,14.78c1.29-0.13,2.55-0.7,3.05-1.74c0.13,0.13,0.26,0.26,0.38,0.39c0.53,3.36,7.71,3.82,8.11,4.18
			c-5.3-4.82-8.3-12.03-5.73-18.11c2.63-6.2,8.87-8.36,15.09-10.49c0.15-0.05,1.54-0.5,1.7-0.55c3.1-0.81,5.82-1.27,8.89-2.07
			c16.43-4.31,33.48-0.27,48.92,4.03c6.55,1.82,13.09,3.73,19.2,6.43c1.11,0.49,2.22,0.97,3.33,1.44c9.19,3.96,16.08,7.14,23.9,10.8
			c1.46,0.86,2.97,1.64,4.54,2.32c0.95,0.41,1.91,0.79,2.88,1.16c0.76,0.36,1.54,0.72,2.34,1.09c0.25-0.02,0.49-0.01,0.74-0.01
			c10.8,3.52,22.53,4.53,33.96,3.85c12.2-0.73,23.14-5.68,32.86-9.27c5.55-2.05,11.38-4.29,16.9-6.22
			c7.25-2.53,14.13-5.64,20.64-9.51c0.62-0.37,1.19-0.78,1.68-1.25c0.15-0.01,0.31-0.04,0.47-0.1c14.5-5.75,31.56-11.33,47.13-14.01
			c6.26-1.08,12.56-1.93,18.9-2.59c9.78-1.01,19.1-2.67,28.98-2.15c11.35,0.6,23.06-0.05,33.41,4.98
			c10.32,5.02,17.34,14.06,24.97,21.82C1173.92,734.77,1174.06,734.1,1173.87,733.34z"/>
		<path class="st1" d="M988.81,706.41c-1.23,1.65-2.75,3.17-3.86,4.88c-0.49,0.75,0.61,1.46,1.29,0.91
			c4.42-3.56,7.46-8.43,12.07-11.65c0.09-0.06,0.18-0.13,0.27-0.19c3.7-3.42,17.76-15.78,19.01-15.42c0.19,0.06,0.41,0.05,0.62-0.08
			c5.86-3.41,11.47-7.31,17.78-10.03c5.32-2.29,11.63-2.79,16.54-5.78c4.95-3.02,3.78-7.15-2.48-8.35
			c-12.95-2.48-28.29,9.37-37.41,16.7c-4.51,3.62-7,8.84-10.8,12.99C997.13,695.54,992.94,700.86,988.81,706.41z"/>
		<path class="st1" d="M1021.07,694.6c-1.77,0.97-3.29,2.09-4.75,3.28c-8.54,4.59-15.12,10.96-22.97,16.24
			c-0.51,0.34-1,0.71-1.48,1.07c-0.03,0.01-0.07,0.01-0.1,0.03c-2.66,1.14-4.96,2.62-7.04,4.5c-0.21,0.19-0.3,0.4-0.31,0.59
			c-0.75,0.49-1.5,0.98-2.25,1.48c-0.43,0.28-0.45,0.74-0.27,1.08c-1.75,0.69-3.3,1.89-4.79,2.92c-0.21,0.14-0.28,0.35-0.27,0.54
			c-1.26,0.73-2.4,1.75-3.52,2.61c-0.39,0.3,0.12,0.89,0.54,0.64c1.48-0.89,3.24-1.7,4.45-2.9c0.07-0.07,0.08-0.15,0.1-0.23
			c1.73-0.95,3.57-1.93,4.8-3.39c1.11-0.7,2.23-1.4,3.34-2.11c7.48-4.71,15.17-9.37,23.08-13.31c6.82-3.4,13.31-8.02,20.38-10.82
			c0.97-0.38,1.95-0.76,2.91-1.15c6.12-2.49,13.21-6.12,19.67-8.27c6.91-2.3,14.28-4,21.41-5.69c2.4-0.57,9.34-1.75,11.75-2.21
			c7.6-1.45,14.41-0.75,20.14-0.52c5.34,0.21,10.75-0.1,16.07,0.58c2.3,0.29,10.66,3.58,12.4,3.08c2.12-0.61,2.24-2.77,0.79-4.21
			c-0.07-0.07-0.16-0.1-0.23-0.16c-0.02-0.1-0.03-0.19-0.06-0.28c0.16-6.62-9.96-11.28-16.26-11.22c-3.78,0.04-7.36-0.75-11.32-0.39
			c-7.23,0.66-15.57-0.19-22.4,2.09c-0.79,0.18-1.57,0.4-2.32,0.58c-12.36,2.97-23.54,7.7-35.2,11.94
			C1037.9,684.41,1029.9,689.75,1021.07,694.6z"/>
	</g>
	<g>
		<path class="st1" d="M155.15,443.53c-0.15,0.42-0.12,0.87,0.27,1.23c0.12,0.11,0.24,0.23,0.36,0.36c0.11,0.23,0.26,0.45,0.47,0.67
			c0.41,0.42,0.84,0.75,1.32,1c-0.15,0.67-0.18,1.4-0.26,2.01c-0.03,0.2-0.08,0.38-0.11,0.58c-0.41,0.68-3.4,8.87-3.72,11.95
			c-0.08,0.77,0.16,1.42,0.36,1.15c6.45-8.77,12.11-18.71,21.61-25.15c9.52-6.45,21.21-7.48,32.36-9.68
			c9.71-1.92,19.17-1.6,28.99-1.99c6.36-0.25,12.72-0.31,19.07-0.13c15.8,0.44,33.48,3.53,48.65,7.16c0.17,0.04,0.33,0.04,0.48,0.03
			c0.55,0.4,1.17,0.72,1.84,1c7,2.9,14.25,5,21.79,6.47c5.74,1.12,11.83,2.51,17.62,3.75c10.14,2.17,21.67,5.51,33.85,4.5
			c11.41-0.95,22.87-3.62,33.07-8.64c0.24-0.03,0.48-0.07,0.73-0.09c0.73-0.48,1.45-0.95,2.16-1.41c0.91-0.5,1.8-1.01,2.68-1.55
			c22.26-13.65,27.12-44.46,12.98-66.38c-3.05-4.72-7.59-8.83-7.3-14.53c0.06-1.17,0.14-2.32,0.47-3.48
			c0.64-2.26,2.41-4.65,1.76-6.85c-3.5,1.34-7.52,5.37-9.02,8.65c-0.32,0.7-0.64,1.48-0.87,2.26c-0.15,0.36-0.28,0.73-0.38,1.09
			c-2.13-0.66-5.18-2.61-6.94-3.83c-9.28-6.43-21.38-6.12-31.96-4.74c-0.57,0.07-4.13,0.52-3.8,1.81c-0.95-0.09-2.99-0.5-4.03-0.25
			c-7.86,1.83-13.6,6.44-19.44,11.56c-7.3,6.4-9.46,14.7-9.61,23.63c-0.01,0.68,0.08,1.36,0.14,1.82c0.01,0.07,0.02,0.12,0.03,0.19
			c2.48,20.44,20.43,34.02,43.19,29.29c0.35-0.07,0.6-0.27,0.76-0.52c1.31,0.11,2.8-0.41,3.94-0.83
			c4.08-1.48,11.67-6.32,12.94-10.36c0.32-1,0.25-2.15-0.11-3.05c-5.82,7.3-12.13,9.5-21.84,9.95c-4.61,0.21-10.05,0.12-14.23-2.17
			c-11.53-6.31-17.08-13.45-15.61-24.87c1.56-12.1,11.62-21.19,23.71-26.37c5.54-2.38,11.96-1.51,17.67-1.19
			c0.93,0.05,1.92,0.15,2.87,0.13c12.97-0.3,23.81,11.29,28.52,21.13c0.4,0.83,0.79,1.66,1.15,2.49
			c6.49,14.76,3.78,41.15-16.31,50.47c-8.44,3.92-16.08,4.38-24.55,6.06c-16.42,3.24-35.31-4.47-50.74-8.06
			c-13.94-3.25-26.62-9.29-41.32-10.97c-12.73-1.45-26.48-6.65-40.03-7.14c-6.61-0.24-12.92-1.92-19.57-2.34
			c-7.81-0.49-15.64-0.04-23.41,0.24c-9.38,0.34-18.71,1.87-27.78,4.27c-10.39,2.75-17.19,5.56-24.74,12.4
			c-2.68,2.42-3.69,5.7-3.39,9C152.03,437.11,155.53,442.46,155.15,443.53z"/>
		<path class="st1" d="M265.71,371.81c-6.03,2.08-6.6,6.33-1.27,8.61c5.29,2.26,11.61,1.86,17.2,3.37
			c6.64,1.79,12.74,4.86,19.03,7.4c0.23,0.09,0.44,0.07,0.63-0.01c1.19-0.54,16.86,9.7,21.01,12.55c0.1,0.05,0.2,0.1,0.29,0.15
			c5.02,2.53,8.72,6.92,13.6,9.82c0.76,0.45,1.74-0.4,1.15-1.08c-1.34-1.54-3.06-2.82-4.51-4.28c-4.88-4.91-9.78-9.58-15.19-14.01
			c-4.36-3.57-7.57-8.38-12.54-11.32C295.04,377.06,278.18,367.52,265.71,371.81z"/>
		<path class="st1" d="M232.35,384.44c-7.08-1.28-15.22,0.75-22.46,1.12c-3.97,0.2-7.4,1.49-11.15,1.99
			c-6.24,0.84-15.59,6.89-14.49,13.42c-0.01,0.1-0.02,0.19-0.02,0.29c-0.07,0.06-0.15,0.11-0.21,0.19c-1.23,1.63-0.8,3.76,1.38,4.06
			c1.79,0.25,9.6-4.2,11.83-4.81c5.16-1.42,10.56-1.88,15.82-2.86c5.64-1.04,12.29-2.71,20.01-2.35c2.45,0.11,9.48,0.3,11.94,0.52
			c7.29,0.65,14.83,1.29,22,2.58c6.69,1.21,14.23,3.79,20.64,5.39c1.01,0.25,2.03,0.48,3.05,0.73c7.4,1.77,14.48,5.41,21.71,7.81
			c8.38,2.78,16.66,6.29,24.73,9.89c1.2,0.54,2.41,1.07,3.61,1.61c1.42,1.27,3.39,1.98,5.24,2.68c0.03,0.07,0.05,0.15,0.14,0.21
			c1.37,1.01,3.22,1.57,4.81,2.24c0.46,0.19,0.88-0.47,0.45-0.71c-1.23-0.68-2.5-1.53-3.85-2.08c-0.02-0.19-0.12-0.38-0.34-0.49
			c-1.62-0.81-3.32-1.77-5.15-2.21c0.14-0.36,0.05-0.81-0.42-1.03c-0.81-0.38-1.63-0.76-2.44-1.14c-0.04-0.19-0.15-0.38-0.39-0.54
			c-2.33-1.56-4.81-2.7-7.61-3.46c-0.04-0.01-0.07-0.01-0.11-0.01c-0.53-0.29-1.07-0.58-1.62-0.85
			c-8.52-4.11-15.94-9.48-25.05-12.81c-1.62-0.97-3.28-1.86-5.17-2.57c-9.43-3.55-18.11-7.69-27.96-9.75
			c-12.14-2.54-23.88-5.63-36.54-6.81C233.96,384.61,233.16,384.51,232.35,384.44z"/>
	</g>
	<g>
		<path class="st1" d="M1002.63,347.89c-0.32-0.08-0.68-0.07-1.01,0.04c-0.48,0.16-0.83,0.5-0.96,0.93
			c-0.76,2.39,0.11,4.82,0.16,7.23c0.05,2.46-0.4,4.81-0.15,7.29c0.02,0.18,0.08,0.34,0.18,0.47c0.01,0.2,0.01,0.39,0.01,0.58
			c-0.04,0.06-0.08,0.13-0.11,0.19c-0.18,0.4-0.15,0.8,0.09,1.15c-0.04,1.58-0.02,3,0.52,4.41c0.61,1.59-0.35,4.52-0.38,6.21
			c-0.04,2.58,0.27,5.15,0.47,7.72c0.46,5.84-0.16,10.82,0.39,16.68c0.19,1.96,0.37,5.28,0.43,7.25c0.05,1.34,0.18,5.24,1.51,5.88
			c0.79,0.38,1.45-8.86,1.47-9.12c0.19-3.19,0.38-6.38,0.29-9.57c-0.15-5.65,1.1-11.21,0.53-16.88l0.01-0.14
			c0.25-2.53,0.52-5.15,0.11-7.68c0.16-0.87,0.21-1.75,0.16-2.76c0.6-2.78,0.3-5.61,0.17-8.41c-0.02-0.4,0.85-3.92,0.94-4.65
			C1007.61,353.47,1006.93,344.57,1002.63,347.89z"/>
		<path class="st1" d="M1000.78,322.34c1.82,2.49,6.4,0.21,6.65-2.54c0.02-0.22-0.01-0.45-0.08-0.68c-0.54-1.72-0.29-18.56-1.6-18.6
			c-0.05,0-0.41,0.01-0.45,0c0.6,0.26-0.18-11.1-0.35-12.1c0.01-2.42-0.1-5.03-0.33-8.2c-0.06-0.98-0.13-1.95-0.22-2.88
			c0.05-3-0.12-5.56-0.53-7.83c0.19-3.18,0.4-6.29-0.1-9.47c-0.22-1.37-0.45-8.18-1.73-5.49c-0.88,1.84-1.08,4.51-1.08,7.25
			c0,2.13,0.37,4.85-0.03,6.94c-1.09,5.7-0.47,12.38-0.41,18.17c0.03,3.36,0.22,6.81-0.19,10.16c-0.36,3-0.65,6.26-0.66,9.11
			c0,1.39,0.31,2.51-0.07,4c-0.76,2.95-1,7.76,0.46,10.95C1000.28,321.57,1000.51,321.97,1000.78,322.34z M1006.6,312.69
			L1006.6,312.69L1006.6,312.69C1006.6,312.69,1006.6,312.69,1006.6,312.69z"/>
		<path class="st1" d="M1038.01,331.04c-1.49,0.01-2.98-0.01-4.47-0.12c-3.77-0.27-12.4-0.75-11.59,4.35
			c0.95,5.97,12,2.27,15.46,2.12c4.44-0.19,13.88-1.21,18.31-1.62c3.18-0.29,7.43-0.84,10.51-1.17c2.65-0.28,8.51-0.44,11.15-1.06
			c6.03-1.42-9.9-1.85-10.93-1.97c-4.16-0.49-8.1,0.06-12.33,0.16c-3.63,0.08-7.31-0.69-10.99-0.73
			C1041.4,330.99,1039.7,331.03,1038.01,331.04z"/>
		<path class="st1" d="M941.29,337.67c3.46,0.2,4.58-0.03,8.28-0.06c4.47-0.03,8.94-0.01,13.39,0.35c3.15,0.25,6.23,0.62,9.4,0.86
			c4.23,0.32,7.91,0.12,12.04-0.25c1.47-0.13,3-0.36,4.22-1.35c1.55-1.27,0.4-4.05-0.4-5.03c-1.57-1.91-7.71-0.28-9.97-0.12
			c-3.94,0.29-7.83,0.94-11.76,1.3c-10.2,0.95-23.7,1.21-33.84,2.54c-1.89,0.25,0.51,1.53,1.95,1.57
			C937.37,337.54,940.97,337.65,941.29,337.67z"/>
		<path class="st1" d="M992.1,345.04c-2.51,0-4.61,2.97-6.37,4.36c-3.99,3.13-4.83,8.2-8.1,11.74c-1.38,1.49-2.93,2.85-4.22,4.41
			c-0.63,0.76-11.14,13.69-4.68,7.96c1.25-1.1,3.44-2.2,4.64-3.24c2.79-2.4,5.18-5.11,7.78-7.66c2.33-2.27,4.87-4.54,7.59-6.39
			c2.66-1.8,5.08-4.41,6.24-7.22c0.63-1.5-0.47-3.48-2.16-3.87C992.58,345.07,992.34,345.04,992.1,345.04z"/>
		<path class="st1" d="M1024.53,350.9c-1.69-1.92-3.4-4.31-5.81-5.56c-2.45-1.26-6.24,0.01-5.43,3.12c0.11,0.41,0.28,0.79,0.44,1.12
			c0.63,1.32,1.67,2.5,3.09,3.18c1.43,0.69,1.29,0.73,2.41,1.76c2.01,1.85,4.8,3.08,7.01,4.78c2.43,1.88,4.53,3.1,6.73,5.22
			c1.16,1.12,5.89,4.63,8.43,6.08c2.84,1.62-9.53-11.63-11.13-13.3C1028.29,355.23,1026.42,353.05,1024.53,350.9z"/>
		<path class="st1" d="M1014.12,324.52c3.06,2.18,6.27-1.3,7.6-2.73c1.19-1.27,3.22-3.3,4.45-4.56c1.03-1.06,1.67-1.45,2.47-2.5
			c0.99-1.29,2.21-3.3,3.39-4.47c2.48-2.45,3.36-5.07,5.95-7.32c1.99-1.73,4.24-3.7,5.63-5.87c0.64-1,3.62-3.34,1.68-3.33
			c-1.53,0.01-4.32,2.66-5.21,3.53c-2.06,2.01-4.52,3.92-7.77,6.66c-5.24,4.43-9.59,7.89-14.88,12.2c-1.62,1.32-5.23,3.88-4.15,6.82
			C1013.36,323.14,1013.98,324.41,1014.12,324.52z"/>
		<path class="st1" d="M967.62,300.67c-1.64-1.15-3.1-2.97-5.04-3.77c-2.53-1.03-0.48,1.89,0.11,2.55c1.3,1.48,2.99,3.23,4.45,4.59
			c0.1,0.1,0.21,0.2,0.31,0.3c1.81,1.82,3.26,3.92,5.06,5.75c1.85,1.88,3.47,3.93,5.26,5.87c1.73,1.87,2.93,3.83,4.86,5.62
			c2.59,2.39,4.19,4.44,7.94,3.93c0.67-0.09,1.22-0.51,1.39-1.07c0.13-0.43,0.2-0.91,0.19-1.44c2.82-4-3.06-6.76-5.96-8.71
			c-3.35-2.25-6.5-4.68-9.76-7.14C973.53,304.95,970.6,302.77,967.62,300.67z"/>
		<path class="st1" d="M1002.82,329.39c-1.59,0.4-3.68,2.87-3.35,4.36c-0.05,0.13-0.08,0.28-0.09,0.45
			c-0.38,1.22,0.69,2.51,1.95,3.16c1.29,0.67,2.96,0.96,4.46,0.78c1.47-0.17,2.56-3.28,2.53-4.42c-0.01-0.62-0.33-1.31-0.83-1.97
			C1006.46,330.37,1004.82,328.88,1002.82,329.39z M1001.31,331.28L1001.31,331.28L1001.31,331.28L1001.31,331.28z"/>
	</g>
	<g>
		<path class="st1" d="M842.59,327.18c0.79,0.25,0.96,0.04,1.5,0.06c0.63,0.03,1.73,0.03,2.35,0.05c0.9,0.04,1.58,0.1,2.47,0.09
			c1.7-0.02,3.43-0.22,5.12-0.19c2.39,0.04,4.68,0.46,7.02,0.45c0.64,0,1.28-0.04,1.93-0.12c0.71-0.09,1.7-0.23,2.32-0.77
			c0.8-0.69,1.16-2.15,0.35-3.02c-0.67-0.73-1.26-0.91-2.1-0.98c-1.04-0.09-2.94,0.14-3.99,0.24c-1.29,0.13-2.27,0.66-3.91,0.86
			c-0.66,0.08-2.8,0.55-3.34,0.59c-1.54,0.1-2.7,0.34-4.2,0.51c-0.84,0.1-1.78,0.12-2.85,0.31c-0.66,0.12-3.85,0.24-3.62,1.22
			C841.71,326.72,842.36,327.1,842.59,327.18z"/>
		<path class="st1" d="M875.36,338.96c0.19-1.56,0.57-3.13,0.51-4.72c-0.04-1.19-1.05-4.28-2.86-2.72
			c-0.66,0.57-1.15,0.48-1.57,1.35c-0.32,0.66-0.52,1.72-0.37,2.47c0.15,0.78,0.17,1.65,0.31,2.49c0.17,0.99,0.39,1.69,0.48,2.68
			c0.15,1.7,0.33,3.52,0.36,5.22c0.03,2.14,0.31,3.12,0.35,4.77c0.02,0.85,0.3,2.43,0.47,3.53c0.08,0.52,0.69,0.37,0.94,0.18
			c0.51-0.4,0.53-1.79,0.56-2.28c0.08-1.41-0.01-2.6,0.03-4.01C874.67,344.92,874.99,341.95,875.36,338.96z"/>
		<path class="st1" d="M879.66,325.15c0.27,0.93,1.22,1.3,1.98,1.45c0.67,0.13,1.48,0.36,2.18,0.35c0.73-0.01,1.44-0.27,2.18-0.3
			c0.75-0.04,1.31-0.23,2.08-0.3c1.25-0.11,2.22-0.21,3.2-0.23c1.24-0.02,1.79-0.3,3.04-0.41c1.25-0.11,2.3-0.36,3.28-0.32
			c1.36,0.05,2.51-0.28,3.9-0.51c0.47-0.08,2.02-0.11,2.05-0.81c0.05-0.95-1.43-0.78-1.92-0.77c-1.12,0.03-2.18-0.18-3.29-0.23
			c-1.22-0.06-2.86-0.34-4.07-0.29c-3.37,0.14-6.15-0.42-9.52-0.43c-0.61,0-1.84-0.07-2.79,0.16c-0.53,0.13-0.98,0.34-1.2,0.71
			c-0.24,0.06-0.47,0.17-0.69,0.27l-0.17,0.08c-0.19,0.08-0.34,0.27-0.41,0.53c-0.07,0.25-0.05,0.52,0.07,0.71
			c0.03,0.04,0.04,0.09,0.05,0.18C879.63,325.03,879.65,325.09,879.66,325.15z"/>
		<path class="st1" d="M870.3,310.43c-0.24,1.87-0.38,2.82-0.3,3.99c0.07,1.02-0.12,2.16,0.5,3.04c0.75,1.05,2.24,1.53,3.31,0.93
			c1.13-0.64,1.37-1.8,1.38-2.87c0-0.46,0.09-1.33,0-1.77c-0.14-0.68-0.03-1.38-0.13-2.07c-0.21-1.38-0.43-2.51-0.46-3.94
			c-0.04-1.76-0.17-3.52-0.36-5.27c-0.25-2.32-0.74-3.91-0.78-6.25c-0.01-0.59-0.54-2.85-0.86-3.46c-0.46-0.88-0.74,1.34-0.68,2.06
			c0.11,1.29-0.48,2.96-0.38,4.28c0.03,1.96-0.1,3.63-0.38,5.22C870.79,306.5,870.58,308.24,870.3,310.43z"/>
		<path class="st1" d="M869.99,325.18c0.23,0.89,0.31,1.63,1.55,2.34c0.89,0.51,2.47-0.02,3.13-0.51c0.91-0.69,1.28-1.54,1.2-2.69
			c0,0-0.43-1.37-0.43-1.37c-0.42-1.2-3.78-1.36-4.5-0.31c-0.09,0.04-0.17,0.1-0.26,0.17C869.93,323.23,869.76,324.31,869.99,325.18
			z M872.95,322.28L872.95,322.28C872.95,322.28,872.95,322.28,872.95,322.28L872.95,322.28z"/>
	</g>
	<g>
		<path class="st1" d="M161.94,218.66c0.32,0.08,0.68,0.07,1.01-0.04c0.48-0.16,0.83-0.5,0.96-0.93c0.76-2.39-0.11-4.82-0.16-7.23
			c-0.05-2.46,0.4-4.81,0.15-7.29c-0.02-0.18-0.08-0.34-0.18-0.47c-0.01-0.2-0.01-0.39-0.01-0.58c0.04-0.06,0.08-0.13,0.11-0.19
			c0.18-0.4,0.15-0.8-0.09-1.15c0.04-1.58,0.02-3-0.52-4.41c-0.61-1.59,0.35-4.52,0.38-6.21c0.04-2.58-0.27-5.15-0.47-7.72
			c-0.46-5.84,0.16-10.82-0.39-16.68c-0.19-1.96-0.37-5.28-0.43-7.25c-0.05-1.34-0.18-5.24-1.51-5.88
			c-0.79-0.38-1.45,8.86-1.47,9.12c-0.19,3.19-0.38,6.38-0.29,9.57c0.15,5.65-1.1,11.21-0.53,16.88l-0.01,0.14
			c-0.25,2.53-0.52,5.15-0.11,7.68c-0.16,0.87-0.21,1.75-0.16,2.76c-0.6,2.78-0.3,5.61-0.17,8.41c0.02,0.4-0.85,3.92-0.94,4.65
			C156.96,213.09,157.64,221.98,161.94,218.66z"/>
		<path class="st1" d="M164.49,245.42c-0.2-0.44-0.43-0.84-0.7-1.21c-1.82-2.49-6.4-0.21-6.65,2.54c-0.02,0.22,0.01,0.45,0.08,0.68
			c0.54,1.72,0.29,18.56,1.6,18.6c0.05,0,0.41-0.01,0.45,0c-0.6-0.26,0.18,11.1,0.35,12.1c-0.01,2.42,0.1,5.03,0.33,8.2
			c0.06,0.98,0.13,1.95,0.22,2.88c-0.05,3,0.12,5.56,0.53,7.83c-0.19,3.18-0.4,6.29,0.1,9.47c0.22,1.37,0.45,8.18,1.73,5.49
			c0.88-1.84,1.08-4.51,1.08-7.25c0-2.13-0.37-4.85,0.03-6.94c1.09-5.7,0.47-12.38,0.41-18.17c-0.03-3.36-0.22-6.81,0.19-10.16
			c0.36-3,0.65-6.26,0.66-9.11c0-1.39-0.31-2.51,0.07-4C165.71,253.42,165.96,248.6,164.49,245.42z M157.97,253.87L157.97,253.87
			L157.97,253.87C157.97,253.86,157.97,253.87,157.97,253.87z"/>
		<path class="st1" d="M126.56,235.51c1.49-0.01,2.98,0.01,4.47,0.12c3.77,0.27,12.4,0.75,11.59-4.35c-0.95-5.97-12-2.27-15.46-2.12
			c-4.44,0.19-13.88,1.21-18.31,1.62c-3.18,0.29-7.43,0.84-10.51,1.17c-2.65,0.28-8.51,0.44-11.15,1.06
			c-6.03,1.42,9.9,1.85,10.93,1.97c4.16,0.49,8.1-0.06,12.33-0.16c3.63-0.08,7.31,0.69,10.99,0.73
			C123.17,235.56,124.87,235.52,126.56,235.51z"/>
		<path class="st1" d="M180.18,227.99c-1.47,0.13-3,0.36-4.22,1.35c-1.55,1.27-0.4,4.05,0.4,5.03c1.57,1.91,7.71,0.28,9.97,0.12
			c3.94-0.29,7.83-0.94,11.76-1.3c10.2-0.95,23.7-1.21,33.84-2.54c1.89-0.25-0.51-1.53-1.95-1.57c-2.78-0.07-6.39-0.18-6.7-0.2
			c-3.46-0.2-4.58,0.03-8.28,0.06c-4.47,0.03-8.94,0.01-13.39-0.35c-3.15-0.25-6.23-0.62-9.4-0.86
			C187.99,227.42,184.31,227.62,180.18,227.99z"/>
		<path class="st1" d="M171.74,221.43c0.25,0.06,0.49,0.09,0.73,0.09c2.51,0,4.61-2.97,6.37-4.36c3.99-3.13,4.83-8.2,8.1-11.74
			c1.38-1.49,2.93-2.85,4.22-4.41c0.63-0.76,11.14-13.69,4.68-7.96c-1.25,1.1-3.44,2.2-4.64,3.24c-2.79,2.4-5.18,5.11-7.78,7.66
			c-2.33,2.27-4.87,4.54-7.59,6.39c-2.66,1.8-5.08,4.41-6.24,7.22C168.96,219.06,170.05,221.04,171.74,221.43z"/>
		<path class="st1" d="M140.04,215.65c1.69,1.92,3.4,4.31,5.81,5.56c2.45,1.26,6.24-0.01,5.43-3.12c-0.11-0.41-0.28-0.79-0.44-1.12
			c-0.63-1.32-1.67-2.5-3.09-3.18c-1.43-0.69-1.29-0.73-2.41-1.76c-2.01-1.85-4.8-3.08-7.01-4.78c-2.43-1.88-4.53-3.1-6.73-5.22
			c-1.16-1.12-5.89-4.63-8.43-6.08c-2.84-1.62,9.53,11.63,11.13,13.3C136.29,211.32,138.15,213.5,140.04,215.65z"/>
		<path class="st1" d="M151.28,243.58c-0.06-0.17-0.69-1.45-0.83-1.55c-3.06-2.18-6.27,1.3-7.6,2.73c-1.19,1.27-3.22,3.3-4.45,4.56
			c-1.03,1.06-1.67,1.45-2.47,2.5c-0.99,1.29-2.21,3.3-3.39,4.47c-2.48,2.45-3.36,5.07-5.95,7.32c-1.99,1.73-4.24,3.7-5.63,5.87
			c-0.64,1-3.62,3.34-1.68,3.33c1.53-0.01,4.32-2.66,5.21-3.53c2.06-2.01,4.52-3.92,7.77-6.66c5.24-4.43,9.59-7.89,14.88-12.2
			C148.75,249.08,152.36,246.52,151.28,243.58z"/>
		<path class="st1" d="M196.95,265.89c1.64,1.15,3.1,2.97,5.04,3.77c2.53,1.03,0.48-1.89-0.11-2.55c-1.3-1.48-2.99-3.23-4.45-4.59
			c-0.1-0.1-0.21-0.2-0.31-0.3c-1.81-1.82-3.26-3.92-5.06-5.75c-1.85-1.88-3.48-3.93-5.26-5.87c-1.73-1.87-2.93-3.83-4.86-5.62
			c-2.59-2.39-4.19-4.44-7.94-3.93c-0.67,0.09-1.22,0.51-1.39,1.07c-0.13,0.43-0.2,0.91-0.19,1.44c-2.82,4,3.06,6.76,5.96,8.71
			c3.35,2.25,6.5,4.68,9.76,7.14C191.04,261.61,193.97,263.78,196.95,265.89z"/>
		<path class="st1" d="M161.75,237.16c1.59-0.4,3.68-2.87,3.35-4.36c0.05-0.13,0.08-0.28,0.09-0.45c0.38-1.22-0.69-2.51-1.95-3.16
			c-1.29-0.67-2.96-0.96-4.46-0.78c-1.47,0.17-2.56,3.28-2.53,4.42c0.01,0.62,0.33,1.31,0.83,1.97
			C158.11,236.18,159.75,237.67,161.75,237.16z M163.26,235.27L163.26,235.27L163.26,235.27L163.26,235.27z"/>
	</g>
	<g>
		<path class="st1" d="M300.05,317.88c1.29-0.13,2.27-0.66,3.91-0.86c0.66-0.08,2.8-0.55,3.34-0.59c1.54-0.1,2.7-0.34,4.2-0.51
			c0.84-0.1,1.78-0.12,2.85-0.31c0.66-0.12,3.85-0.24,3.62-1.22c-0.06-0.24-0.71-0.62-0.94-0.7c-0.79-0.25-0.96-0.04-1.5-0.06
			c-0.63-0.03-1.73-0.03-2.35-0.05c-0.9-0.04-1.58-0.1-2.47-0.09c-1.7,0.02-3.43,0.22-5.12,0.19c-2.39-0.04-4.68-0.46-7.02-0.45
			c-0.64,0-1.28,0.04-1.93,0.12c-0.71,0.09-1.7,0.23-2.32,0.77c-0.8,0.69-1.16,2.15-0.35,3.02c0.67,0.73,1.26,0.91,2.1,0.98
			C297.1,318.22,298.99,317.99,300.05,317.88z"/>
		<path class="st1" d="M284.26,301.9c-0.19,1.56-0.57,3.13-0.51,4.72c0.04,1.19,1.05,4.28,2.86,2.72c0.66-0.57,1.15-0.48,1.57-1.35
			c0.32-0.66,0.52-1.72,0.37-2.47c-0.15-0.78-0.17-1.65-0.31-2.49c-0.17-0.99-0.39-1.69-0.48-2.68c-0.15-1.7-0.33-3.52-0.36-5.22
			c-0.03-2.14-0.31-3.12-0.35-4.77c-0.02-0.85-0.3-2.43-0.47-3.53c-0.08-0.52-0.69-0.37-0.94-0.18c-0.51,0.4-0.53,1.79-0.56,2.28
			c-0.08,1.41,0.01,2.6-0.03,4.01C284.95,295.94,284.63,298.92,284.26,301.9z"/>
		<path class="st1" d="M280,315.89c-0.01-0.05-0.02-0.11-0.04-0.17c-0.27-0.93-1.22-1.3-1.98-1.45c-0.67-0.13-1.48-0.36-2.18-0.35
			c-0.73,0.01-1.44,0.27-2.18,0.3c-0.75,0.04-1.31,0.23-2.08,0.3c-1.25,0.11-2.22,0.21-3.2,0.23c-1.24,0.02-1.79,0.3-3.04,0.41
			c-1.25,0.11-2.3,0.36-3.28,0.32c-1.36-0.05-2.51,0.28-3.9,0.51c-0.47,0.08-2.02,0.11-2.05,0.81c-0.05,0.95,1.43,0.78,1.92,0.77
			c1.12-0.03,2.18,0.18,3.29,0.23c1.22,0.06,2.86,0.34,4.07,0.29c3.37-0.14,6.15,0.42,9.52,0.43c0.61,0,1.84,0.07,2.79-0.16
			c0.53-0.13,0.98-0.34,1.2-0.71c0.24-0.06,0.47-0.17,0.69-0.27l0.17-0.08c0.19-0.08,0.34-0.27,0.41-0.53
			c0.07-0.25,0.05-0.52-0.07-0.71C280.02,316.02,280.01,315.97,280,315.89z"/>
		<path class="st1" d="M289.31,330.43c0.24-1.87,0.38-2.82,0.3-3.99c-0.07-1.02,0.12-2.16-0.5-3.04c-0.75-1.05-2.24-1.53-3.31-0.93
			c-1.13,0.64-1.37,1.8-1.38,2.87c0,0.46-0.09,1.33,0,1.77c0.14,0.68,0.03,1.38,0.13,2.07c0.21,1.38,0.43,2.51,0.46,3.94
			c0.04,1.76,0.17,3.52,0.36,5.27c0.25,2.32,0.74,3.91,0.78,6.25c0.01,0.59,0.54,2.85,0.86,3.46c0.46,0.88,0.74-1.34,0.68-2.06
			c-0.11-1.29,0.48-2.96,0.38-4.28c-0.03-1.96,0.1-3.63,0.38-5.22C288.83,334.36,289.04,332.62,289.31,330.43z"/>
		<path class="st1" d="M284.17,317.91c0.42,1.2,3.78,1.36,4.5,0.31c0.09-0.04,0.17-0.1,0.26-0.17c0.76-0.41,0.92-1.5,0.7-2.37
			c-0.23-0.89-0.31-1.63-1.55-2.34c-0.89-0.51-2.47,0.02-3.13,0.51c-0.91,0.69-1.28,1.54-1.2,2.69
			C283.75,316.54,284.17,317.91,284.17,317.91z M286.67,318.59C286.67,318.59,286.67,318.59,286.67,318.59L286.67,318.59
			L286.67,318.59z"/>
	</g>
	<g>
		<path class="st0" d="M488.75,447.78c1.34-0.54,2.69-1.08,4.12-1.66c0.47,0.76,1.5,0.42,2.39,0.27c1.93-0.32,3.83-0.83,5.76-1.17
			c4.05-0.7,8.11-1.35,12.16-2.01c0.33-0.05,0.66-0.09,0.98-0.12c2.7-0.23,3.58,0.3,3.83,2.86c0.11,1.13,0.69,1.9,1.08,2.84
			c0.98,2.36,1.72,4.83,2.56,7.25c0.29,0.83,0.56,1.67,0.87,2.5c0.89,2.4,1.75,4.81,2.71,7.19c1.41,3.52,3.15,6.95,4.28,10.55
			c1.51,4.81,3.5,9.41,5.42,14.05c0.31,0.75,0.14,1.68,0.19,2.51c0.81,1.39,1.66,2.84,2.59,4.43c0.86-1.05,1.07-2.25,1.15-3.45
			c0.08-1.16,0.39-2.12,1.12-3.1c0.54-0.73,0.48-1.87,0.72-2.82c1-4.08,1.91-8.19,3.05-12.24c1.2-4.24,2.63-8.41,3.96-12.62
			c0.07-0.23,0.17-0.45,0.21-0.68c0.61-4.18,1.61-8.25,3.16-12.2c0.75-1.92,1.26-3.87,1.55-5.97c0.33-2.46,1.81-4.77,2.8-7.14
			c1.52-0.56,3.01-1.5,4.55-1.59c2.59-0.15,5.03-0.83,7.54-1.32c3.63-0.7,7.28-1.32,10.93-1.92c1.88-0.31,3.38,0.81,4.73,1.21
			c-0.14,2.45-0.36,4.65-0.37,6.85c-0.05,9.31-0.03,18.62-0.07,27.93c-0.02,3.28-0.24,6.56-0.2,9.84c0.04,3.65,0.31,7.29,0.42,10.94
			c0.07,2.48,0.04,4.96,0.04,7.44c0,5.66,0.02,11.31,0,16.97c-0.02,3.7-0.17,7.4-0.13,11.09c0.09,7.68,0.27,15.36,0.42,23.04
			c0.02,1.11,0.05,2.22,0.1,3.34c0.05,1.06-0.42,1.67-1.52,1.84c-5.87,0.94-11.73,1.89-17.59,2.84c-0.89,0.15-1.83,0.23-2.65,0.56
			c-2.63,1.06-4.96,0.17-7.23-0.68c0.21-2.87,0.42-5.58,0.6-8.29c0.16-2.4-0.22-4.76-0.41-7.13c-0.26-3.36-0.19-6.82,0.34-10.14
			c0.34-2.16,0.73-4.16,0.2-6.35c-0.25-1.01,0.09-2.18,0.27-3.26c0.17-1.03-0.64-1.98,0.13-3.17c0.52-0.79,0.14-2.15,0.15-3.25
			c0.01-1.07,0-2.14,0-3.3c-0.86-0.09-1.39,0.24-1.54,1.1c-0.68,3.89-2.3,7.46-3.84,11.08c-1.23,2.89-2.1,5.92-3.06,8.91
			c-0.12,0.36,0.22,0.87,0.29,1.1c-0.65,1.01-1.45,1.89-1.85,2.93c-1.03,2.69-1.86,5.47-2.83,8.18c-1.22,3.4-2.55,6.76-3.76,10.17
			c-0.31,0.88-0.07,1.92-1.07,2.6c-1.27,0.87-2.3,0.71-2.99-0.7c-0.38-0.78-0.66-1.62-0.86-2.47c-0.52-2.24-1.78-4.21-2-6.62
			c-0.17-1.86-1.49-3.61-2.3-5.41c-0.65-1.46-1.33-2.9-1.94-4.37c-1.39-3.4-2.69-6.84-4.11-10.22c-0.69-1.63-1.84-3.12-2.31-4.8
			c-0.72-2.57-2.79-4.7-2.58-7.57c0.02-0.28-0.08-0.66-0.27-0.86c-0.81-0.89-1.67-1.73-2.81-2.9c-0.18,0.82-0.49,1.37-0.35,1.76
			c0.8,2.25,0.79,4.47,0.54,6.85c-0.36,3.41-0.03,6.89-0.04,10.34c0,2.14-0.12,4.29-0.1,6.43c0.01,1.19,0.33,2.38,0.31,3.57
			c-0.08,3.85-0.25,7.7-0.37,11.55c-0.02,0.48-0.06,1.01,0.12,1.44c0.75,1.89,0.03,3.74-0.06,5.6c-0.03,0.59-0.23,1.18-0.29,1.77
			c-0.1,0.95-0.48,1.9-1.43,2.03c-1.35,0.2-2.03,1.41-3.22,1.71c-1.26,0.33-2.57,0.48-3.86,0.69c-4.86,0.78-9.72,1.6-14.59,2.3
			c-1.66,0.24-3.42-0.85-3.71-2.18c-0.22-1.01-0.41-2.1-0.24-3.09c0.38-2.28-0.58-4.63,0.45-6.86c0.09-0.2,0.02-0.48,0.01-0.72
			c-0.3-3.85-0.77-7.69-0.85-11.54c-0.06-2.69,0.46-5.39,0.59-8.09c0.08-1.71-0.17-3.43-0.11-5.14c0.1-2.87-0.6-5.81-0.17-8.54
			c0.49-3.12,0.04-6.11,0.04-9.16c0-0.32-0.06-0.66,0.02-0.97c0.58-2.22,0.79-4.41,0.02-6.65c-0.18-0.54,0.19-1.25,0.27-1.89
			c0.09-0.72,0.31-1.47,0.19-2.15c-0.75-4.04-0.53-8.07-0.18-12.13c0.2-2.35-0.13-4.75-0.11-7.12c0.01-2.1,0.27-4.2,0.24-6.29
			c-0.02-1.83-0.43-3.65-0.43-5.47c0-4.33,0.16-8.67,0.22-13C488.78,453.19,488.75,450.62,488.75,447.78z"/>
		<path class="st0" d="M762.22,548.2c1.62-1.39,3.3-2.92,5.08-4.33c2.71-2.15,5.91-3.15,9.32-3.63c3.59-0.5,7.18-1.07,10.76-1.62
			c6.82-1.05,13.64-2.14,20.47-3.17c3.9-0.59,7.81-1.08,11.71-1.64c1.54-0.22,3.15-0.29,4.6-0.78c2-0.67,3.92-0.11,5.87-0.07
			c1.48,0.03,2.45,0.76,3.13,2c1.57,2.85,2.95,5.72,2.04,9.12c-0.15,0.57,0.22,1.25,0.22,1.88c0.03,3.65,0,7.3,0.05,10.95
			c0.06,4.65,0.26,9.3,0.26,13.95c0,3.1-0.27,6.2-0.36,9.3c-0.06,1.92-0.03,3.85,0,5.78c0.01,0.47,0,1.14,0.3,1.39
			c1.39,1.19,0.53,2.5,0.36,3.78c-0.06,0.46-0.23,0.95-0.16,1.39c0.57,3.69-0.33,7.34-0.29,11.01c0.03,3.34-0.58,6.68-0.01,10.04
			c0.17,1.03-0.35,2.15-0.3,3.21c0.05,1.08,0.43,2.14,0.62,3.03c-0.2,1.58-0.48,3.05-0.57,4.54c-0.19,3.1-0.3,6.21-0.39,9.32
			c-0.04,1.51,0.19,3.04,0.09,4.55c-0.56,8.35-5.12,13.28-13.29,15.34c-4.68,1.18-9.54,1.71-14.32,2.5
			c-6.85,1.13-13.74,2.05-20.53,3.43c-3.83,0.77-7.64,1.4-11.52,1.35c-2.8-0.04-5.6-0.46-8-2.09c-3.15-2.13-5.3-4.71-4.72-8.85
			c0.28-2.03-0.03-4.14-0.04-6.21c-0.02-2.49,0.03-4.97-0.02-7.46c-0.02-0.94-0.25-1.89-0.39-2.83c-0.02-0.15-0.2-0.3-0.17-0.42
			c1.14-4.83,0.1-9.73,0.59-14.6c0.34-3.38-0.17-6.84-0.26-10.27c-0.05-2.01,0.02-4.02-0.06-6.03c-0.06-1.42-0.48-2.85-0.39-4.25
			c0.33-5.42-0.04-10.82-0.27-16.22c-0.05-1.28-0.04-2.57,0.03-3.86c0.11-2.13-0.07-4.23,0.56-6.38c0.47-1.59,0.21-3.52-0.18-5.19
			c-0.82-3.6-0.09-7.18-0.21-10.77c-0.06-1.82,0.43-3.65,0.63-5.49C762.49,549.49,762.34,549.05,762.22,548.2z M807.6,636.4
			c-0.44-1.17-1.1-2.32-1.27-3.54c-0.24-1.73-0.04-3.51-0.17-5.25c-0.25-3.32,1.17-6.62,0.07-9.94c-0.02-0.07-0.01-0.16,0-0.24
			c0.37-1.93,0.24-3.79-0.03-5.77c-0.44-3.3-0.12-6.71-0.09-10.07c0.02-2.08,0.19-4.16,0.11-6.23c-0.04-0.94-0.51-1.87-0.69-2.44
			c0.29-0.89,0.78-1.59,0.65-2.15c-0.36-1.5,0.6-3.23-0.61-4.26c0.21-1.07,0.46-1.89,0.53-2.72c0.14-1.74,0.24-3.48,0.26-5.22
			c0.02-2.55-0.03-5.09-0.09-7.64c-0.07-2.66-0.66-5.4-0.16-7.94c0.64-3.21-0.49-6.25,0.04-9.32c-5.38,1.13-10.56,2.22-15.9,3.34
			c0,2.43-0.03,4.57,0.01,6.72c0.08,3.84,0.28,7.67,0.27,11.51c0,3.36-0.26,6.73-0.31,10.09c-0.02,1.19,0.38,2.39,0.36,3.58
			c-0.05,2.73-0.31,5.46-0.37,8.19c-0.03,1.35,0.31,2.71,0.3,4.06c-0.02,2.08-0.29,4.16-0.29,6.24c0,4.24,0.16,8.49,0.15,12.73
			c-0.01,3.6-0.23,7.19-0.25,10.79c-0.02,2.92,0.75,5.86-0.8,9.19c2.04-0.45,3.51-0.78,4.98-1.11c1.27-0.28,2.53-0.63,3.82-0.84
			c1.13-0.19,2.42,0.04,3.4-0.41c0.99-0.45,1.83-0.36,2.79-0.26C805.43,637.6,806.65,637.88,807.6,636.4z"/>
		<path class="st0" d="M682.48,674.91c1.1-0.83,1.67-1.25,2.37-1.77c-0.37-0.42-0.67-0.76-0.96-1.11c-0.75-0.9-1.11-1.76-0.72-3.05
			c0.4-1.35,0.28-2.86,0.34-4.3c0.04-1.04-0.04-2.08-0.01-3.12c0.07-2.75,0.35-5.51,0.19-8.25c-0.14-2.38,0.04-4.73,0.06-7.1
			c0.02-2.39,0.18-4.81-0.11-7.16c-0.54-4.32-0.32-8.61-0.17-12.92c0.04-1.27-0.24-2.55-0.38-3.9c-0.54-0.05-1.1-0.11-1.98-0.2
			c0.85-0.56,1.47-0.97,2.15-1.42c0-4.19,0.06-8.36-0.02-12.53c-0.07-3.61-0.48-7.22-0.38-10.82c0.1-3.68-0.53-7.44,0.76-11.06
			c0.15-0.41,0.03-0.96-0.11-1.4c-0.9-2.86-1.29-5.71-1.04-8.77c0.28-3.5-0.09-7.05-0.2-10.57c-0.07-2.24-0.19-4.48-0.3-6.72
			c-0.09-1.82,0.33-2.46,2.13-2.88c1.6-0.37,3.22-0.69,4.84-0.98c4.96-0.87,9.91-1.76,14.88-2.55c3.42-0.54,6.88-0.9,10.31-1.37
			c2.84-0.39,5.75-0.55,8.48-1.32c4.53-1.27,9.19-1.52,13.79-2.22c1.74-0.27,3.44-0.76,5.15-1.21c0.25-0.07,0.4-0.47,0.48-0.58
			c1.02,0.27,1.96,0.54,2.92,0.78c1.35,0.34,2.81,0.45,4.05,1.01c3.85,1.76,5.52,4.88,4.82,9.59c-0.5,3.39,0.08,6.71-0.02,10.06
			c-0.09,3.22,0.03,6.44,0.03,9.67c0,5.95,0.03,11.89-0.05,17.84c-0.07,5-0.28,10-0.39,15c-0.03,1.19,0.13,2.39,0.2,3.59
			c0.05,0.88,0.28,1.79,0.14,2.64c-0.47,2.95,0.06,5.91-0.1,8.83c-0.37,6.87,0.46,13.71,0.21,20.57c-0.11,3.21,0.2,6.45-0.16,9.63
			c-0.26,2.36-1.22,4.75-3.11,6.41c-3.78,3.32-8.38,5.1-13.33,5.96c-3.56,0.62-7.17,1.02-10.75,1.56c-1.7,0.26-3.37,0.64-5.07,0.91
			c-1.13,0.18-2.29,0.21-3.43,0.37c-0.81,0.11-1.61,0.32-2.4,0.5c-0.8,0.18-1.58,0.53-2.38,0.55c-4.58,0.09-8.94,1.34-13.4,2.14
			c-3.97,0.71-7.98,1.19-11.98,1.75c-0.9,0.13-1.8,0.25-2.7,0.26C684.43,675.24,683.74,675.07,682.48,674.91z M713.59,652.88
			c2.84-1.49,6.03-1.77,9.28-1.79c0.94-0.01,2.01-0.35,2.75-0.89c0.43-0.31,0.31-1.33,0.46-2.02c0.07-0.31,0.26-0.6,0.33-0.91
			c0.52-2.37,1.24-4.72,0.3-7.16c-0.12-0.3,0.09-0.74,0.2-1.11c0.13-0.45,0.48-0.92,0.41-1.33c-0.28-1.72,0.65-3.6-0.82-5.19
			c-0.33-0.36-0.1-1.24-0.08-1.88c0.1-2.79,0.41-5.59,0.28-8.36c-0.08-1.68,0.81-3.52-0.57-5.12c-0.24-0.27-0.15-0.98,0.03-1.4
			c1.43-3.44,0.87-6.95,0.23-10.38c-0.32-1.75-0.61-3.33,0.15-5.02c0.23-0.52-0.01-1.24-0.05-1.87c-0.04-0.85-0.11-1.69-0.13-2.54
			c-0.01-0.48,0.08-0.96,0.06-1.44c-0.15-2.88-0.4-5.77-0.46-8.65c-0.06-2.57,0.07-5.14,0.15-7.71c0.04-1.26,0.15-2.52,0.24-3.78
			c0.13-1.86,0.27-3.71,0.43-5.75c-1.49-1.4-1.57-1.43-3.64-1.49c-2.94-0.08-5.8,0.53-8.67,0.98c-0.75,0.12-1.45,0.57-2.41,0.97
			c1.65,2.13,0.23,4.2,0.56,6.21c0.03,0.19-0.12,0.55-0.28,0.62c-1.38,0.61-1.03,1.7-0.78,2.7c0.29,1.17,0.72,2.31,1.02,3.48
			c0.24,0.92,0.53,1.87,0.52,2.81c-0.04,2.62-0.27,5.24-0.33,7.87c-0.07,3.14-0.02,6.27-0.03,9.41c-0.03,6.09-0.08,12.18-0.12,18.27
			c0,0.48-0.01,0.97-0.02,1.45c-0.09,2.96-0.26,5.92-0.25,8.87c0.01,3.86,0.18,7.73,0.24,11.59c0.03,1.75,0.29,3.58-0.16,5.22
			C711.86,649.54,712.15,651.12,713.59,652.88z"/>
		<path class="st0" d="M845.93,531.11c0.57-0.76,1.15-1.53,1.8-2.41c6.28-1.11,12.72-2.55,19.25-3.31
			c6.15-0.71,12.21-1.85,18.32-2.75c5.38-0.79,10.74-1.71,16.11-2.57c1.96-0.31,3.87-0.48,5.85,0.14c1.46,0.46,3.06,0.46,4.57,0.79
			c2.56,0.57,3.59,2.59,3.98,4.78c0.43,2.43,0.9,5.02,0.48,7.39c-0.84,4.82-0.04,9.61-0.37,14.42c-0.39,5.53,0.13,11.11,0.07,16.66
			c-0.04,3.14-0.2,6.32-0.77,9.4c-0.6,3.24-2.02,6.25-4.69,8.47c-0.59,0.49-1.35,0.78-2.32,1.32c1.4,0.8,2.51,1.65,3.77,2.11
			c1.81,0.67,3.15,1.89,4.11,3.35c0.7,1.06,0.98,2.51,1.09,3.81c0.24,2.95,0.28,5.91,0.34,8.87c0.04,2.04-0.07,4.08-0.05,6.12
			c0.01,0.86,0.24,1.71,0.27,2.56c0.07,1.99,0.14,3.98,0.1,5.98c-0.03,1.63-0.93,3.31,0.41,4.83c0.08,0.09,0.05,0.32,0.01,0.47
			c-0.87,3.85-0.26,7.78-0.62,11.66c-0.08,0.82,0.48,1.69,0.9,3.02c-0.11,0.37-0.37,1.28-0.51,1.77c-1.28,0.43-2.19,0.84-3.14,1.04
			c-2.25,0.49-4.52,0.92-6.79,1.3c-3.98,0.67-7.98,1.24-11.96,1.97c-2.21,0.4-3.82-0.64-5.46-1.75c-0.18-0.12-0.36-0.4-0.37-0.61
			c-0.08-3.23-1.04-6.34-0.59-9.7c0.47-3.51-0.15-7.15-0.26-10.73c-0.11-3.6-0.07-7.21-0.28-10.8c-0.19-3.31,0.96-6.61-0.1-9.94
			c-0.3-0.93,0.05-2.05,0.11-3.21c-1.72-0.27-3.29-0.49-5.14,0.11c-2.04,0.66-4.36,0.51-6.56,0.68c-1.74,0.13-3.47,0.26-4.68,1.73
			c1.19,2.42,1.28,5.05,1.29,7.62c0.01,3.75-0.52,7.48-0.06,11.26c0.27,2.24,0.04,4.56-0.11,6.83c-0.09,1.3-0.33,2.53,0.48,3.74
			c0.23,0.33,0.03,0.94,0.03,1.42c0.02,3.34,0.03,6.69,0.05,10.03c0.01,1.52,0.21,3.06,0,4.54c-0.08,0.58-0.95,1.27-1.62,1.53
			c-4.75,1.86-9.85,2.26-14.81,3.27c-2.08,0.42-4.18,0.78-6.28,1.06c-0.71,0.09-1.46-0.26-2.19-0.22c-0.62,0.03-1.22,0.32-2.08,0.57
			c-0.09-0.16-0.27-0.36-0.31-0.58c-0.31-1.86-0.72-3.71-0.84-5.58c-0.11-1.74,0.22-3.5,0.14-5.24c-0.07-1.49-0.37-2.98-0.71-4.44
			c-0.38-1.66,0.08-3.29,0.06-4.93c-0.02-2.02-0.27-4.08,0.07-6.05c0.47-2.79,0.35-5.52,0-8.28c-0.04-0.33,0.15-0.78,0.4-1.03
			c0.41-0.41,0.63-0.71,0.11-1.18c-0.16-0.14-0.38-0.5-0.33-0.55c1.22-1.26,0.54-2.81,0.54-4.17c0-1.96-0.46-3.92-0.73-5.93
			c-0.63-0.07-1.1-0.12-1.57-0.18c-1.28-0.16-1.75-0.83-1.81-2.11c-0.05-1-0.58-1.98-0.88-2.9c0.19-0.75,0.71-1.64,0.56-2.41
			c-0.42-2.16,0.19-4.26,0.09-6.38c-0.05-1.11,0.48-1.92,1.2-2.52c1.21-1.02,2.59-1.86,3.73-2.66c-0.18-1.82-0.28-3.64-0.57-5.44
			c-0.5-3.1,0.72-6.19-0.13-9.34c-0.42-1.57-0.18-3.35-0.04-5.01c0.1-1.25-0.67-2.62,0.43-3.77c0.08-0.08,0.06-0.34-0.01-0.47
			c-1.13-1.97-0.39-3.98-0.23-6c0.16-2.06,0.11-4.13,0.16-6.2c0.01-0.32,0.04-0.64,0.04-0.96c-0.07-3.13-0.14-6.25-0.22-9.6
			c-0.45-0.18-1.11-0.45-1.96-0.8C847.85,534.34,847.06,532.75,845.93,531.11z M888.15,541.7c-1.4,0.07-2.82,0.13-4.24,0.2
			c-0.41,0.02-0.83,0.18-1.21,0.1c-2.21-0.47-5.58-0.13-7.31,0.71c-0.9,0.44-1.42,1.04-1.42,2.06c0.01,1.35-0.02,2.7-0.05,4.06
			c-0.07,3.06-0.18,6.11-0.22,9.17c-0.05,2.94-0.16,5.88-0.02,8.81c0.13,2.55-0.38,5.05-0.11,7.64c0.18,1.66,0.96,3.65-1.16,5.47
			c2.43-0.26,4.28-0.5,6.15-0.64c1.87-0.14,3.5-1.21,5.52-1.07c1.05,0.07,2.24-1.1,3.29-1.81c0.79-0.53-0.56-1.98,0.94-2.31
			c-0.23-0.48-0.65-0.95-0.67-1.43c-0.08-2-0.08-4.01-0.01-6.01c0.1-2.97,0.01-5.94,0.19-8.91c0.11-1.83-0.23-3.69-0.18-5.53
			C887.71,548.87,887.95,545.53,888.15,541.7z"/>
		<path class="st0" d="M216.25,733.6c0.91-0.69,1.14-1.6,1.09-2.86c-0.11-2.74,0.27-5.5,0.23-8.25c-0.02-1.73-0.39-3.47-0.68-5.19
			c-0.13-0.74-0.4-1.42,0.46-1.91c0.13-0.07,0.29-0.35,0.27-0.37c-1.33-1.33,0.38-2.69-0.08-4.11c-0.43-1.34-0.37-2.83-0.52-4.26
			c-0.1-0.98-0.19-1.97-0.3-3.09c-0.8,0-1.3,0.05-1.77-0.01c-1.06-0.14-1.71-0.83-1.54-1.82c0.24-1.37-0.36-2.27-1.42-3.25
			c1.3-0.47,1.12-1.46,1.1-2.51c-0.05-2.29,0.04-4.58,0.12-6.87c0.01-0.36,0.21-0.82,0.48-1.06c1.44-1.24,2.93-2.41,4.3-3.53
			c-0.13-1.84-0.15-3.84-0.45-5.79c-0.47-3.03,0.45-6.02-0.16-9.11c-0.42-2.16,0.15-4.53-0.35-6.8c-0.07-0.31,0.32-0.71,0.45-1.08
			c0.12-0.37,0.38-0.87,0.24-1.13c-1.07-2.01-0.32-4.04-0.2-6.08c0.12-2.07,0.11-4.14,0.15-6.21c0.01-0.32,0.03-0.64,0.02-0.96
			c-0.06-3.13-0.13-6.25-0.2-9.57c-0.34-0.13-0.85-0.33-1.67-0.64c0.62-0.31,1.04-0.52,1.52-0.76c0.43-2.2,0.43-2.2-0.66-3.2
			c0.64-0.83,1.27-1.64,1.98-2.56c6.36-1.1,12.9-2.52,19.51-3.3c7.37-0.87,14.63-2.29,21.95-3.34c3.83-0.55,7.64-1.27,11.47-1.85
			c2.25-0.34,4.49-0.65,6.78,0.14c1.35,0.47,2.89,0.4,4.32,0.71c2.58,0.55,3.59,2.59,3.97,4.77c0.43,2.43,0.82,4.99,0.5,7.4
			c-0.69,5.29-0.18,10.58-0.45,15.87c-0.25,5.05,0.2,10.14,0.14,15.21c-0.04,3.14-0.19,6.32-0.79,9.4
			c-0.62,3.22-1.98,6.26-4.68,8.48c-0.59,0.49-1.37,0.77-2.36,1.31c1.41,0.8,2.57,1.56,3.81,2.13c1.46,0.67,2.54,1.67,3.68,2.76
			c1.3,1.23,1.41,2.72,1.54,4.16c0.28,3.1,0.33,6.23,0.38,9.35c0.03,2.04-0.11,4.08-0.17,6.12c-0.02,0.48-0.22,1.04-0.05,1.44
			c1.08,2.49,0.34,5.04,0.36,7.57c0.01,1.3-0.79,2.65,0.37,3.94c0.28,0.31-0.24,1.2-0.19,1.8c0.21,2.63-0.63,5.24-0.02,7.88
			c0.14,0.59-0.2,1.27-0.22,1.91c-0.03,0.72-0.11,1.5,0.13,2.15c0.65,1.77,0.71,1.75,0.16,3.37c-1.18,0.41-2.18,0.88-3.24,1.11
			c-2.18,0.47-4.38,0.83-6.57,1.2c-2.12,0.36-4.24,0.67-6.36,1.01c-2.11,0.34-4.22,0.72-6.34,1.02c-1.78,0.24-3.16-0.76-4.56-1.6
			c-0.25-0.15-0.53-0.5-0.54-0.76c-0.12-3.24-1.48-6.39-0.54-9.72c0.29-1.01,0.11-2.17,0.04-3.26c-0.24-3.68-0.55-7.36-0.77-11.04
			c-0.09-1.52-0.22-3.07-0.03-4.58c0.32-2.58-0.36-5.23,0.62-7.77c0.18-0.47-0.09-1.11-0.14-1.67c-0.2-2.13-0.41-4.26-0.62-6.52
			c-1.56-0.13-3.18-0.31-5.01,0.27c-2.05,0.65-4.38,0.44-6.58,0.67c-1.63,0.17-3.34,0.18-4.43,1.68c0.89,2.71,1.31,5.47,1.19,8.32
			c-0.12,2.87-0.19,5.75-0.2,8.63c-0.02,3.31-0.27,6.67,0.18,9.93c0.42,3.07,0.28,6.11,0.37,9.16c0.09,3.03,0.04,6.07,0.12,9.1
			c0.03,0.99-0.47,1.56-1.31,1.82c-2.1,0.64-4.19,1.33-6.34,1.74c-3.53,0.67-7.11,1.12-10.66,1.68c-1.06,0.17-2.14,0.32-3.16,0.62
			c-1.04,0.31-2,0.52-3.13,0.23c-0.7-0.18-1.55,0.17-2.37,0.29c-0.16-0.19-0.41-0.35-0.45-0.55c-0.3-1.7-0.7-3.4-0.79-5.12
			c-0.1-1.82,0.29-3.66,0.15-5.47C217.16,738.25,216.66,736.1,216.25,733.6z M256.58,643.51c-0.98,0.2-2.17,0.85-2.86,0.51
			c-2.44-1.2-4.59,0.09-6.82,0.45c-1.29,0.21-2.17,1.05-2.08,2.57c0.08,1.27,0,2.54-0.03,3.81c-0.08,2.97-0.2,5.95-0.24,8.92
			c-0.05,3.01-0.14,6.03-0.02,9.04c0.11,2.55-0.38,5.06-0.1,7.64c0.18,1.66,0.96,3.64-1.2,5.47c2.66-0.32,4.71-0.5,6.73-0.84
			c1.21-0.21,2.53-1.19,3.53-0.9c1.91,0.54,2.93-0.71,4.25-1.33c0.53-0.25,1.31-0.87,0.57-1.76c-0.06-0.08,0.09-0.48,0.22-0.53
			c0.57-0.22,0.82-0.38,0.34-1c-0.3-0.39-0.43-1.01-0.4-1.51c0.26-4.23-0.08-8.46,0.18-12.7c0.23-3.76,0.02-7.57-0.26-11.33
			C258.23,647.81,258.19,645.47,256.58,643.51z"/>
		<path class="st0" d="M382.67,723.58c-0.11-0.88-0.31-1.61,0.18-2.57c0.38-0.75-0.13-1.96-0.3-2.96c-0.48-2.71,0.1-5.42,0.06-8.12
			c-0.03-2.49-0.21-4.97-0.24-7.46c-0.04-2.39,0.03-4.78,0.04-7.17c0-1.72,0.73-3.54-0.78-5.04c1.19-0.71,1.05-1.91,1.07-3
			c0.03-1.83-0.04-3.67-0.05-5.51c-0.02-2.81-0.01-5.63-0.04-8.44c-0.01-1.17-0.18-2.22-1.58-2.71c-0.74-0.26-2.76-3.32-2.75-4.01
			c0.05-3.67,0.17-7.34,0.24-11.01c0.04-2.13,1.19-3.49,3.21-3.9c1.35-0.27,1.95-0.94,2.2-1.91c-0.65-0.6-1.22-1.13-1.8-1.66
			c0.18-0.07,0.36-0.14,0.54-0.2c0-2.44-0.01-4.88,0.01-7.32c0.01-0.59-0.68-1.44,0.6-1.7c0.13-0.03,0.27-1.07,0.06-1.49
			c-0.98-1.97-0.83-4.08-0.89-6.15c-0.12-4.43-0.2-8.86-0.22-13.29c-0.01-1.35,0.3-2.7,0.31-4.05c0-0.74-0.32-1.48-0.51-2.23
			c-0.02-0.07-0.13-0.18-0.12-0.19c1.5-1.66-0.03-3.67,0.65-5.47c0.43-1.15,1.08-1.77,2.23-1.96c6.18-1.01,12.36-1.98,18.53-3
			c5.75-0.95,11.48-1.98,17.24-2.88c3.24-0.51,6.52-0.79,9.78-1.23c1.14-0.15,2.28-0.38,3.39-0.68c3.61-1,7.22-1.22,10.91-0.47
			c3.19,0.65,4.6,2.34,4.57,5.46c-0.06,7.15-0.03,14.3-0.04,21.44c0,0.32,0.04,0.71-0.13,0.93c-1.03,1.37-0.79,2.82-0.45,4.33
			c0.28,1.26,0.24,2.5-0.17,3.8c-0.35,1.11-0.1,2.26,0.39,3.47c0.72,1.76,0.82,3.75-0.12,5.61c-0.17,0.33-0.24,0.72-0.29,1.09
			c-0.37,2.83-1.88,5.07-3.91,6.99c-0.68,0.65-1.57,1.08-2.57,1.75c1.41,0.43,2.76,0.85,4.16,1.27c-0.14,0.21-0.32,0.45-0.57,0.82
			c0.65,0.53,1.25,1.4,2,1.56c3.15,0.65,3.1,3.19,3.02,5.28c-0.09,2.41-0.2,4.78,0.03,7.2c0.24,2.6-0.09,5.25-0.14,7.88
			c-0.04,2.09-0.02,4.17-0.03,6.26c-0.03,3.8-0.1,7.6-0.08,11.39c0.02,3.42,0.16,6.83,0.21,10.25c0.01,0.54-0.16,1.12-0.37,1.63
			c-1.03,2.54-2.13,5.11-4.4,6.8c-1.88,1.4-3.96,2.72-6.17,3.48c-3.01,1.04-6.22,1.56-9.35,2.23c-2.9,0.62-5.82,1.2-8.75,1.7
			c-2.52,0.43-5.07,0.66-7.59,1.07c-3.82,0.63-7.62,1.42-11.44,2c-4.88,0.74-9.78,1.33-14.68,1.99c-0.56,0.08-1.21,0.09-1.66,0.37
			C384.84,724.65,383.76,724.32,382.67,723.58z M415.11,666.14c-0.98-1.15-2.35-1.11-3.46-0.26c-1.16,0.88-2.19,2.11-2.22,3.63
			c-0.07,3.29,0.02,6.58,0.08,9.87c0.01,0.61,0.22,1.22,0.23,1.84c0.02,2.23-1.14,4.5,0.19,6.71c0.07,0.11,0,0.31-0.02,0.47
			c-0.32,4.57-0.64,9.14-0.96,13.78c1.82,1.11,2.22,1.23,3.93,0.38c2.05-1.02,4.12-0.82,6.28-0.58c0.8,0.09,1.88-0.24,2.44-0.77
			c0.49-0.46,1.3-1.32,0.4-2.3c-0.27-0.3-0.27-0.93-0.21-1.39c0.35-2.83-0.65-5.79,0.79-8.52c0.05-0.1,0.03-0.3-0.05-0.39
			c-1.24-1.39-0.65-3.06-0.71-4.62c-0.11-3.26-0.2-6.53-0.22-9.79c-0.02-2.8,0.11-5.59,0.1-8.39c0-1.13-0.71-1.57-1.84-1.22
			C418.3,665.05,416.77,665.59,415.11,666.14z M423.16,616.29c-1.85-1.01-3.28-1.09-4.85-0.73c-2,0.45-4.04,0.77-6.06,1.16
			c-0.71,0.14-1.41,0.32-2.1,0.48c-0.09,0.59-0.18,0.98-0.2,1.38c-0.15,2.96,0.08,5.99-0.54,8.85c-0.57,2.61,0.78,5.28-0.6,7.76
			c-0.05,0.09,0.01,0.33,0.1,0.38c0.98,0.55,0.48,1.43,0.51,2.18c0.15,3.1,0.31,6.2,0.47,9.53c1.21-0.1,2.25-0.21,3.29-0.28
			c0.31-0.02,0.8-0.05,0.91,0.11c0.53,0.79,1.02,0.46,1.65,0.16c0.48-0.23,1.1-0.33,1.63-0.28c1.94,0.17,3.47-0.65,4.82-1.6
			c-0.25-2.48-0.64-4.78-0.67-7.08c-0.05-4.55,1.08-9.07,0.39-13.65c-0.02-0.16,0.04-0.32,0.04-0.48c0.02-0.94-0.11-1.91,0.09-2.82
			C422.42,619.76,420.94,617.97,423.16,616.29z"/>
		<path class="st0" d="M315.74,644.06c0-1.31-0.07-2.56,0.02-3.79c0.13-1.83,0.39-3.65,0.58-5.47c0.02-0.22-0.13-0.49-0.06-0.68
			c1.4-3.83,1.8-7.89,2.98-11.77c0.18-0.61,0.3-1.26,0.3-1.89c0.02-1.15,0.53-1.95,1.42-2.68c0.6-0.5,0.97-1.26,1.3-2.03
			c1.63-1.48,3.8-1.62,5.91-1.93c1.3-0.19,2.6-0.41,3.9-0.63c2.6-0.42,5.2-0.84,7.8-1.28c0.56-0.1,1.24-0.14,1.63-0.48
			c0.66-0.56,1.11-0.58,1.91-0.23c0.5,0.22,1.27-0.15,1.92-0.28c2.03-0.41,2.42-0.1,3.36,1.75c1.41,2.79,1.53,5.89,2.48,8.78
			c0.38,1.14,0.41,2.43,0.97,3.47c1.04,1.92,0.86,3.97,1.14,5.98c0.14,1.02,0.38,2.05,0.79,2.99c0.98,2.23,1.58,4.51,1.73,6.95
			c0.08,1.32,0.45,2.7,1,3.91c0.51,1.12-0.53,2.36,0.71,3.51c0.72,0.66,0.51,2.2,1.24,3.27c0.43,0.62,0.37,1.67,0.28,2.49
			c-0.19,1.83,0.75,3.3,1.29,4.93c0.67,2.04,0.85,4.23,1.34,6.33c0.19,0.8,0.78,1.51,0.95,2.31c0.81,3.69,1.62,7.38,2.27,11.1
			c0.4,2.3,0.93,4.52,1.89,6.67c0.47,1.04-0.37,2.4,0.63,3.41c-0.36,2.25,0.93,4.18,1.3,6.3c0.34,1.97,1.1,3.86,1.5,5.82
			c0.37,1.79,0.52,3.63,0.74,5.46c0.06,0.47-0.08,0.97,0.02,1.43c0.58,2.79,1.16,5.57,1.82,8.34c0.16,0.67,0.77,1.22,0.99,1.89
			c0.39,1.22,1.45,2.35,0.48,3.79c-0.57,0.84,0.87,1.16,0.69,2.19c-0.22,1.26-0.32,1.87-1.49,2.12c-0.78,0.16-1.53,0.42-2.3,0.64
			c-0.63,0.18-1.27,0.51-1.9,0.5c-5.02-0.09-9.75,1.54-14.63,2.24c-2.28,0.33-4.59,0.49-6.89,0.55c-1.36,0.03-2.24-0.9-2.76-2.09
			c-0.19-0.44-0.33-0.91-0.39-1.38c-0.41-3.35-0.8-6.7-1.2-10.04c-0.17-1.42-0.33-2.85-0.55-4.26c-0.21-1.33-0.49-2.65-0.75-4.04
			c-0.49,0-1.18,0.17-1.71-0.03c-1.34-0.52-2.48-0.21-3.8,0.2c-1.81,0.57-3.76,0.8-5.67,0.99c-1.44,0.14-2.23,0.63-2.4,2.13
			c-0.25,2.22-0.75,4.42-1.02,6.64c-0.34,2.86-0.13,5.79-1.43,8.5c-0.1,0.21-0.12,0.49-0.06,0.72c0.55,2.17-0.89,3.9-1.38,5.83
			c-0.32,1.26-1.69,1.41-2.83,1.5c-1.78,0.14-3.57,0.15-5.36,0.23c-0.16,0.01-0.36,0.01-0.48,0.1c-3.11,2.28-6.91,1.14-10.32,1.97
			c-1.99,0.48-4.07,0.64-6.12,0.84c-1.2,0.12-2.42,0.02-3.87,0.02c0.5-1.99,0.37-3.78,0.99-5.57c0.62-1.79,0.68-3.77,1.05-5.65
			c0.25-1.25,0.67-2.48,0.91-3.73c0.11-0.58-0.04-1.2-0.06-1.8c-0.01-0.27-0.07-0.57,0.02-0.81c0.98-2.7,1.95-5.37,2.1-8.29
			c0.06-1.26,0.55-2.5,0.83-3.75c0.88-3.99,1.73-7.99,2.63-11.97c0.88-3.89,1.91-7.76,2.71-11.67c0.58-2.83,0.78-5.74,1.35-8.58
			c0.65-3.22,1.53-6.39,2.27-9.59c0.23-1.02,0.25-2.08,0.49-3.1c0.23-0.99,0.62-1.95,0.93-2.92c0.09-0.29,0.2-0.58,0.24-0.87
			c0.31-2.42,0.6-4.85,0.89-7.27c0.01-0.08,0.01-0.17,0.05-0.24c0.46-0.83,1.14-1.62,1.34-2.51c0.19-0.87-0.34-1.9-0.11-2.75
			C314.56,645.73,315.3,644.84,315.74,644.06z M340.18,691.39c0.08-0.53,0.47-1.34,0.21-1.67c-1.74-2.2-0.85-4.94-1.7-7.36
			c-0.57-1.62-0.37-3.71-0.57-5.5c-0.23-2.06,0.58-4.49-1.22-6.32c-0.16-0.16-0.1-0.67,0.03-0.94c0.9-1.86,0.45-3.67,0.14-5.58
			c-0.17-1.01-0.64-1.46-1.22-2.24c-1.67,2.08-2.65,3.98-0.88,6.14c-0.38,0.59-0.97,1.07-0.94,1.52c0.15,2.09-1.43,3.94-0.83,6.09
			c0.12,0.42-0.14,0.93-0.22,1.4c-0.37,2.21-0.76,4.41-1.1,6.62c-0.41,2.69-0.79,5.39-1.23,8.42
			C333.58,691.79,336.64,691.61,340.18,691.39z"/>
		<path class="st0" d="M1004.12,618.56c-0.81,0.73-0.98,1.45-0.31,2.49c1.04,1.64,0.23,2.94-1.68,2.93c-0.4,0-0.81-0.04-1.2,0.04
			c-4.28,0.83-8.6,1.52-12.82,2.58c-3.39,0.85-6.77,1.33-10.24,1.36c-2.44,0.02-3.54-0.64-3.96-2.99c-0.57-3.16-0.87-6.36-1.32-9.55
			c-0.3-2.12-0.71-4.24-0.99-6.36c-0.11-0.86-0.02-1.75-0.02-2.61c-1.18-0.23-2.25-0.46-3.31-0.65c-0.31-0.06-0.66-0.06-0.97,0
			c-2.62,0.55-5.22,1.17-7.84,1.67c-1.05,0.2-1.55,0.62-1.68,1.69c-0.3,2.38-0.77,4.74-1.1,7.11c-0.38,2.77-0.13,5.63-1.4,8.27
			c-0.26,0.55-0.22,1.27-0.2,1.91c0.04,1.19,0.3,2.41-0.97,3.23c-0.12,0.08-0.17,0.27-0.22,0.42c-0.24,0.63-0.3,1.58-0.75,1.84
			c-0.79,0.44-1.83,0.49-2.77,0.63c-2.28,0.34-4.69-0.1-6.82,1.21c-0.6,0.37-1.41,0.47-2.14,0.56c-4.34,0.53-8.69,1.05-13.04,1.52
			c-1.11,0.12-2.25,0.02-3.37,0.02c0.05-2.52,0.81-4.57,1.11-6.68c0.42-2.95,1.04-5.82,1.79-8.69c0.11-0.42-0.04-0.91-0.1-1.36
			c-0.03-0.27-0.26-0.6-0.17-0.8c1.26-2.78,1.76-5.72,2.28-8.7c0.96-5.44,2.03-10.88,3.58-16.18c0.8-2.73,1.13-5.48,1.72-8.22
			c1.2-5.57,2.27-11.16,3.38-16.74c0.53-2.66,0.75-5.43,1.65-7.97c1.18-3.32,1.02-6.81,1.95-10.12c0.27-0.97,1.13-1.79,1.34-2.75
			c0.21-0.95-0.29-2.05-0.08-2.99c0.21-0.93,0.93-1.75,1.36-2.49c0.06-1.41,0.07-2.8,0.19-4.19c0.14-1.59,0.56-3.18,0.49-4.76
			c-0.04-0.89,0.15-1.51,0.59-2.21c0.24-0.39,0.33-0.9,0.41-1.37c0.3-1.72,0.53-3.45,0.87-5.15c0.42-2.12,0.9-4.24,1.42-6.34
			c0.17-0.68,0.42-1.43,0.89-1.92c0.69-0.73,1.89-1.02,1.62-2.42c-0.04-0.21,0.66-0.7,1.09-0.83c1.42-0.42,2.85-0.78,4.3-1.06
			c1.86-0.37,3.73-0.64,5.6-0.96c1.3-0.22,2.61-0.39,3.89-0.67c1.66-0.35,3.31-0.79,4.96-1.19c0.29-0.07,0.58-0.17,0.87-0.19
			c0.96-0.06,1.93,0,2.87-0.14c1.43-0.21,2.28,0.03,2.76,1.32c0.72,1.94,1.26,3.95,1.85,5.94c0.8,2.69,1.62,5.39,2.34,8.1
			c0.34,1.27,0.45,2.6,0.69,3.9c0.24,1.32,0.31,2.72,0.81,3.94c0.88,2.18,1.53,4.36,1.66,6.73c0.07,1.25,0.63,2.47,0.86,3.72
			c0.14,0.75,0.06,1.53,0.12,2.29c0.02,0.27,0.15,0.54,0.24,0.81c0.26,0.72,0.47,1.46,0.81,2.14c1.04,2.08,1.39,4.25,1.14,6.54
			c-0.02,0.21,0.14,0.46,0.28,0.65c1.81,2.46,2.05,5.35,2.42,8.21c0.13,1.02,0.38,2.07,0.84,2.99c1.35,2.69,0.55,5.86,2.1,8.52
			c0.45,0.78,0.26,1.89,0.47,2.83c0.31,1.4,0.71,2.77,1.06,4.16c0.54,2.18,1.31,4.32,1.04,6.63c-0.02,0.15-0.02,0.35,0.07,0.46
			c1.49,1.97,1.15,4.41,1.79,6.6c0.62,2.16,1.2,4.33,1.71,6.51c0.18,0.76,0.12,1.58,0.18,2.37c0.05,0.63,0.04,1.28,0.16,1.9
			c0.53,2.63,0.98,5.28,1.71,7.86C1002.4,615.48,1003.33,616.91,1004.12,618.56z M969.43,589.61c0-0.81,0.28-1.71-0.05-2.08
			c-0.89-0.98-0.77-2.05-0.8-3.17c-0.02-0.8-0.22-1.59-0.37-2.38c-0.3-1.6-0.76-3.19-0.91-4.81c-0.21-2.12-0.17-4.25-0.28-6.38
			c-0.02-0.44-0.15-0.98-0.44-1.29c-1.04-1.1-0.77-2.37-0.16-3.34c0.64-1.02,0.59-1.72-0.02-2.63c-0.25-0.37-0.41-0.94-0.31-1.35
			c0.27-1.08-0.41-1.57-0.99-2.23c-2.24,2.34-2.4,3.36-1.05,6.05c-0.31,0.46-0.92,0.94-0.88,1.38c0.16,2.1-1.46,3.94-0.87,6.09
			c0.12,0.42-0.1,0.94-0.17,1.41c-0.58,3.48-1.3,6.94-1.67,10.43c-0.16,1.47,0.23,2.98-1.42,4.38
			C962.64,590.33,965.75,589.18,969.43,589.61z"/>
		<path class="st0" d="M428.16,459.8c0-0.48,0-0.95,0-1.54c0.81-0.36,1.6-0.91,2.46-1.06c4.3-0.75,8.62-1.36,12.92-2.12
			c1.52-0.27,2.99-0.8,4.48-1.21c0.27-0.07,0.53-0.22,0.8-0.23c0.95-0.04,1.92,0.06,2.86-0.07c1.43-0.21,2.38,0.02,2.84,1.17
			c0.66,1.62,1.29,3.28,1.68,4.98c0.74,3.21,1.34,6.43,2.68,9.5c0.54,1.24,0.36,2.78,0.51,4.19c0.06,0.54,0.06,1.1,0.24,1.6
			c1.01,2.79,2.13,5.52,2.23,8.56c0.04,1.32,0.67,2.62,0.95,3.94c0.13,0.59,0.07,1.23,0.08,1.84c0,0.23-0.12,0.63-0.04,0.67
			c1.7,0.84,0.91,2.76,1.83,4.05c0.71,1,0.37,2.7,0.52,4.08c0.06,0.54-0.02,1.2,0.27,1.58c1.53,1.97,1.95,4.35,2.04,6.61
			c0.08,1.87,1.21,3.32,1.31,5.1c0.07,1.16,0.35,2.31,0.59,3.45c0.62,2.94,1.77,5.77,1.84,8.82c0.01,0.45,0.26,0.91,0.44,1.34
			c1.05,2.49,1.74,5.04,1.57,7.76c-0.01,0.15-0.07,0.34,0,0.46c1.8,3.17,1.71,6.85,2.93,10.19c0.64,1.77,0.53,3.79,0.85,5.69
			c0.34,2.04,0.87,4.06,1.17,6.11c0.33,2.25,1.15,4.32,2.06,6.38c0.35,0.79,1.07,1.64,0.22,2.71c-0.23,0.28,0.53,1.22,0.68,1.89
			c0.3,1.38-1.07,3.14-2.66,3.52c-0.32,0.08-0.67,0.14-0.98,0.1c-4.47-0.71-8.69,0.83-12.95,1.6c-3.17,0.57-6.29,1.17-9.52,1.2
			c-2.79,0.03-3.88-0.7-4.34-3.44c-0.48-2.85-0.75-5.73-1.17-8.6c-0.34-2.35-0.79-4.69-1.11-7.04c-0.12-0.85-0.02-1.73-0.02-2.5
			c-1.1-0.19-2.09-0.38-3.09-0.52c-0.39-0.06-0.82-0.08-1.21,0c-2.46,0.52-4.89,1.14-7.36,1.57c-1.2,0.21-1.75,0.59-2.11,1.86
			c-0.83,2.97-0.78,6.01-1.25,9.01c-0.31,1.97-0.76,3.92-1.06,5.89c-0.22,1.42-0.3,2.85-0.45,4.37c-0.31,0.53-0.83,1.17-1.06,1.89
			c-0.53,1.62-1.38,2.3-3.15,2.26c-2.51-0.07-4.97,0.01-7.3,1.13c-0.72,0.35-1.58,0.48-2.4,0.58c-4.18,0.51-8.36,1-12.54,1.43
			c-1.18,0.12-2.4-0.02-3.45-0.04c-0.47-3.37,1.54-6.07,1.24-9.18c-0.12-1.21,0.64-2.47,0.87-3.73c0.24-1.31,1.59-2.57,0.27-3.99
			c0.72-0.98,0.93-2.12,1.23-3.28c1.1-4.25,1.72-8.58,2.45-12.9c0.55-3.24,1.58-6.41,2.37-9.62c0.59-2.41,1.21-4.82,1.69-7.25
			c0.89-4.55,1.67-9.11,2.55-13.66c0.73-3.77,1.55-7.53,2.32-11.29c0.05-0.24,0.01-0.54,0.15-0.7c1.35-1.69,0.67-3.86,1.44-5.71
			c0.43-1.04,0.13-2.36,0.4-3.49c0.23-0.97,0.84-1.86,1.21-2.81c0.15-0.39,0.26-0.87,0.17-1.27c-0.41-1.95-0.05-3.58,1.91-4.8
			c-0.74-1.18-0.86-2.39-0.5-3.83c0.45-1.76,0.43-3.64,0.61-5.46c0.02-0.24-0.04-0.5,0.03-0.71c1.33-3.86,1.79-7.93,2.98-11.83
			c0.12-0.39,0.26-0.77,0.32-1.16C426.08,461.22,426.07,461.22,428.16,459.8z M446.03,534.17c0.42-0.71,1.01-1.43,0-2.4
			c-0.35-0.33-0.39-1.01-0.48-1.54c-0.23-1.33-0.39-2.67-0.61-3.99c-0.26-1.55-0.67-3.08-0.79-4.63c-0.21-2.75,0.57-5.62-1.23-8.15
			c-0.14-0.2,0-0.62,0.06-0.93c0.37-1.86,1.19-3.71,0-5.56c0.56-1.24-0.38-1.65-1.2-2.34c-1.51,2.08-2.56,3.99-0.74,6.08
			c-0.41,0.66-1.06,1.22-1.02,1.74c0.14,2.02-1.28,3.82-0.78,5.87c0.1,0.43-0.13,0.93-0.21,1.4c-0.57,3.39-1.15,6.77-1.7,10.16
			c-0.24,1.49-0.41,2.99-0.65,4.82C439.62,534.52,442.74,534.35,446.03,534.17z"/>
		<path class="st0" d="M501.58,682.28c-0.26,0.02-0.51,0.09-0.73,0.04c-3.81-0.91-7.25,1.12-10.92,1.3
			c-1.19,0.06-1.73,0.62-1.87,1.79c-0.34,2.78-0.88,5.54-1.19,8.32c-0.26,2.31-0.17,4.66-1.24,6.82c-0.14,0.27-0.18,0.66-0.1,0.95
			c0.57,2.19-0.94,3.89-1.44,5.82c-0.31,1.2-1.67,1.45-2.83,1.52c-1.86,0.11-3.72,0.1-5.58,0.19c-0.3,0.01-0.58,0.27-0.89,0.38
			c-0.99,0.36-1.95,0.9-2.98,1.03c-4.34,0.58-8.69,1.07-13.04,1.53c-1.12,0.12-2.26,0.02-3.64,0.02c0.55-2.06,0.4-3.86,1.02-5.65
			c0.63-1.79,0.7-3.76,1.05-5.65c0.13-0.7,0.36-1.39,0.53-2.08c0.18-0.71,0.68-1.55,0.45-2.09c-0.65-1.57,0.36-2.81,0.62-4.16
			c0.75-3.84,2.03-7.61,2.51-11.48c0.44-3.62,1.62-7.02,2.35-10.55c0.8-3.91,1.86-7.76,2.66-11.67c0.56-2.75,0.78-5.57,1.34-8.33
			c0.67-3.29,1.57-6.54,2.31-9.82c0.25-1.1,0.24-2.25,0.49-3.34c0.21-0.91,0.62-1.77,0.94-2.66c0.1-0.28,0.2-0.56,0.23-0.85
			c0.25-2.18,0.37-4.38,0.76-6.54c0.22-1.21,0.88-2.34,1.46-3.82c-0.75-1.82-0.29-3.66,1.41-4.87c0-1.56-0.07-2.89,0.02-4.2
			c0.12-1.74,0.37-3.48,0.55-5.22c0.02-0.23-0.21-0.59-0.11-0.68c1.27-1.21,0.77-2.87,1.15-4.29c0.69-2.57,1.3-5.15,1.92-7.74
			c0.15-0.62,0.1-1.3,0.31-1.89c0.29-0.8,0.54-1.83,1.17-2.24c1.02-0.66,1.41-1.43,1.29-2.84c1.9-0.44,3.72-0.91,5.55-1.28
			c1.69-0.34,3.4-0.6,5.11-0.86c1.62-0.25,3.26-0.4,4.87-0.72c1.44-0.29,2.82-0.85,4.27-1.09c1.69-0.29,3.43-0.52,5.13-0.45
			c0.55,0.02,1.31,0.99,1.53,1.67c0.97,2.97,1.78,5.98,2.63,8.98c0.35,1.23,0.41,2.64,1.07,3.68c1.02,1.62,0.54,3.41,1.08,5.06
			c0.39,1.19,0.25,2.59,0.78,3.69c1.78,3.69,1.91,7.74,2.75,11.62c0.44,2.02,1.16,3.86,1.81,5.77c0.39,1.15,0.67,2.48,0.48,3.65
			c-0.21,1.28,0.44,2.04,0.87,3.06c0.74,1.77,1.08,3.69,1.53,5.57c0.39,1.62,0.67,3.26,1.04,4.89c0.31,1.38,0.71,2.74,1,4.12
			c0.57,2.8,1.09,5.61,1.64,8.42c0.09,0.46,0.23,0.92,0.42,1.36c1.06,2.49,1.6,5.09,1.55,7.79c0,0.16-0.05,0.4,0.03,0.46
			c1.43,1.02,0.87,2.66,1.26,3.99c0.89,3.08,1.85,6.19,2.25,9.35c0.33,2.61,0.75,5.18,1.19,7.77c0.49,2.89,1.57,5.58,2.66,8.27
			c0.08,0.2,0.33,0.34,0.5,0.51c-1.7,1.13-0.22,2.4-0.16,3.6c0.06,1.12-0.48,2.15-1.35,1.93c-2.55-0.64-4.59,0.98-6.94,1.25
			c-4.16,0.48-8.23,1.61-12.37,2.29c-2.18,0.35-4.43,0.37-6.65,0.42c-1.3,0.03-2.03-0.93-2.58-1.95c-0.22-0.42-0.35-0.91-0.41-1.38
			c-0.4-3.03-0.79-6.06-1.15-9.09c-0.21-1.74-0.33-3.49-0.57-5.23C502.18,685.12,501.87,683.81,501.58,682.28z M494.17,641.76
			c-0.59,2.28-1.19,4.3-1.62,6.36c-0.26,1.24-0.17,2.54-0.36,3.8c-0.16,1.11-0.58,2.18-0.72,3.28c-0.46,3.55-0.36,7.18-1.54,10.76
			c1.57,0,3.1,0.06,4.64-0.02c1.6-0.08,3.2-0.3,4.91-0.47c0.53-0.65,0.77-1.35,0.01-2.24c-0.37-0.44-0.44-1.16-0.56-1.77
			c-0.26-1.33-0.49-2.67-0.69-4.01c-0.25-1.69-0.54-3.39-0.66-5.09c-0.15-2.03-0.12-4.06-0.21-6.09c-0.01-0.2-0.22-0.42-0.38-0.6
			c-1.08-1.13-0.75-2.34-0.21-3.55c0.19-0.43,0.43-0.83,0.7-1.35c-1.72-1.12-0.3-3.49-2.02-4.63
			C492.85,638.76,493.09,640.09,494.17,641.76z"/>
		<path class="st0" d="M771.07,498.68c-0.97-0.11-1.82-0.22-2.68-0.3c-0.56-0.05-1.15-0.16-1.68-0.05c-2.44,0.48-4.86,1.08-7.31,1.5
			c-1.21,0.21-1.91,0.57-2.06,1.9c-0.33,2.94-0.79,5.86-1.25,8.79c-0.32,2.04-0.74,4.07-1.11,6.11c-0.07,0.4-0.24,0.82-0.16,1.19
			c0.46,2.17-0.9,3.9-1.47,5.81c-0.36,1.21-1.68,1.41-2.85,1.48c-1.78,0.1-3.57,0.14-5.36,0.2c-0.08,0-0.18,0-0.24,0.05
			c-3.52,2.38-7.71,1.29-11.53,2.1c-2.16,0.46-4.4,0.63-6.61,0.86c-0.7,0.07-1.42-0.07-2.33-0.12c0.53-2.09,0.42-3.99,1.06-5.85
			c0.59-1.72,0.66-3.6,1.01-5.41c0.21-1.1,0.6-2.17,0.77-3.27c0.11-0.73-0.03-1.5-0.06-2.25c-0.01-0.21-0.07-0.45,0-0.62
			c1.22-2.79,2.05-5.66,2.25-8.72c0.07-1.1,0.51-2.17,0.75-3.26c0.92-4.14,1.8-8.28,2.73-12.42c0.86-3.81,1.86-7.59,2.64-11.42
			c0.59-2.91,0.83-5.89,1.41-8.81c0.63-3.14,1.5-6.23,2.22-9.34c0.2-0.86,0.15-1.77,0.36-2.63c0.28-1.14,0.72-2.25,1.08-3.38
			c0.09-0.28,0.18-0.57,0.21-0.87c0.24-2.16,0.36-4.33,0.75-6.47c0.22-1.21,0.87-2.36,1.46-3.88c-0.51-1.71-0.41-3.64,1.41-4.81
			c0-1.52-0.08-2.84,0.02-4.14c0.13-1.67,0.35-3.33,0.65-4.97c0.5-2.78,1.08-5.54,1.66-8.3c0.5-2.35,1.01-4.71,1.58-7.04
			c0.15-0.6,0.42-1.26,0.86-1.67c0.74-0.69,1.89-1.02,1.65-2.41c-0.04-0.22,0.65-0.72,1.08-0.83c1.67-0.44,3.35-0.81,5.04-1.15
			c1.05-0.21,2.12-0.31,3.18-0.47c2.11-0.33,4.23-0.66,6.34-1c0.9-0.15,1.94-0.11,2.64-0.57c1.78-1.17,3.86-0.37,5.7-1.07
			c1.04-0.4,1.94,0.38,2.3,1.35c0.7,1.87,1.3,3.78,1.87,5.69c0.85,2.84,1.68,5.69,2.43,8.56c0.32,1.21,0.42,2.48,0.63,3.72
			c0.2,1.16,0.18,2.42,0.65,3.47c1.7,3.79,1.76,7.93,2.91,11.83c0.28,0.96-0.46,2,0.68,2.98c0.73,0.63,0.94,1.97,1.14,3.03
			c0.26,1.36,0.26,2.77,0.4,4.16c0.05,0.52,0,1.16,0.28,1.54c1.63,2.19,2.05,4.82,2.14,7.31c0.05,1.42,0.68,2.54,1.08,3.64
			c1.01,2.78,0.43,5.85,1.98,8.51c0.49,0.84,0.27,2.05,0.5,3.07c0.3,1.4,0.7,2.78,1.08,4.15c0.59,2.12,1.22,4.23,0.98,6.47
			c-0.02,0.15,0,0.35,0.09,0.47c1.5,1.97,1.16,4.4,1.75,6.59c0.58,2.17,1.37,4.31,1.72,6.51c0.37,2.36,0.66,4.73,1.08,7.09
			c0.56,3.14,1.5,6.12,2.73,9.01c0.28,0.65,0.2,0.79-0.06,1.32c-0.23,0.46-0.07,1.24,0.17,1.75c0.84,1.77,0.2,3.25-1.67,3.41
			c-6.33,0.54-12.46,2.13-18.68,3.21c-2.18,0.38-4.43,0.39-6.65,0.43c-1.28,0.02-2.06-0.93-2.6-1.96c-0.26-0.49-0.4-1.06-0.47-1.61
			c-0.4-3.27-0.73-6.55-1.15-9.81c-0.24-1.81-0.65-3.6-0.91-5.41C771.13,500.63,771.13,499.6,771.07,498.68z M764.69,452.35
			c-2.19,2.4-2.35,3.44-0.97,6.11c-0.29,0.36-0.76,0.71-0.85,1.13c-0.38,1.94-0.66,3.89-0.95,5.84c-0.1,0.63-0.1,1.28-0.2,1.91
			c-0.56,3.4-1.15,6.79-1.7,10.18c-0.24,1.49-0.4,3-0.62,4.68c0.11,0.02,0.48,0.2,0.85,0.19c2.61-0.11,5.22-0.25,7.83-0.41
			c0.95-0.06,1.44-1.06,1.01-1.99c-0.27-0.57-0.87-1.14-0.83-1.68c0.23-3.74-2.14-7.2-1.19-11c-1-1.97,0.42-4.47-1.45-6.26
			c-0.11-0.1,0.01-0.47,0.07-0.7c0.27-1.06,0.55-2.11,0.84-3.23c-0.26-0.71-0.85-1.54-0.79-2.33
			C765.82,453.78,765.53,453.12,764.69,452.35z"/>
		<path class="st0" d="M615.42,600.29c-0.72-1.81-0.31-3.6,1.33-4.71c0-1.52-0.09-2.76,0.02-3.98c0.15-1.74,0.4-3.48,0.71-5.2
			c0.49-2.7,1.04-5.39,1.6-8.08c0.51-2.43,1.04-4.86,1.63-7.28c0.15-0.6,0.43-1.28,0.89-1.66c0.8-0.67,1.81-1.06,1.63-2.4
			c-0.03-0.23,0.67-0.7,1.1-0.82c1.66-0.45,3.34-0.85,5.03-1.19c1.37-0.27,2.76-0.44,4.14-0.65c1.87-0.28,3.75-0.51,5.6-0.87
			c1.28-0.24,2.5-0.77,3.78-0.98c1.69-0.28,3.43-0.53,5.13-0.47c0.56,0.02,1.34,0.96,1.56,1.63c0.96,2.89,1.76,5.82,2.59,8.75
			c0.35,1.23,0.44,2.58,1,3.71c0.99,2.01,1.02,4.11,1.17,6.24c0.05,0.69,0.38,1.38,0.66,2.04c1.65,3.87,2.1,8.03,2.87,12.08
			c0.41,2.13,1.09,4.06,1.87,6.04c0.44,1.12,0.66,2.48,0.46,3.64c-0.22,1.29,0.53,2.04,0.87,3.05c0.77,2.26,1.12,4.66,1.64,7
			c0.1,0.46,0,1.03,0.24,1.39c1.05,1.54,1.18,3.26,1.41,5.03c0.21,1.62,0.84,3.19,1.23,4.8c0.17,0.69,0.21,1.42,0.31,2.13
			c0.32,2.31,0.9,4.53,1.77,6.71c0.46,1.15,0.81,2.47,0.71,3.67c-0.18,2.19,0.99,4.02,1.34,6.05c0.52,3,1.54,5.91,2.06,8.9
			c0.42,2.43,0.65,4.88,1.12,7.32c0.59,3.11,1.59,6.04,2.75,8.94c0.15,0.38,0.72,0.54,0.05,1.08c-0.32,0.26-0.24,1.16-0.13,1.74
			c0.12,0.67,0.48,1.29,0.74,1.95c-0.68,1.04-1.38,1.79-2.79,1.08c-0.39-0.2-1.18-0.27-1.42-0.04c-1.79,1.69-4.19,1.29-6.31,1.79
			c-3.76,0.89-7.58,1.6-11.4,2.22c-1.77,0.29-3.6,0.22-5.4,0.28c-1.43,0.04-2.24-0.9-2.86-1.97c-0.28-0.47-0.4-1.06-0.47-1.61
			c-0.4-3.27-0.74-6.54-1.17-9.8c-0.24-1.81-0.63-3.6-0.89-5.41c-0.15-1.01-0.16-2.04-0.22-2.95c-0.99-0.15-1.91-0.31-2.84-0.43
			c-0.48-0.06-1.05-0.19-1.46-0.02c-2.27,0.95-4.69,1.17-7.09,1.48c-1.38,0.18-2.24,0.61-2.4,2.18c-0.29,2.86-0.75,5.71-1.2,8.55
			c-0.32,2.04-0.74,4.07-1.11,6.11c-0.09,0.47-0.12,0.96-0.2,1.43c-0.25,1.5,0.48,3.22-1.2,4.41c-0.32,0.23-0.19,1.05-0.26,1.6
			c-1.24,0.84-2.52,0.88-3.95,0.98c-2.03,0.14-4.24-0.12-6.14,1.17c-0.69,0.47-1.73,0.51-2.62,0.62c-3.52,0.45-7.03,0.9-10.56,1.25
			c-1.78,0.18-3.58,0.18-5.57,0.26c0.39-2.1,0.35-3.9,0.96-5.69c0.62-1.79,0.69-3.76,1.06-5.64c0.25-1.26,0.87-2.49,0.87-3.74
			c-0.02-3.2,1.39-6.05,1.99-9.09c0.58-2.96,0.71-6.01,1.35-8.96c0.77-3.52,1.87-6.97,2.83-10.45c0.11-0.39,0.29-0.75,0.36-1.14
			c1.03-5.76,1.97-11.54,3.08-17.29c0.62-3.22,1.53-6.38,2.26-9.58c0.23-1.02,0.2-2.09,0.44-3.11c0.23-0.98,0.68-1.92,1.01-2.88
			c0.09-0.27,0.16-0.55,0.19-0.83c0.25-2.22,0.39-4.46,0.78-6.66C614.16,602.9,614.8,601.83,615.42,600.29z M637.3,612.91
			c-2.46,2.35-2.67,3.62-1.32,6.35c-0.27,0.33-0.83,0.72-0.81,1.08c0.1,2.03-1.33,3.78-1,5.86c0.11,0.68-0.14,1.42-0.25,2.13
			c-0.53,3.32-1.23,6.63-1.55,9.97c-0.15,1.55,0.15,3.13-0.93,4.83c3.12-0.16,6.24-0.32,9.5-0.49c0.69-0.68,0.96-1.41,0.1-2.39
			c-0.37-0.43-0.39-1.17-0.5-1.78c-0.23-1.25-0.4-2.52-0.62-3.78c-0.27-1.54-0.9-3.12-0.74-4.62c0.16-1.48-0.04-2.86-0.25-4.25
			c-0.2-1.31,0.54-2.89-0.97-3.92c-0.11-0.07-0.04-0.46,0.02-0.69c0.26-1.06,0.55-2.12,0.84-3.23
			C638.35,616.45,637.88,614.84,637.3,612.91z"/>
		<path class="st0" d="M832.07,477.24c0.79,0.32,1.4,0.56,2.05,0.82c0.44-0.37,0.87-0.71,1.39-1.15c0.12,0.32,0.19,0.51,0.26,0.7
			c0.83,2.29,1.24,4.57,0.81,7.05c-0.34,1.99,0.26,4.06-0.17,6.12c-0.11,0.52,0.78,1.23,1.09,1.69c2.6-0.34,4.87-0.67,7.14-0.91
			c0.41-0.04,0.86,0.39,1.29,0.4c0.85,0.02,1.95,0.97,2.5-0.51c0.04-0.11,0.27-0.25,0.39-0.23c2.18,0.3,2.94-1.43,4.19-2.75
			c-0.47-0.63-0.94-1.25-1.23-1.64c0.29-0.72,0.69-1.28,0.72-1.86c0.12-2.38,0.14-4.77,0.16-7.16c0.02-2,0.03-4.01-0.04-6.01
			c-0.05-1.62-1.22-2.56-2.42-3.48c-3.28-2.53-6.5-5.12-9.28-8.2c-0.63-0.7-1.57-1.11-2.36-1.68c-3.26-2.34-6.57-4.62-9.75-7.05
			c-1.48-1.13-2.67-2.61-4.11-3.81c-4.08-3.39-8.13-6.81-12.37-9.99c-1.46-1.1-1.59-2.33-1.54-3.76c0.06-1.81,0.43-3.62,0.36-5.42
			c-0.08-1.81,0.2-3.41,1.62-4.92c-0.66-0.28-1.08-0.45-1.54-0.64c-0.32-3.41,0.29-6.91,0-10.37c-0.19-0.02-0.38-0.04-0.57-0.06
			c0.36-0.41,0.73-0.83,1.18-1.34c-1.47-2.99-1.09-6.32-0.68-9.42c0.32-2.37,2.07-4.54,4.71-5.51c0.46-0.17,1.02-0.25,1.33-0.56
			c2.94-2.93,6.73-3.73,10.69-4.3c4.73-0.68,9.43-1.59,14.15-2.35c5.38-0.87,10.77-1.69,16.16-2.54c2.42-0.38,4.84-0.84,7.27-1.16
			c2.92-0.39,5.87-1.14,8.77-0.12c1.52,0.53,3.12,1.2,4.29,2.24c0.79,0.7,1.12,2.13,1.22,3.27c0.17,1.86,0.02,3.76-0.05,5.63
			c-0.1,2.75-0.28,5.5-0.35,8.26c-0.07,2.7-0.08,5.41-0.05,8.12c0.03,2.89-0.46,3.66-3.55,4.23c-3.45,0.63-6.87,1.52-10.44,1.53
			c-1.54,0-3.08,0.53-4.63,0.7c-2.04,0.21-4.09,0.3-6.05,0.44c-1.48-1.41-0.62-2.77-0.15-4.08c-1.61-2.13-1.02-4.51-0.47-6.65
			c0.25-1,0.31-1.78,0.07-2.8c-0.46-0.05-1-0.27-1.4-0.12c-4.17,1.6-8.73,1.54-12.95,2.89c-0.82,0.26-1.58,0.77-2.28,1.28
			c-0.28,0.2-0.59,0.84-0.48,1.04c0.6,1.02,0.75,1.95-0.08,2.9c1.01,2.8-0.24,5.57-0.15,8.37c0.05,1.56,0.15,3.03,1.57,4.11
			c1.61,1.22,3.18,2.51,4.7,3.84c1.39,1.21,2.62,2.59,4.04,3.75c2.08,1.7,4.29,3.25,6.4,4.91c1.47,1.16,2.88,2.39,4.33,3.58
			c1.19,0.98,2.4,1.94,3.6,2.91c2.1,1.69,4.17,3.41,6.29,5.06c2.23,1.74,3.99,3.99,6.63,5.29c1.67,0.82,3.16,2.01,4.68,3.09
			c0.35,0.25,0.72,0.74,0.73,1.13c0.05,2.39,0.6,4.66,1.22,6.95c0.31,1.13,0.3,2.5-0.06,3.6c-0.97,2.92-0.52,5.88-0.64,8.83
			c-0.1,2.47-0.4,4.94-0.45,7.41c-0.05,2.56,0.18,5.13,0.12,7.7c-0.08,3.6-1.88,6.39-4.65,8.65c-2.22,1.81-4.82,2.67-7.67,3.1
			c-4.9,0.74-9.76,1.69-14.65,2.51c-5.62,0.94-11.26,1.79-16.88,2.73c-4.87,0.82-9.72,1.78-14.61,2.54
			c-1.82,0.29-3.71,0.34-5.56,0.27c-2.9-0.12-5.59-3.35-5.21-6.15c0.14-1.05-0.21-2.22,0.78-3.11c0.24-0.22,0.32-0.83,0.19-1.15
			c-0.45-1.15-0.02-2.44-0.35-3.44c-0.94-2.86,0.12-5.69-0.25-8.51c-0.21-1.63-0.37-3.27-0.4-4.91c-0.02-1.35-0.02-2.76,0.34-4.04
			c0.71-2.54,0.85-2.46,3.69-2.67c1.8-0.13,3.58-0.49,5.36-0.8c2.58-0.45,5.15-0.98,7.74-1.37c0.66-0.1,1.42,0.12,2.08,0.34
			C831.06,478.84,831.81,478.64,832.07,477.24z"/>
		<path class="st0" d="M1013.13,530.98c-0.66-0.3-1.09-0.5-1.45-0.67c-0.32-3.44,0.37-6.89-0.24-10.76
			c0.01-0.01,0.36-0.42,0.75-0.88c-0.05-0.2-0.07-0.44-0.16-0.65c-1.28-2.96-0.95-6.15-0.44-9.05c0.41-2.29,2.14-4.55,4.94-5.31
			c0.39-0.11,0.82-0.25,1.09-0.52c2.96-2.91,6.71-3.75,10.7-4.28c4.66-0.62,9.27-1.55,13.91-2.31c5.22-0.86,10.44-1.67,15.67-2.51
			c2.68-0.43,5.34-0.93,8.03-1.3c2.92-0.4,5.89-1.04,8.79-0.06c1.52,0.52,3.11,1.22,4.26,2.27c0.79,0.71,1.11,2.14,1.21,3.29
			c0.16,1.87-0.01,3.78-0.07,5.67c-0.09,2.6-0.26,5.19-0.32,7.79c-0.06,2.87-0.06,5.74-0.05,8.61c0.01,2.65-0.52,3.49-3.21,3.99
			c-3.36,0.63-6.78,1.02-10.16,1.54c-1.95,0.3-3.89,0.77-5.85,0.94c-1.87,0.16-3.77,0.04-5.84,0.04c-0.11-0.27-0.29-0.71-0.47-1.14
			c-0.48-1.17,1.07-2.06,0.33-3.42c-0.53-0.96-0.57-2.28-0.49-3.42c0.07-1.05-0.3-2.21,0.7-3.2c0.33-0.32-0.07-1.34-0.15-2.1
			c-0.64-0.04-1.19-0.24-1.6-0.08c-4.08,1.6-8.56,1.46-12.68,2.82c-0.38,0.13-0.82,0.13-1.18,0.3c-1.74,0.81-2.02,1.9-0.96,3.62
			c-0.41,0.59-0.82,1.04-0.73,2.02c0.22,2.29,0.05,4.64-0.21,6.94c-0.24,2.07,0.08,3.82,1.78,5.19c1.45,1.17,2.93,2.3,4.38,3.48
			c0.99,0.8,2.18,1.5,2.89,2.5c1.92,2.67,4.98,3.92,7.35,6.02c1.77,1.57,3.49,3.18,5.34,4.65c2.04,1.63,4.25,3.05,6.29,4.69
			c1.95,1.57,3.75,3.31,5.63,4.96c0.61,0.54,1.2,1.11,1.87,1.57c2.1,1.42,4.25,2.76,6.35,4.18c0.43,0.29,1,0.76,1.04,1.19
			c0.27,2.88,0.45,5.78,0.57,8.67c0.01,0.31-0.59,0.65-0.81,0.87c0.18,0.8,0.48,1.55,0.49,2.3c0.04,3.51,0.01,7.02,0,10.54
			c-0.02,3.99-0.05,7.98-0.06,11.98c-0.01,3.36-1.71,5.99-4,8.25c-2.03,2-4.67,3.04-7.49,3.53c-5.36,0.94-10.74,1.82-16.11,2.7
			c-5.22,0.86-10.44,1.66-15.65,2.54c-1.78,0.3-3.54,0.77-5.31,1.16c-0.73,0.16-1.45,0.33-2.18,0.45c-2.11,0.33-4.22,0.74-6.35,0.94
			c-2.35,0.22-4.73,0.41-7.08,0.3c-2.94-0.14-5.41-3.34-5.04-6.21c0.13-1-0.18-2.09,0.71-2.95c0.24-0.24,0.3-0.77,0.27-1.15
			c-0.12-1.31-0.37-2.61-0.48-3.93c-0.14-1.65-0.43-3.34-0.22-4.96c0.36-2.72-0.19-5.36-0.3-8.03c-0.06-1.34-0.06-2.76,0.28-4.04
			c0.67-2.47,0.96-2.47,3.72-2.69c1.96-0.15,3.9-0.57,5.85-0.89c2.51-0.42,5-0.91,7.51-1.27c0.58-0.08,1.24,0.2,1.84,0.37
			c1.05,0.3,1.31,0.18,2.19-1.23c0.64,0.27,1.29,0.54,1.96,0.82c0.49-0.39,0.93-0.74,1.37-1.09c1.27,2.53,1.51,5.08,1.16,7.77
			c-0.22,1.68-0.27,3.43-0.05,5.1c0.11,0.84,1.01,1.57,1.6,2.42c2.2-0.26,4.29-0.53,6.4-0.73c0.39-0.04,0.81,0.36,1.23,0.38
			c0.87,0.04,1.73,0.8,2.64-0.33c0.4-0.49,1.68-0.46,2.54-0.4c1.24,0.08,1.65-0.45,1.64-1.54c-0.01-1.13,0.12-2.31-0.99-2.87
			c0.33-0.6,0.84-1.12,0.87-1.65c0.11-2.71,0.1-5.42,0.12-8.13c0.01-2.31,0-4.63,0-6.47c-3.48-3.08-6.61-5.85-9.74-8.62
			c-3.1-2.74-6.49-5.12-9.87-7.51c-2.47-1.75-4.92-3.46-7.05-5.66c-2.31-2.39-5.03-4.41-7.61-6.54c-1.94-1.6-3.86-3.28-5.98-4.63
			c-1.67-1.07-1.61-2.5-1.54-4.01c0.09-1.88,0.59-3.79,0.38-5.63C1011.4,533.75,1012.05,532.49,1013.13,530.98z"/>
		<path class="st0" d="M334.61,538.49c-1.35-0.1-2.49-0.19-3.86-0.29c0.44-1.83-0.25-3.62,0.82-5.38c-1.82-1.01-0.94-2.92-1.03-4.46
			c-0.13-2.19,0.28-4.43,0.56-6.63c0.06-0.49,0.45-1.08,0.87-1.35c1-0.65,2.11-1.13,3.05-1.62c0.35-1.02,0.82-1.93,0.94-2.87
			c0.18-1.42,0.11-2.86,0.14-4.3c0.05-2.1,0.16-4.2,0.12-6.29c-0.05-2.86-0.25-5.71-0.33-8.57c-0.02-0.63,0.04-1.32,0.3-1.88
			c0.34-0.73,0.33-1.28-0.02-2.03c-0.27-0.58-0.04-1.37-0.03-2.07c0-0.73,0-1.46,0-2.43c2.88-1.83-0.53-3.75-0.39-5.74
			c-0.46-0.13-0.86-0.25-1.25-0.36c0.07-0.14,0.1-0.35,0.19-0.38c1.77-0.52,1.91-1.95,1.65-3.3c-0.34-1.73,0.07-3.39,0.2-5.07
			c0.15-1.93,0.51-1.95,2.48-2.22c3.1-0.42,6.16-1.09,9.25-1.57c7.18-1.1,14.37-2.12,21.55-3.22c5.95-0.91,11.89-1.83,17.82-2.87
			c1.78-0.31,3.5-0.91,5.36-0.59c0.33,0.06,0.76-0.17,1.09-0.35c1.61-0.87,2.51-0.56,3.03,1.19c0.29,1,0.56,2.05,0.57,3.08
			c0.01,3.45-0.08,6.9-0.17,10.35c-0.06,2.31-0.73,2.92-3.13,3.06c-0.33,0.02-0.69-0.02-0.98,0.09c-1.07,0.4-2.12,0.86-3.18,1.3
			c-0.97-1.57-2.17-0.17-3.25-0.19c-1.14-0.02-2.29,0.29-3.42,0.52c-1.13,0.23-2.23,0.6-3.36,0.81c-1.22,0.23-2.46,0.3-3.68,0.52
			c-1.14,0.2-2.24,0.6-3.38,0.75c-1.95,0.27-3.93,0.36-5.88,0.63c-0.95,0.13-1.87,0.49-2.73,0.72c-0.28,4.99,0.5,9.78-0.53,14.52
			c-0.2,0.9,0.1,1.9,0.19,2.86c0.02,0.24,0.23,0.49,0.19,0.69c-0.58,2.63,0.54,5.35-0.5,7.96c-0.25,0.62-0.14,1.38-0.22,2.38
			c1.23,0,2.2,0.03,3.16-0.01c4.96-0.18,9.82-1.03,14.69-1.92c4.38-0.81,8.8-1.37,13.22-1.95c0.85-0.11,1.75,0.19,2.75,0.31
			c-0.74,5.76,0.37,11.4-1.14,17.13c-9.72,2.79-19.82,3.91-30.06,5.16c0.54,2.3-0.19,4.21-0.85,6.23c-0.57,1.74-0.12,3.77-0.23,5.67
			c-0.18,3.2,0.49,6.46-0.58,9.61c-0.05,0.15-0.08,0.32-0.06,0.47c0.3,2.4,0.17,4.73-0.18,7.15c-0.38,2.64,0.11,5.41,0.32,8.12
			c0.13,1.74,0.38,3.4-0.26,5.16c-0.32,0.87,0.19,2.01,0.3,3.04c0.28,2.59,0.57,5.18,0.78,7.77c0.03,0.39-0.29,0.97-0.63,1.19
			c-0.68,0.44-1.45,0.85-2.24,0.98c-4.87,0.81-9.76,1.53-14.64,2.29c-1.14,0.18-2.26,0.43-3.4,0.6c-0.82,0.12-1.77,0.47-2.44,0.19
			c-1.58-0.64-2.92-0.8-4.35,0.32c-0.29,0.23-1.07-0.13-1.71-0.23c0.01-1.03,1.1-2.04-0.07-2.9c-0.06-0.05-0.17-0.14-0.16-0.15
			c1.09-1.75,0.01-3.57,0.19-5.35c0.09-0.84,0.02-1.69,0.02-2.54c-0.01-1.6-0.1-3.2-0.02-4.79c0.15-3.21,0.33-6.4-0.31-9.59
			c-0.21-1.07-0.02-2.27,0.24-3.35c0.47-1.92,0.46-3.8,0.18-5.75c-0.3-2.03-0.83-4.05-0.03-6.17c0.37-0.97,0.12-2.25-0.12-3.33
			C335.34,544.42,336.18,541.31,334.61,538.49z"/>
		<path class="st0" d="M162.71,659.95c-4.88,0.34-9.1,2.33-13.66,2.67c-1.13,0.08-2.36,0.23-3.41-0.07c-1.98-0.57-2.7-2.15-2.81-4.1
			c-0.14-2.44-0.49-4.87-0.61-7.31c-0.09-1.68-0.12-3.39,0.13-5.04c0.31-2.02,1.89-2.88,3.83-3.18c2.35-0.36,4.7-0.71,7.05-1.08
			c1.95-0.31,3.89-0.68,5.85-0.95c0.89-0.12,1.87-0.26,2.71-0.05c2.58,0.63,4.84-0.12,7.15-1.09c1.1-0.46,2.36-0.6,3.56-0.83
			c2.43-0.47,4.85-0.92,7.29-1.33c2.91-0.48,5.83-0.9,8.74-1.37c3.33-0.54,6.64-1.23,9.98-1.63c2.65-0.32,5.3-1.06,8.03-0.42
			c0.81,0.19,1.71,0.03,2.86,0.03c0.07,0.67,0.29,1.53,0.21,2.36c-0.34,3.59,0.1,7.16,0.05,10.74c-0.01,1.08,0.13,1.94,1.57,2.11
			c-0.6,0.9-1.69,0.83-2.07,2.02c-0.6,1.9-1.71,2.05-4.05,1.66c-0.78-0.13-1.63,0-2.42,0.15c-2.5,0.48-4.97,1.11-7.49,1.51
			c-2.03,0.32-3.36,1.92-3.34,3.95c0.06,5.37,0,10.74-0.04,16.1c-0.04,3.95-0.16,7.9-0.18,11.85c0,0.69,0.35,1.38,0.46,1.78
			c-0.37,0.64-0.87,1.11-0.88,1.59c-0.03,1.53,0.13,3.06,0.22,4.59c0.02,0.31,0.17,0.68,0.06,0.93c-0.9,2.07-0.35,4.19-0.27,6.29
			c0.01,0.29-0.06,0.63-0.22,0.87c-0.6,0.94,0.46,0.91,0.63,1.13c-0.17,1.34-0.43,2.51-0.45,3.68c-0.06,3.53-0.02,7.06-0.05,10.59
			c-0.01,0.87-0.15,1.75-0.17,2.62c-0.06,2.68-0.15,5.37-0.12,8.05c0.06,4.78,0.25,9.56,0.29,14.34c0.01,1.83-0.26,3.66-0.36,5.5
			c-0.11,2.01-0.16,4.02-0.24,6.17c-2.61,1.33-5.6,1.97-8.58,2.57c-4.68,0.94-9.37,1.82-14.07,2.66c-1.12,0.2-2.3,0.32-3.43,0.22
			c-1.82-0.17-2.82-2.05-2.74-4.47c0.06-1.82-0.12-3.64-0.16-5.47c-0.01-0.27,0.19-0.54,0.22-0.82c0.15-1.18,0.33-2.36,0.41-3.55
			c0.13-1.88,0.3-3.76,0.27-5.64c-0.05-3.27-0.53-6.55-0.3-9.79c0.4-5.72-0.42-11.53,1.17-17.18c0.13-0.45,0.18-0.99,0.05-1.42
			c-0.84-2.68-0.58-5.4-0.4-8.12c0.06-0.95-0.17-1.92-0.16-2.87c0.03-2.93,0.12-5.86,0.18-8.78c0.06-2.76,0.11-5.52,0.17-8.28
			c0.06-3,0.2-5.99,0.18-8.99c-0.01-2.47-0.36-4.94-0.25-7.4c0.06-1.31,0.04-2.48-0.32-3.76
			C162.46,662.53,162.71,661.24,162.71,659.95z"/>
		<path class="st0" d="M660.3,419.03c0.33,0.63,0.58,1.17,0.89,1.67c0.24,0.38-1.14,0.86,0.09,1.23c0.09,0.03-0.33,1.11-0.16,1.58
			c1.13,3.13,0.43,6.37,0.6,9.55c0.19,3.44-0.21,6.91-0.27,10.36c-0.04,1.99,0.09,3.99,0.12,5.98c0.06,4.56,0.13,9.12,0.14,13.68
			c0.01,2.8-0.2,5.61-0.13,8.41c0.16,5.91,0.59,11.82,0.6,17.73c0,2.57,0.26,5.23-0.6,7.77c-0.15,0.44-0.23,0.99-0.09,1.41
			c0.89,2.71,0.27,5.47,0.28,8.2c0.01,3.86-0.17,7.73-0.17,11.59c0,1.27,1.96,2.72,3.33,2.59c0.82-0.08,1.62-0.33,2.43-0.46
			c1.95-0.32,3.91-0.62,5.86-0.92c1.06-0.16,2.18-0.15,3.17-0.5c1.81-0.66,3.52-0.7,5.44,0.17c-0.74,0.99-0.01,2.01-0.03,3.07
			c-0.02,1.12,0.18,2.26,0.06,3.36c-0.29,2.62,0.28,5.3-0.82,7.86c-0.79,1.84-1.99,2.94-4.01,3.29c-2.43,0.41-4.82,1.06-7.26,1.35
			c-4.4,0.53-8.6,2.03-13.08,2.2c-2.54,0.1-5.05,0.76-7.57,1.2c-1.2,0.21-2.42,0.4-3.59,0.74c-3.4,0.98-8.57,1.58-12.19,1.31
			c-1.43-1.67-2.08-3.48-1.82-5.75c0.26-2.31-0.22-4.72,0.13-7.01c0.44-2.9-0.22-5.73-0.02-8.59c0.26-3.71-0.2-7.41-0.21-11.11
			c-0.01-3.7,0.11-7.4,0.14-11.1c0.06-6.02-0.04-12.05,0.19-18.07c0.11-2.97,0.4-5.89-0.51-8.78c-0.05-0.14-0.05-0.33,0-0.47
			c1.32-4.26,0.19-8.59,0.39-12.88c0.17-3.85,0.02-7.72,0.15-11.57c0.04-0.99,0.58-1.98,1-2.92c0.29-0.65,0.78-1.21,1.33-2.05
			c-1.76-0.01-2.16-0.63-2.38-2.26c-0.24-1.77,0.1-3.45-0.08-5.18c-0.19-1.75,0-3.54,0.02-5.32c0-0.32,0.13-0.69,0.01-0.94
			c-1.17-2.3,0.67-3.7,1.69-5.32c0.23-0.36,0.79-0.61,1.25-0.72c2.46-0.57,4.93-1.13,7.41-1.61c2.64-0.51,5.27-1.17,8.01-0.62
			c0.43,0.09,0.96-0.18,1.42-0.34C654.3,419.89,657.17,418.91,660.3,419.03z"/>
		<path class="st0" d="M541.07,698.33c-0.08-0.22-0.43-0.74-0.42-1.25c0.03-4.22-0.03-8.44-0.14-12.66
			c-0.06-2.26,1.14-3.45,3.82-3.98c3.37-0.67,6.75-1.27,10.13-1.89c0.48-0.09,0.98-0.07,1.47-0.1c1.12-0.07,2.25,0.19,3.12-0.95
			c1.02-1.33,2.4-2.33,2.44-4.3c0.03-1.6,0.17-3.16-0.17-4.76c-0.16-0.73,0.28-1.56,0.24-2.34c-0.15-3.02,0.34-6.09-0.6-9.06
			c0.94-1.09,0.4-2.3,0.39-3.51c-0.03-5.13,0.01-10.27,0.15-15.4c0.06-2.22-0.16-4.42,0.1-6.68c0.37-3.23-0.02-6.54-0.07-9.82
			c-0.01-0.88,0.06-1.76,0.06-2.64c0-1.58,0.54-3.09-0.02-4.76c-0.38-1.12,0.1-2.5,0.11-3.76c0.01-2.73-0.13-5.46-0.06-8.19
			c0.09-3.2,0.13-6.37-0.38-9.55c-0.21-1.3,0.16-2.69,0.3-4.04c0.12-1.19,0.89-2.44-0.38-3.49c0.32-2.65,0.43-5.34,1.03-7.93
			c0.29-1.23,1.43-2.01,3.13-2.22c3.66-0.45,7.26-1.36,10.88-2.09c2.17-0.44,4.34-0.91,6.52-1.33c0.56-0.11,1.15-0.12,1.73-0.09
			c1.05,0.07,1.97,0.63,3.04-0.51c0.59-0.63,2.07-0.3,3.06,0.68c0.8,0.79,0.71,1.35,0.51,2.3c-0.3,1.48-0.24,3.03-0.26,4.56
			c-0.08,6.52-0.16,13.05-0.19,19.57c-0.02,3.45,0.09,6.9,0.1,10.35c0,1.04-0.2,2.09-0.2,3.13c0.02,3.24,0.12,6.48,0.14,9.72
			c0.02,2.81-0.03,5.63-0.03,8.44c0,0.71,0.16,1.42,0.16,2.13c0.01,4.16,0.31,8.34-0.13,12.46c-0.28,2.57,0.16,5.06,0.01,7.6
			c-0.24,3.9-0.17,7.83-0.17,11.74c0,1.93,0,3.88,0.2,5.8c0.43,4.11-0.47,7.95-2.05,11.72c-0.92,2.2-2.07,4.11-3.88,5.79
			c-2.53,2.35-5,4.77-8.41,5.78c-2.83,0.84-5.75,1.51-8.67,1.94c-3.7,0.54-7.25,1.45-10.77,2.67c-1.3,0.45-2.87,0.12-4.29,0.28
			c-1.7,0.2-3.38,0.6-5.08,0.84c-0.8,0.11-1.63,0.09-2.44,0.06C543.84,698.54,542.59,698.43,541.07,698.33z"/>
		<path class="st0" d="M688.42,533.6c-0.39-1.75-0.61-3.23-1.09-4.62c-0.25-0.73-0.44-1.3-0.06-2c0.14-0.27,0.19-0.65,0.13-0.95
			c-0.4-2.01,0.28-3.94,0.4-5.91c0.12-1.97,0.21-3.95,0.3-5.93c0.02-0.45-0.07-0.91-0.1-1.4c-0.35-0.05-0.73-0.11-0.92-0.14
			c0.48-2.05,0.95-4.06,1.4-6.02c-0.08-0.72-0.38-1.49-0.21-2.14c0.31-1.13-0.69-1.94-0.33-3.25c0.52-1.89,0.03-4.04,0.03-6.07
			c0-1.19,0.14-2.39,0.17-3.58c0.05-2.24-0.16-4.51,0.16-6.71c0.41-2.82-0.17-5.56-0.16-8.31c0.01-2.28-0.58-4.56-0.13-6.83
			c0.2-0.98,0.62-1.92,1.05-3.18c-1.41-1.36-0.91-3.47-0.92-5.46c-0.02-4.25,0.03-8.5,0.13-12.75c0.03-1.44,0.42-2.87,0.43-4.31
			c0.01-1.59-0.24-3.18-0.33-4.77c-0.02-0.46,0.16-0.92,0.21-1.39c0.05-0.47,0.25-1.08,0.03-1.4c-1.62-2.42-0.31-4.98-0.47-7.46
			c-0.06-1.03,0.12-2.07,0.18-3.1c0.13-2.46,0.12-4.94,0.41-7.39c0.31-2.7,1.89-3.87,4.69-4.2c2.61-0.31,5.18-0.87,7.77-1.32
			c3.74-0.65,7.47-1.37,11.23-1.9c1.2-0.17,2.19,0.28,3.04,1.51c0.77,1.11,1.01,2.15,1.29,3.37c0.6,2.66-0.38,5.07-0.92,7.71
			c1.84,0.75,1.9,2.26,1.85,3.99c-0.11,4.01-0.05,8.03-0.06,12.05c0,0.72-0.1,1.45-0.08,2.17c0.09,3.25,0.25,6.49,0.31,9.74
			c0.03,1.66-0.13,3.33-0.16,4.99c-0.07,4.07-0.15,8.15-0.15,12.22c0,1.03,0.26,2.06,0.4,3.08c0.05,0.39,0.24,0.82,0.15,1.18
			c-0.86,3.13-0.2,6.33-0.41,9.5c-0.29,4.44,0.16,8.93,0.22,13.4c0.03,1.85-0.18,3.69-0.21,5.54c-0.04,2.74,0.03,5.48-0.02,8.22
			c-0.09,4.81-0.25,9.62-0.33,14.44c-0.01,0.7,0.25,1.4,0.28,2.11c0.03,0.68,0.1,1.43-0.13,2.05c-0.91,2.52-0.94,2.43-3.74,2.22
			c-1.1-0.08-2.25,0.22-3.36,0.43c-2.41,0.47-4.8,1.07-7.22,1.48c-2.52,0.42-5.1,0.57-7.61,1.05c-1.87,0.35-3.7,0.74-5.61,0.45
			C689.32,533.91,688.72,533.68,688.42,533.6z"/>
		<path class="st0" d="M619.62,439.28c1.71,0.85,2.07,2.18,1.92,3.86c-0.16,1.83-0.06,3.68-0.1,5.53c-0.03,1.51-0.12,3.03-0.16,4.54
			c-0.06,2.23-0.48,4.54-0.05,6.68c0.52,2.58,0.54,5.16,0.34,7.66c-0.29,3.59,0.11,7.15-0.16,10.75c-0.24,3.08-0.85,6.39,0.42,9.5
			c0.09,0.22,0.19,0.5,0.13,0.7c-1.08,3.2,0.1,6.51-0.59,9.76c-0.31,1.43,0.1,3,0.12,4.5c0.04,4.72,0.05,9.44,0.07,14.17
			c0.02,3.13,0.1,6.26,0.03,9.38c-0.09,4.41-0.3,8.82-0.41,13.22c-0.02,0.86,0.24,1.73,0.31,2.6c0.05,0.53,0.13,1.11-0.04,1.58
			c-0.98,2.76-1.01,2.73-4.11,2.41c-0.73-0.08-1.53-0.14-2.21,0.08c-5.12,1.6-10.4,2.37-15.72,2.94c-1.78,0.19-3.57,0.4-5.36,0.49
			c-0.7,0.03-1.41-0.26-1.84-0.34c-0.36-1.78-0.48-3.37-1.04-4.79c-0.29-0.75-0.36-1.25-0.05-1.94c0.16-0.35,0.25-0.82,0.15-1.18
			c-0.5-1.84,0.23-3.59,0.3-5.38c0.07-1.88,0.26-3.77,0.21-5.65c-0.02-0.71,0.81-2.05-0.97-2.06c0.98-3.34,1.81-6.68,0.65-10.19
			c-0.24-0.74-0.11-1.74,0.19-2.49c1.12-2.84-0.2-5.7,0.22-8.57c0.31-2.11-0.12-4.32,0.19-6.43c0.41-2.87,0.44-5.66-0.25-8.47
			c1.03-2.03-0.33-4.05-0.01-6.12c0.3-1.94,0.07-1.98,1.29-3.62c-1.68-2.16-1.12-4.68-1.05-7.17c0.07-2.46-0.07-4.92-0.05-7.39
			c0.01-1.59,0.03-3.18,0.19-4.76c0.29-2.78,0.97-5.54-0.02-8.32c-0.11-0.32,0.12-0.76,0.16-1.14c0.05-0.55,0.26-1.21,0.04-1.63
			c-1.32-2.48-0.31-5.04-0.35-7.55c-0.02-1.03,0.14-2.07,0.18-3.1c0.1-2.29,0.04-4.6,0.29-6.87c0.34-3.04,1.82-4.19,4.92-4.57
			c2.61-0.32,5.18-0.89,7.77-1.34c3.66-0.64,7.31-1.31,10.98-1.87c1.24-0.19,2.2,0.31,3.1,1.4c0.92,1.11,1.09,2.26,1.38,3.53
			C621.19,434.23,620.2,436.6,619.62,439.28z"/>
	</g>
</g>
<g id="Layer_1">
</g>
</svg>
